<mxfile host="app.diagrams.net" modified="2023-04-10T17:00:28.486Z" agent="Mozilla/5.0 (Windows NT 10.0; Win64; x64) AppleWebKit/537.36 (KHTML, like Gecko) Chrome/111.0.0.0 Safari/537.36" etag="cQG_-Bl4OEFklfWl7jHX" version="21.1.5" type="device">
  <diagram id="R2lEEEUBdFMjLlhIrx00" name="Page-1">
    <mxGraphModel dx="3360" dy="2263" grid="1" gridSize="13" guides="1" tooltips="1" connect="1" arrows="1" fold="1" page="1" pageScale="1" pageWidth="827" pageHeight="1169" background="none" math="0" shadow="0" extFonts="Permanent Marker^https://fonts.googleapis.com/css?family=Permanent+Marker">
      <root>
        <mxCell id="0" />
        <mxCell id="1" parent="0" />
        <mxCell id="C-vyLk0tnHw3VtMMgP7b-2" value="User" style="shape=table;startSize=24;container=1;collapsible=1;childLayout=tableLayout;fixedRows=1;rowLines=0;fontStyle=1;align=center;resizeLast=1;rounded=1;shadow=0;sketch=1;curveFitting=1;jiggle=2;labelBackgroundColor=none;" parent="1" vertex="1">
          <mxGeometry x="460" y="371" width="439" height="354" as="geometry">
            <mxRectangle x="471" y="106" width="70" height="30" as="alternateBounds" />
          </mxGeometry>
        </mxCell>
        <mxCell id="C-vyLk0tnHw3VtMMgP7b-3" value="" style="shape=partialRectangle;collapsible=0;dropTarget=0;pointerEvents=0;fillColor=none;points=[[0,0.5],[1,0.5]];portConstraint=eastwest;top=0;left=0;right=0;bottom=1;rounded=1;sketch=1;curveFitting=1;jiggle=2;labelBackgroundColor=none;" parent="C-vyLk0tnHw3VtMMgP7b-2" vertex="1">
          <mxGeometry y="24" width="439" height="30" as="geometry" />
        </mxCell>
        <mxCell id="C-vyLk0tnHw3VtMMgP7b-4" value="PK" style="shape=partialRectangle;overflow=hidden;connectable=0;fillColor=none;top=0;left=0;bottom=0;right=0;fontStyle=1;rounded=1;sketch=1;curveFitting=1;jiggle=2;labelBackgroundColor=none;" parent="C-vyLk0tnHw3VtMMgP7b-3" vertex="1">
          <mxGeometry width="30" height="30" as="geometry">
            <mxRectangle width="30" height="30" as="alternateBounds" />
          </mxGeometry>
        </mxCell>
        <mxCell id="C-vyLk0tnHw3VtMMgP7b-5" value="id int NOT NULL AUTO_INCREMENT" style="shape=partialRectangle;overflow=hidden;connectable=0;fillColor=none;top=0;left=0;bottom=0;right=0;align=left;spacingLeft=6;fontStyle=5;rounded=1;sketch=1;curveFitting=1;jiggle=2;labelBackgroundColor=none;" parent="C-vyLk0tnHw3VtMMgP7b-3" vertex="1">
          <mxGeometry x="30" width="409" height="30" as="geometry">
            <mxRectangle width="409" height="30" as="alternateBounds" />
          </mxGeometry>
        </mxCell>
        <mxCell id="C-vyLk0tnHw3VtMMgP7b-9" value="" style="shape=partialRectangle;collapsible=0;dropTarget=0;pointerEvents=0;fillColor=none;points=[[0,0.5],[1,0.5]];portConstraint=eastwest;top=0;left=0;right=0;bottom=0;rounded=1;sketch=1;curveFitting=1;jiggle=2;labelBackgroundColor=none;" parent="C-vyLk0tnHw3VtMMgP7b-2" vertex="1">
          <mxGeometry y="54" width="439" height="30" as="geometry" />
        </mxCell>
        <mxCell id="C-vyLk0tnHw3VtMMgP7b-10" value="" style="shape=partialRectangle;overflow=hidden;connectable=0;fillColor=none;top=0;left=0;bottom=0;right=0;rounded=1;sketch=1;curveFitting=1;jiggle=2;labelBackgroundColor=none;" parent="C-vyLk0tnHw3VtMMgP7b-9" vertex="1">
          <mxGeometry width="30" height="30" as="geometry">
            <mxRectangle width="30" height="30" as="alternateBounds" />
          </mxGeometry>
        </mxCell>
        <mxCell id="C-vyLk0tnHw3VtMMgP7b-11" value="insertDate timestamp Current_timestamp NOT NULL" style="shape=partialRectangle;overflow=hidden;connectable=0;fillColor=none;top=0;left=0;bottom=0;right=0;align=left;spacingLeft=6;rounded=1;sketch=1;curveFitting=1;jiggle=2;labelBackgroundColor=none;" parent="C-vyLk0tnHw3VtMMgP7b-9" vertex="1">
          <mxGeometry x="30" width="409" height="30" as="geometry">
            <mxRectangle width="409" height="30" as="alternateBounds" />
          </mxGeometry>
        </mxCell>
        <mxCell id="M6ePK1owIh-glwZV6Rkh-6" value="" style="shape=partialRectangle;collapsible=0;dropTarget=0;pointerEvents=0;fillColor=none;points=[[0,0.5],[1,0.5]];portConstraint=eastwest;top=0;left=0;right=0;bottom=0;rounded=1;sketch=1;curveFitting=1;jiggle=2;labelBackgroundColor=none;" parent="C-vyLk0tnHw3VtMMgP7b-2" vertex="1">
          <mxGeometry y="84" width="439" height="30" as="geometry" />
        </mxCell>
        <mxCell id="M6ePK1owIh-glwZV6Rkh-7" value="" style="shape=partialRectangle;overflow=hidden;connectable=0;fillColor=none;top=0;left=0;bottom=0;right=0;rounded=1;sketch=1;curveFitting=1;jiggle=2;labelBackgroundColor=none;" parent="M6ePK1owIh-glwZV6Rkh-6" vertex="1">
          <mxGeometry width="30" height="30" as="geometry">
            <mxRectangle width="30" height="30" as="alternateBounds" />
          </mxGeometry>
        </mxCell>
        <mxCell id="M6ePK1owIh-glwZV6Rkh-8" value="updateDate timestamp OnUpdate Current_timestamp NOT NULL" style="shape=partialRectangle;overflow=hidden;connectable=0;fillColor=none;top=0;left=0;bottom=0;right=0;align=left;spacingLeft=6;rounded=1;sketch=1;curveFitting=1;jiggle=2;labelBackgroundColor=none;" parent="M6ePK1owIh-glwZV6Rkh-6" vertex="1">
          <mxGeometry x="30" width="409" height="30" as="geometry">
            <mxRectangle width="409" height="30" as="alternateBounds" />
          </mxGeometry>
        </mxCell>
        <mxCell id="ExKup5xLBlTpcws5XFxN-4" value="" style="shape=partialRectangle;collapsible=0;dropTarget=0;pointerEvents=0;fillColor=none;points=[[0,0.5],[1,0.5]];portConstraint=eastwest;top=0;left=0;right=0;bottom=0;rounded=1;sketch=1;curveFitting=1;jiggle=2;labelBackgroundColor=none;" parent="C-vyLk0tnHw3VtMMgP7b-2" vertex="1">
          <mxGeometry y="114" width="439" height="30" as="geometry" />
        </mxCell>
        <mxCell id="ExKup5xLBlTpcws5XFxN-5" value="" style="shape=partialRectangle;overflow=hidden;connectable=0;fillColor=none;top=0;left=0;bottom=0;right=0;rounded=1;sketch=1;curveFitting=1;jiggle=2;labelBackgroundColor=none;" parent="ExKup5xLBlTpcws5XFxN-4" vertex="1">
          <mxGeometry width="30" height="30" as="geometry">
            <mxRectangle width="30" height="30" as="alternateBounds" />
          </mxGeometry>
        </mxCell>
        <mxCell id="ExKup5xLBlTpcws5XFxN-6" value="firstName varchar(255) NOT NULL" style="shape=partialRectangle;overflow=hidden;connectable=0;fillColor=none;top=0;left=0;bottom=0;right=0;align=left;spacingLeft=6;rounded=1;sketch=1;curveFitting=1;jiggle=2;labelBackgroundColor=none;" parent="ExKup5xLBlTpcws5XFxN-4" vertex="1">
          <mxGeometry x="30" width="409" height="30" as="geometry">
            <mxRectangle width="409" height="30" as="alternateBounds" />
          </mxGeometry>
        </mxCell>
        <mxCell id="ExKup5xLBlTpcws5XFxN-7" value="" style="shape=partialRectangle;collapsible=0;dropTarget=0;pointerEvents=0;fillColor=none;points=[[0,0.5],[1,0.5]];portConstraint=eastwest;top=0;left=0;right=0;bottom=0;rounded=1;sketch=1;curveFitting=1;jiggle=2;labelBackgroundColor=none;" parent="C-vyLk0tnHw3VtMMgP7b-2" vertex="1">
          <mxGeometry y="144" width="439" height="30" as="geometry" />
        </mxCell>
        <mxCell id="ExKup5xLBlTpcws5XFxN-8" value="" style="shape=partialRectangle;overflow=hidden;connectable=0;fillColor=none;top=0;left=0;bottom=0;right=0;rounded=1;sketch=1;curveFitting=1;jiggle=2;labelBackgroundColor=none;" parent="ExKup5xLBlTpcws5XFxN-7" vertex="1">
          <mxGeometry width="30" height="30" as="geometry">
            <mxRectangle width="30" height="30" as="alternateBounds" />
          </mxGeometry>
        </mxCell>
        <mxCell id="ExKup5xLBlTpcws5XFxN-9" value="lastName varchar(255) NOT NULL" style="shape=partialRectangle;overflow=hidden;connectable=0;fillColor=none;top=0;left=0;bottom=0;right=0;align=left;spacingLeft=6;rounded=1;sketch=1;curveFitting=1;jiggle=2;labelBackgroundColor=none;" parent="ExKup5xLBlTpcws5XFxN-7" vertex="1">
          <mxGeometry x="30" width="409" height="30" as="geometry">
            <mxRectangle width="409" height="30" as="alternateBounds" />
          </mxGeometry>
        </mxCell>
        <mxCell id="C-vyLk0tnHw3VtMMgP7b-6" value="" style="shape=partialRectangle;collapsible=0;dropTarget=0;pointerEvents=0;fillColor=none;points=[[0,0.5],[1,0.5]];portConstraint=eastwest;top=0;left=0;right=0;bottom=0;rounded=1;sketch=1;curveFitting=1;jiggle=2;labelBackgroundColor=none;" parent="C-vyLk0tnHw3VtMMgP7b-2" vertex="1">
          <mxGeometry y="174" width="439" height="30" as="geometry" />
        </mxCell>
        <mxCell id="C-vyLk0tnHw3VtMMgP7b-7" value="" style="shape=partialRectangle;overflow=hidden;connectable=0;fillColor=none;top=0;left=0;bottom=0;right=0;rounded=1;sketch=1;curveFitting=1;jiggle=2;labelBackgroundColor=none;" parent="C-vyLk0tnHw3VtMMgP7b-6" vertex="1">
          <mxGeometry width="30" height="30" as="geometry">
            <mxRectangle width="30" height="30" as="alternateBounds" />
          </mxGeometry>
        </mxCell>
        <mxCell id="C-vyLk0tnHw3VtMMgP7b-8" value="email varchar(255) NOT NULL" style="shape=partialRectangle;overflow=hidden;connectable=0;fillColor=none;top=0;left=0;bottom=0;right=0;align=left;spacingLeft=6;rounded=1;sketch=1;curveFitting=1;jiggle=2;labelBackgroundColor=none;" parent="C-vyLk0tnHw3VtMMgP7b-6" vertex="1">
          <mxGeometry x="30" width="409" height="30" as="geometry">
            <mxRectangle width="409" height="30" as="alternateBounds" />
          </mxGeometry>
        </mxCell>
        <mxCell id="M6ePK1owIh-glwZV6Rkh-9" value="" style="shape=partialRectangle;collapsible=0;dropTarget=0;pointerEvents=0;fillColor=none;points=[[0,0.5],[1,0.5]];portConstraint=eastwest;top=0;left=0;right=0;bottom=0;rounded=1;sketch=1;curveFitting=1;jiggle=2;labelBackgroundColor=none;" parent="C-vyLk0tnHw3VtMMgP7b-2" vertex="1">
          <mxGeometry y="204" width="439" height="30" as="geometry" />
        </mxCell>
        <mxCell id="M6ePK1owIh-glwZV6Rkh-10" value="" style="shape=partialRectangle;overflow=hidden;connectable=0;fillColor=none;top=0;left=0;bottom=0;right=0;rounded=1;sketch=1;curveFitting=1;jiggle=2;labelBackgroundColor=none;" parent="M6ePK1owIh-glwZV6Rkh-9" vertex="1">
          <mxGeometry width="30" height="30" as="geometry">
            <mxRectangle width="30" height="30" as="alternateBounds" />
          </mxGeometry>
        </mxCell>
        <mxCell id="M6ePK1owIh-glwZV6Rkh-11" value="password varchar(255) NOT NULL" style="shape=partialRectangle;overflow=hidden;connectable=0;fillColor=none;top=0;left=0;bottom=0;right=0;align=left;spacingLeft=6;rounded=1;sketch=1;curveFitting=1;jiggle=2;labelBackgroundColor=none;" parent="M6ePK1owIh-glwZV6Rkh-9" vertex="1">
          <mxGeometry x="30" width="409" height="30" as="geometry">
            <mxRectangle width="409" height="30" as="alternateBounds" />
          </mxGeometry>
        </mxCell>
        <mxCell id="M6ePK1owIh-glwZV6Rkh-12" value="" style="shape=partialRectangle;collapsible=0;dropTarget=0;pointerEvents=0;fillColor=none;points=[[0,0.5],[1,0.5]];portConstraint=eastwest;top=0;left=0;right=0;bottom=0;rounded=1;sketch=1;curveFitting=1;jiggle=2;labelBackgroundColor=none;" parent="C-vyLk0tnHw3VtMMgP7b-2" vertex="1">
          <mxGeometry y="234" width="439" height="30" as="geometry" />
        </mxCell>
        <mxCell id="M6ePK1owIh-glwZV6Rkh-13" value="" style="shape=partialRectangle;overflow=hidden;connectable=0;fillColor=none;top=0;left=0;bottom=0;right=0;rounded=1;sketch=1;curveFitting=1;jiggle=2;labelBackgroundColor=none;" parent="M6ePK1owIh-glwZV6Rkh-12" vertex="1">
          <mxGeometry width="30" height="30" as="geometry">
            <mxRectangle width="30" height="30" as="alternateBounds" />
          </mxGeometry>
        </mxCell>
        <mxCell id="M6ePK1owIh-glwZV6Rkh-14" value="emailConfirmed boolean NOT NULL DEFAULT FALSE" style="shape=partialRectangle;overflow=hidden;connectable=0;fillColor=none;top=0;left=0;bottom=0;right=0;align=left;spacingLeft=6;rounded=1;sketch=1;curveFitting=1;jiggle=2;labelBackgroundColor=none;" parent="M6ePK1owIh-glwZV6Rkh-12" vertex="1">
          <mxGeometry x="30" width="409" height="30" as="geometry">
            <mxRectangle width="409" height="30" as="alternateBounds" />
          </mxGeometry>
        </mxCell>
        <mxCell id="Y5-YCKUnOirxAr9GmxIG-1" value="" style="shape=partialRectangle;collapsible=0;dropTarget=0;pointerEvents=0;fillColor=none;points=[[0,0.5],[1,0.5]];portConstraint=eastwest;top=0;left=0;right=0;bottom=0;rounded=1;sketch=1;curveFitting=1;jiggle=2;labelBackgroundColor=none;" parent="C-vyLk0tnHw3VtMMgP7b-2" vertex="1">
          <mxGeometry y="264" width="439" height="30" as="geometry" />
        </mxCell>
        <mxCell id="Y5-YCKUnOirxAr9GmxIG-2" value="" style="shape=partialRectangle;overflow=hidden;connectable=0;fillColor=none;top=0;left=0;bottom=0;right=0;rounded=1;sketch=1;curveFitting=1;jiggle=2;labelBackgroundColor=none;" parent="Y5-YCKUnOirxAr9GmxIG-1" vertex="1">
          <mxGeometry width="30" height="30" as="geometry">
            <mxRectangle width="30" height="30" as="alternateBounds" />
          </mxGeometry>
        </mxCell>
        <mxCell id="Y5-YCKUnOirxAr9GmxIG-3" value="isActive boolean NOT NULL DEFAULT TRUE" style="shape=partialRectangle;overflow=hidden;connectable=0;fillColor=none;top=0;left=0;bottom=0;right=0;align=left;spacingLeft=6;rounded=1;sketch=1;curveFitting=1;jiggle=2;labelBackgroundColor=none;" parent="Y5-YCKUnOirxAr9GmxIG-1" vertex="1">
          <mxGeometry x="30" width="409" height="30" as="geometry">
            <mxRectangle width="409" height="30" as="alternateBounds" />
          </mxGeometry>
        </mxCell>
        <mxCell id="Y5-YCKUnOirxAr9GmxIG-4" value="" style="shape=partialRectangle;collapsible=0;dropTarget=0;pointerEvents=0;fillColor=none;points=[[0,0.5],[1,0.5]];portConstraint=eastwest;top=0;left=0;right=0;bottom=0;rounded=1;sketch=1;curveFitting=1;jiggle=2;labelBackgroundColor=none;" parent="C-vyLk0tnHw3VtMMgP7b-2" vertex="1">
          <mxGeometry y="294" width="439" height="30" as="geometry" />
        </mxCell>
        <mxCell id="Y5-YCKUnOirxAr9GmxIG-5" value="" style="shape=partialRectangle;overflow=hidden;connectable=0;fillColor=none;top=0;left=0;bottom=0;right=0;rounded=1;sketch=1;curveFitting=1;jiggle=2;labelBackgroundColor=none;" parent="Y5-YCKUnOirxAr9GmxIG-4" vertex="1">
          <mxGeometry width="30" height="30" as="geometry">
            <mxRectangle width="30" height="30" as="alternateBounds" />
          </mxGeometry>
        </mxCell>
        <mxCell id="Y5-YCKUnOirxAr9GmxIG-6" value="lastLoginDate datetime NULL" style="shape=partialRectangle;overflow=hidden;connectable=0;fillColor=none;top=0;left=0;bottom=0;right=0;align=left;spacingLeft=6;rounded=1;sketch=1;curveFitting=1;jiggle=2;labelBackgroundColor=none;" parent="Y5-YCKUnOirxAr9GmxIG-4" vertex="1">
          <mxGeometry x="30" width="409" height="30" as="geometry">
            <mxRectangle width="409" height="30" as="alternateBounds" />
          </mxGeometry>
        </mxCell>
        <mxCell id="M6ePK1owIh-glwZV6Rkh-71" value="" style="shape=partialRectangle;collapsible=0;dropTarget=0;pointerEvents=0;fillColor=none;points=[[0,0.5],[1,0.5]];portConstraint=eastwest;top=0;left=0;right=0;bottom=0;rounded=1;sketch=1;curveFitting=1;jiggle=2;labelBackgroundColor=none;" parent="C-vyLk0tnHw3VtMMgP7b-2" vertex="1">
          <mxGeometry y="324" width="439" height="30" as="geometry" />
        </mxCell>
        <mxCell id="M6ePK1owIh-glwZV6Rkh-72" value="FK1" style="shape=partialRectangle;overflow=hidden;connectable=0;fillColor=none;top=0;left=0;bottom=0;right=0;rounded=1;sketch=1;curveFitting=1;jiggle=2;labelBackgroundColor=none;" parent="M6ePK1owIh-glwZV6Rkh-71" vertex="1">
          <mxGeometry width="30" height="30" as="geometry">
            <mxRectangle width="30" height="30" as="alternateBounds" />
          </mxGeometry>
        </mxCell>
        <mxCell id="M6ePK1owIh-glwZV6Rkh-73" value="roleId int NOT NULL" style="shape=partialRectangle;overflow=hidden;connectable=0;fillColor=none;top=0;left=0;bottom=0;right=0;align=left;spacingLeft=6;rounded=1;sketch=1;curveFitting=1;jiggle=2;labelBackgroundColor=none;" parent="M6ePK1owIh-glwZV6Rkh-71" vertex="1">
          <mxGeometry x="30" width="409" height="30" as="geometry">
            <mxRectangle width="409" height="30" as="alternateBounds" />
          </mxGeometry>
        </mxCell>
        <mxCell id="M6ePK1owIh-glwZV6Rkh-15" value="" style="edgeStyle=entityRelationEdgeStyle;fontSize=12;html=1;endArrow=ERmandOne;startArrow=ERmandOne;rounded=1;exitX=1;exitY=0.5;exitDx=0;exitDy=0;sketch=1;curveFitting=1;jiggle=2;labelBackgroundColor=none;fontColor=default;entryX=0.006;entryY=-0.102;entryDx=0;entryDy=0;entryPerimeter=0;" parent="1" source="ExKup5xLBlTpcws5XFxN-41" target="ExKup5xLBlTpcws5XFxN-61" edge="1">
          <mxGeometry width="100" height="100" relative="1" as="geometry">
            <mxPoint x="375" y="266" as="sourcePoint" />
            <mxPoint x="475" y="166" as="targetPoint" />
          </mxGeometry>
        </mxCell>
        <mxCell id="M6ePK1owIh-glwZV6Rkh-36" value="Roles" style="shape=table;startSize=24;container=1;collapsible=1;childLayout=tableLayout;fixedRows=1;rowLines=0;fontStyle=1;align=center;resizeLast=1;rounded=1;shadow=0;sketch=1;curveFitting=1;jiggle=2;labelBackgroundColor=none;" parent="1" vertex="1">
          <mxGeometry x="1110" y="433" width="439" height="170" as="geometry">
            <mxRectangle x="471" y="106" width="70" height="30" as="alternateBounds" />
          </mxGeometry>
        </mxCell>
        <mxCell id="M6ePK1owIh-glwZV6Rkh-37" value="" style="shape=partialRectangle;collapsible=0;dropTarget=0;pointerEvents=0;fillColor=none;points=[[0,0.5],[1,0.5]];portConstraint=eastwest;top=0;left=0;right=0;bottom=1;rounded=1;sketch=1;curveFitting=1;jiggle=2;labelBackgroundColor=none;" parent="M6ePK1owIh-glwZV6Rkh-36" vertex="1">
          <mxGeometry y="24" width="439" height="30" as="geometry" />
        </mxCell>
        <mxCell id="M6ePK1owIh-glwZV6Rkh-38" value="PK" style="shape=partialRectangle;overflow=hidden;connectable=0;fillColor=none;top=0;left=0;bottom=0;right=0;fontStyle=1;rounded=1;sketch=1;curveFitting=1;jiggle=2;labelBackgroundColor=none;" parent="M6ePK1owIh-glwZV6Rkh-37" vertex="1">
          <mxGeometry width="30" height="30" as="geometry">
            <mxRectangle width="30" height="30" as="alternateBounds" />
          </mxGeometry>
        </mxCell>
        <mxCell id="M6ePK1owIh-glwZV6Rkh-39" value="id int NOT NULL AUTO_INCREMENT" style="shape=partialRectangle;overflow=hidden;connectable=0;fillColor=none;top=0;left=0;bottom=0;right=0;align=left;spacingLeft=6;fontStyle=5;rounded=1;sketch=1;curveFitting=1;jiggle=2;labelBackgroundColor=none;" parent="M6ePK1owIh-glwZV6Rkh-37" vertex="1">
          <mxGeometry x="30" width="409" height="30" as="geometry">
            <mxRectangle width="409" height="30" as="alternateBounds" />
          </mxGeometry>
        </mxCell>
        <mxCell id="M6ePK1owIh-glwZV6Rkh-40" value="" style="shape=partialRectangle;collapsible=0;dropTarget=0;pointerEvents=0;fillColor=none;points=[[0,0.5],[1,0.5]];portConstraint=eastwest;top=0;left=0;right=0;bottom=0;rounded=1;sketch=1;curveFitting=1;jiggle=2;labelBackgroundColor=none;" parent="M6ePK1owIh-glwZV6Rkh-36" vertex="1">
          <mxGeometry y="54" width="439" height="30" as="geometry" />
        </mxCell>
        <mxCell id="M6ePK1owIh-glwZV6Rkh-41" value="" style="shape=partialRectangle;overflow=hidden;connectable=0;fillColor=none;top=0;left=0;bottom=0;right=0;rounded=1;sketch=1;curveFitting=1;jiggle=2;labelBackgroundColor=none;" parent="M6ePK1owIh-glwZV6Rkh-40" vertex="1">
          <mxGeometry width="30" height="30" as="geometry">
            <mxRectangle width="30" height="30" as="alternateBounds" />
          </mxGeometry>
        </mxCell>
        <mxCell id="M6ePK1owIh-glwZV6Rkh-42" value="insertDate timestamp Current_timestamp NOT NULL" style="shape=partialRectangle;overflow=hidden;connectable=0;fillColor=none;top=0;left=0;bottom=0;right=0;align=left;spacingLeft=6;rounded=1;sketch=1;curveFitting=1;jiggle=2;labelBackgroundColor=none;" parent="M6ePK1owIh-glwZV6Rkh-40" vertex="1">
          <mxGeometry x="30" width="409" height="30" as="geometry">
            <mxRectangle width="409" height="30" as="alternateBounds" />
          </mxGeometry>
        </mxCell>
        <mxCell id="M6ePK1owIh-glwZV6Rkh-43" value="" style="shape=partialRectangle;collapsible=0;dropTarget=0;pointerEvents=0;fillColor=none;points=[[0,0.5],[1,0.5]];portConstraint=eastwest;top=0;left=0;right=0;bottom=0;rounded=1;sketch=1;curveFitting=1;jiggle=2;labelBackgroundColor=none;" parent="M6ePK1owIh-glwZV6Rkh-36" vertex="1">
          <mxGeometry y="84" width="439" height="30" as="geometry" />
        </mxCell>
        <mxCell id="M6ePK1owIh-glwZV6Rkh-44" value="" style="shape=partialRectangle;overflow=hidden;connectable=0;fillColor=none;top=0;left=0;bottom=0;right=0;rounded=1;sketch=1;curveFitting=1;jiggle=2;labelBackgroundColor=none;" parent="M6ePK1owIh-glwZV6Rkh-43" vertex="1">
          <mxGeometry width="30" height="30" as="geometry">
            <mxRectangle width="30" height="30" as="alternateBounds" />
          </mxGeometry>
        </mxCell>
        <mxCell id="M6ePK1owIh-glwZV6Rkh-45" value="updateDate timestamp OnUpdate Current_timestamp NOT NULL" style="shape=partialRectangle;overflow=hidden;connectable=0;fillColor=none;top=0;left=0;bottom=0;right=0;align=left;spacingLeft=6;rounded=1;sketch=1;curveFitting=1;jiggle=2;labelBackgroundColor=none;" parent="M6ePK1owIh-glwZV6Rkh-43" vertex="1">
          <mxGeometry x="30" width="409" height="30" as="geometry">
            <mxRectangle width="409" height="30" as="alternateBounds" />
          </mxGeometry>
        </mxCell>
        <mxCell id="M6ePK1owIh-glwZV6Rkh-46" value="" style="shape=partialRectangle;collapsible=0;dropTarget=0;pointerEvents=0;fillColor=none;points=[[0,0.5],[1,0.5]];portConstraint=eastwest;top=0;left=0;right=0;bottom=0;rounded=1;sketch=1;curveFitting=1;jiggle=2;labelBackgroundColor=none;" parent="M6ePK1owIh-glwZV6Rkh-36" vertex="1">
          <mxGeometry y="114" width="439" height="30" as="geometry" />
        </mxCell>
        <mxCell id="M6ePK1owIh-glwZV6Rkh-47" value="" style="shape=partialRectangle;overflow=hidden;connectable=0;fillColor=none;top=0;left=0;bottom=0;right=0;rounded=1;sketch=1;curveFitting=1;jiggle=2;labelBackgroundColor=none;" parent="M6ePK1owIh-glwZV6Rkh-46" vertex="1">
          <mxGeometry width="30" height="30" as="geometry">
            <mxRectangle width="30" height="30" as="alternateBounds" />
          </mxGeometry>
        </mxCell>
        <mxCell id="M6ePK1owIh-glwZV6Rkh-48" value="name varchar(255) NOT NULL" style="shape=partialRectangle;overflow=hidden;connectable=0;fillColor=none;top=0;left=0;bottom=0;right=0;align=left;spacingLeft=6;rounded=1;sketch=1;curveFitting=1;jiggle=2;labelBackgroundColor=none;" parent="M6ePK1owIh-glwZV6Rkh-46" vertex="1">
          <mxGeometry x="30" width="409" height="30" as="geometry">
            <mxRectangle width="409" height="30" as="alternateBounds" />
          </mxGeometry>
        </mxCell>
        <mxCell id="M6ePK1owIh-glwZV6Rkh-49" value="" style="shape=partialRectangle;collapsible=0;dropTarget=0;pointerEvents=0;fillColor=none;points=[[0,0.5],[1,0.5]];portConstraint=eastwest;top=0;left=0;right=0;bottom=0;rounded=1;sketch=1;curveFitting=1;jiggle=2;labelBackgroundColor=none;" parent="M6ePK1owIh-glwZV6Rkh-36" vertex="1">
          <mxGeometry y="144" width="439" height="26" as="geometry" />
        </mxCell>
        <mxCell id="M6ePK1owIh-glwZV6Rkh-50" value="" style="shape=partialRectangle;overflow=hidden;connectable=0;fillColor=none;top=0;left=0;bottom=0;right=0;rounded=1;sketch=1;curveFitting=1;jiggle=2;labelBackgroundColor=none;" parent="M6ePK1owIh-glwZV6Rkh-49" vertex="1">
          <mxGeometry width="30" height="26" as="geometry">
            <mxRectangle width="30" height="26" as="alternateBounds" />
          </mxGeometry>
        </mxCell>
        <mxCell id="M6ePK1owIh-glwZV6Rkh-51" value="description text NULL" style="shape=partialRectangle;overflow=hidden;connectable=0;fillColor=none;top=0;left=0;bottom=0;right=0;align=left;spacingLeft=6;rounded=1;sketch=1;curveFitting=1;jiggle=2;labelBackgroundColor=none;" parent="M6ePK1owIh-glwZV6Rkh-49" vertex="1">
          <mxGeometry x="30" width="409" height="26" as="geometry">
            <mxRectangle width="409" height="26" as="alternateBounds" />
          </mxGeometry>
        </mxCell>
        <mxCell id="ExKup5xLBlTpcws5XFxN-16" value="Farmer" style="shape=table;startSize=24;container=1;collapsible=1;childLayout=tableLayout;fixedRows=1;rowLines=0;fontStyle=1;align=center;resizeLast=1;rounded=1;shadow=0;sketch=1;curveFitting=1;jiggle=2;labelBackgroundColor=none;" parent="1" vertex="1">
          <mxGeometry x="-70" y="50" width="450" height="354" as="geometry">
            <mxRectangle x="471" y="106" width="70" height="30" as="alternateBounds" />
          </mxGeometry>
        </mxCell>
        <mxCell id="ExKup5xLBlTpcws5XFxN-17" value="" style="shape=partialRectangle;collapsible=0;dropTarget=0;pointerEvents=0;fillColor=none;points=[[0,0.5],[1,0.5]];portConstraint=eastwest;top=0;left=0;right=0;bottom=1;rounded=1;sketch=1;curveFitting=1;jiggle=2;labelBackgroundColor=none;" parent="ExKup5xLBlTpcws5XFxN-16" vertex="1">
          <mxGeometry y="24" width="450" height="30" as="geometry" />
        </mxCell>
        <mxCell id="ExKup5xLBlTpcws5XFxN-18" value="PK" style="shape=partialRectangle;overflow=hidden;connectable=0;fillColor=none;top=0;left=0;bottom=0;right=0;fontStyle=1;rounded=1;sketch=1;curveFitting=1;jiggle=2;labelBackgroundColor=none;" parent="ExKup5xLBlTpcws5XFxN-17" vertex="1">
          <mxGeometry width="30" height="30" as="geometry">
            <mxRectangle width="30" height="30" as="alternateBounds" />
          </mxGeometry>
        </mxCell>
        <mxCell id="ExKup5xLBlTpcws5XFxN-19" value="id int NOT NULL AUTO_INCREMENT" style="shape=partialRectangle;overflow=hidden;connectable=0;fillColor=none;top=0;left=0;bottom=0;right=0;align=left;spacingLeft=6;fontStyle=5;rounded=1;sketch=1;curveFitting=1;jiggle=2;labelBackgroundColor=none;" parent="ExKup5xLBlTpcws5XFxN-17" vertex="1">
          <mxGeometry x="30" width="420" height="30" as="geometry">
            <mxRectangle width="420" height="30" as="alternateBounds" />
          </mxGeometry>
        </mxCell>
        <mxCell id="ExKup5xLBlTpcws5XFxN-20" value="" style="shape=partialRectangle;collapsible=0;dropTarget=0;pointerEvents=0;fillColor=none;points=[[0,0.5],[1,0.5]];portConstraint=eastwest;top=0;left=0;right=0;bottom=0;rounded=1;sketch=1;curveFitting=1;jiggle=2;labelBackgroundColor=none;" parent="ExKup5xLBlTpcws5XFxN-16" vertex="1">
          <mxGeometry y="54" width="450" height="30" as="geometry" />
        </mxCell>
        <mxCell id="ExKup5xLBlTpcws5XFxN-21" value="" style="shape=partialRectangle;overflow=hidden;connectable=0;fillColor=none;top=0;left=0;bottom=0;right=0;rounded=1;sketch=1;curveFitting=1;jiggle=2;labelBackgroundColor=none;" parent="ExKup5xLBlTpcws5XFxN-20" vertex="1">
          <mxGeometry width="30" height="30" as="geometry">
            <mxRectangle width="30" height="30" as="alternateBounds" />
          </mxGeometry>
        </mxCell>
        <mxCell id="ExKup5xLBlTpcws5XFxN-22" value="insertDate timestamp Current_timestamp NOT NULL" style="shape=partialRectangle;overflow=hidden;connectable=0;fillColor=none;top=0;left=0;bottom=0;right=0;align=left;spacingLeft=6;rounded=1;sketch=1;curveFitting=1;jiggle=2;labelBackgroundColor=none;" parent="ExKup5xLBlTpcws5XFxN-20" vertex="1">
          <mxGeometry x="30" width="420" height="30" as="geometry">
            <mxRectangle width="420" height="30" as="alternateBounds" />
          </mxGeometry>
        </mxCell>
        <mxCell id="ExKup5xLBlTpcws5XFxN-23" value="" style="shape=partialRectangle;collapsible=0;dropTarget=0;pointerEvents=0;fillColor=none;points=[[0,0.5],[1,0.5]];portConstraint=eastwest;top=0;left=0;right=0;bottom=0;rounded=1;sketch=1;curveFitting=1;jiggle=2;labelBackgroundColor=none;" parent="ExKup5xLBlTpcws5XFxN-16" vertex="1">
          <mxGeometry y="84" width="450" height="30" as="geometry" />
        </mxCell>
        <mxCell id="ExKup5xLBlTpcws5XFxN-24" value="" style="shape=partialRectangle;overflow=hidden;connectable=0;fillColor=none;top=0;left=0;bottom=0;right=0;rounded=1;sketch=1;curveFitting=1;jiggle=2;labelBackgroundColor=none;" parent="ExKup5xLBlTpcws5XFxN-23" vertex="1">
          <mxGeometry width="30" height="30" as="geometry">
            <mxRectangle width="30" height="30" as="alternateBounds" />
          </mxGeometry>
        </mxCell>
        <mxCell id="ExKup5xLBlTpcws5XFxN-25" value="updateDate timestamp OnUpdate Current_timestamp NOT NULL" style="shape=partialRectangle;overflow=hidden;connectable=0;fillColor=none;top=0;left=0;bottom=0;right=0;align=left;spacingLeft=6;rounded=1;sketch=1;curveFitting=1;jiggle=2;labelBackgroundColor=none;" parent="ExKup5xLBlTpcws5XFxN-23" vertex="1">
          <mxGeometry x="30" width="420" height="30" as="geometry">
            <mxRectangle width="420" height="30" as="alternateBounds" />
          </mxGeometry>
        </mxCell>
        <mxCell id="ExKup5xLBlTpcws5XFxN-26" value="" style="shape=partialRectangle;collapsible=0;dropTarget=0;pointerEvents=0;fillColor=none;points=[[0,0.5],[1,0.5]];portConstraint=eastwest;top=0;left=0;right=0;bottom=0;rounded=1;sketch=1;curveFitting=1;jiggle=2;labelBackgroundColor=none;" parent="ExKup5xLBlTpcws5XFxN-16" vertex="1">
          <mxGeometry y="114" width="450" height="30" as="geometry" />
        </mxCell>
        <mxCell id="ExKup5xLBlTpcws5XFxN-27" value="" style="shape=partialRectangle;overflow=hidden;connectable=0;fillColor=none;top=0;left=0;bottom=0;right=0;rounded=1;sketch=1;curveFitting=1;jiggle=2;labelBackgroundColor=none;" parent="ExKup5xLBlTpcws5XFxN-26" vertex="1">
          <mxGeometry width="30" height="30" as="geometry">
            <mxRectangle width="30" height="30" as="alternateBounds" />
          </mxGeometry>
        </mxCell>
        <mxCell id="ExKup5xLBlTpcws5XFxN-28" value="description text  NULL" style="shape=partialRectangle;overflow=hidden;connectable=0;fillColor=none;top=0;left=0;bottom=0;right=0;align=left;spacingLeft=6;rounded=1;sketch=1;curveFitting=1;jiggle=2;labelBackgroundColor=none;" parent="ExKup5xLBlTpcws5XFxN-26" vertex="1">
          <mxGeometry x="30" width="420" height="30" as="geometry">
            <mxRectangle width="420" height="30" as="alternateBounds" />
          </mxGeometry>
        </mxCell>
        <mxCell id="ExKup5xLBlTpcws5XFxN-45" value="" style="shape=partialRectangle;collapsible=0;dropTarget=0;pointerEvents=0;fillColor=none;points=[[0,0.5],[1,0.5]];portConstraint=eastwest;top=0;left=0;right=0;bottom=0;rounded=1;sketch=1;curveFitting=1;jiggle=2;labelBackgroundColor=none;" parent="ExKup5xLBlTpcws5XFxN-16" vertex="1">
          <mxGeometry y="144" width="450" height="30" as="geometry" />
        </mxCell>
        <mxCell id="ExKup5xLBlTpcws5XFxN-46" value="" style="shape=partialRectangle;overflow=hidden;connectable=0;fillColor=none;top=0;left=0;bottom=0;right=0;rounded=1;sketch=1;curveFitting=1;jiggle=2;labelBackgroundColor=none;" parent="ExKup5xLBlTpcws5XFxN-45" vertex="1">
          <mxGeometry width="30" height="30" as="geometry">
            <mxRectangle width="30" height="30" as="alternateBounds" />
          </mxGeometry>
        </mxCell>
        <mxCell id="ExKup5xLBlTpcws5XFxN-47" value="avgRate decimal  NOT NULL DEFAULT 0" style="shape=partialRectangle;overflow=hidden;connectable=0;fillColor=none;top=0;left=0;bottom=0;right=0;align=left;spacingLeft=6;rounded=1;sketch=1;curveFitting=1;jiggle=2;labelBackgroundColor=none;" parent="ExKup5xLBlTpcws5XFxN-45" vertex="1">
          <mxGeometry x="30" width="420" height="30" as="geometry">
            <mxRectangle width="420" height="30" as="alternateBounds" />
          </mxGeometry>
        </mxCell>
        <mxCell id="ExKup5xLBlTpcws5XFxN-48" value="" style="shape=partialRectangle;collapsible=0;dropTarget=0;pointerEvents=0;fillColor=none;points=[[0,0.5],[1,0.5]];portConstraint=eastwest;top=0;left=0;right=0;bottom=0;rounded=1;sketch=1;curveFitting=1;jiggle=2;labelBackgroundColor=none;" parent="ExKup5xLBlTpcws5XFxN-16" vertex="1">
          <mxGeometry y="174" width="450" height="30" as="geometry" />
        </mxCell>
        <mxCell id="ExKup5xLBlTpcws5XFxN-49" value="" style="shape=partialRectangle;overflow=hidden;connectable=0;fillColor=none;top=0;left=0;bottom=0;right=0;rounded=1;sketch=1;curveFitting=1;jiggle=2;labelBackgroundColor=none;" parent="ExKup5xLBlTpcws5XFxN-48" vertex="1">
          <mxGeometry width="30" height="30" as="geometry">
            <mxRectangle width="30" height="30" as="alternateBounds" />
          </mxGeometry>
        </mxCell>
        <mxCell id="ExKup5xLBlTpcws5XFxN-50" value="avgWorkPlaceRate decimal  NOT NULL DEFAULT 0" style="shape=partialRectangle;overflow=hidden;connectable=0;fillColor=none;top=0;left=0;bottom=0;right=0;align=left;spacingLeft=6;rounded=1;sketch=1;curveFitting=1;jiggle=2;labelBackgroundColor=none;" parent="ExKup5xLBlTpcws5XFxN-48" vertex="1">
          <mxGeometry x="30" width="420" height="30" as="geometry">
            <mxRectangle width="420" height="30" as="alternateBounds" />
          </mxGeometry>
        </mxCell>
        <mxCell id="ExKup5xLBlTpcws5XFxN-51" value="" style="shape=partialRectangle;collapsible=0;dropTarget=0;pointerEvents=0;fillColor=none;points=[[0,0.5],[1,0.5]];portConstraint=eastwest;top=0;left=0;right=0;bottom=0;rounded=1;sketch=1;curveFitting=1;jiggle=2;labelBackgroundColor=none;" parent="ExKup5xLBlTpcws5XFxN-16" vertex="1">
          <mxGeometry y="204" width="450" height="30" as="geometry" />
        </mxCell>
        <mxCell id="ExKup5xLBlTpcws5XFxN-52" value="" style="shape=partialRectangle;overflow=hidden;connectable=0;fillColor=none;top=0;left=0;bottom=0;right=0;rounded=1;sketch=1;curveFitting=1;jiggle=2;labelBackgroundColor=none;" parent="ExKup5xLBlTpcws5XFxN-51" vertex="1">
          <mxGeometry width="30" height="30" as="geometry">
            <mxRectangle width="30" height="30" as="alternateBounds" />
          </mxGeometry>
        </mxCell>
        <mxCell id="ExKup5xLBlTpcws5XFxN-53" value="avgPaymentConsequenceRate decimal  NOT NULL DEFAULT 0" style="shape=partialRectangle;overflow=hidden;connectable=0;fillColor=none;top=0;left=0;bottom=0;right=0;align=left;spacingLeft=6;rounded=1;sketch=1;curveFitting=1;jiggle=2;labelBackgroundColor=none;" parent="ExKup5xLBlTpcws5XFxN-51" vertex="1">
          <mxGeometry x="30" width="420" height="30" as="geometry">
            <mxRectangle width="420" height="30" as="alternateBounds" />
          </mxGeometry>
        </mxCell>
        <mxCell id="-vXe2rStmvxL6NYYiN9Q-1" value="" style="shape=partialRectangle;collapsible=0;dropTarget=0;pointerEvents=0;fillColor=none;points=[[0,0.5],[1,0.5]];portConstraint=eastwest;top=0;left=0;right=0;bottom=0;rounded=1;sketch=1;curveFitting=1;jiggle=2;labelBackgroundColor=none;" parent="ExKup5xLBlTpcws5XFxN-16" vertex="1">
          <mxGeometry y="234" width="450" height="30" as="geometry" />
        </mxCell>
        <mxCell id="-vXe2rStmvxL6NYYiN9Q-2" value="" style="shape=partialRectangle;overflow=hidden;connectable=0;fillColor=none;top=0;left=0;bottom=0;right=0;rounded=1;sketch=1;curveFitting=1;jiggle=2;labelBackgroundColor=none;" parent="-vXe2rStmvxL6NYYiN9Q-1" vertex="1">
          <mxGeometry width="30" height="30" as="geometry">
            <mxRectangle width="30" height="30" as="alternateBounds" />
          </mxGeometry>
        </mxCell>
        <mxCell id="-vXe2rStmvxL6NYYiN9Q-3" value="paymentStatus ENUM NOT NULL&#xa;(pendingPayment, processing, onHold, completed, canceled, refunded,failed)" style="shape=partialRectangle;overflow=hidden;connectable=0;fillColor=none;top=0;left=0;bottom=0;right=0;align=left;spacingLeft=6;rounded=1;sketch=1;curveFitting=1;jiggle=2;labelBackgroundColor=none;" parent="-vXe2rStmvxL6NYYiN9Q-1" vertex="1">
          <mxGeometry x="30" width="420" height="30" as="geometry">
            <mxRectangle width="420" height="30" as="alternateBounds" />
          </mxGeometry>
        </mxCell>
        <mxCell id="-vXe2rStmvxL6NYYiN9Q-4" value="" style="shape=partialRectangle;collapsible=0;dropTarget=0;pointerEvents=0;fillColor=none;points=[[0,0.5],[1,0.5]];portConstraint=eastwest;top=0;left=0;right=0;bottom=0;rounded=1;sketch=1;curveFitting=1;jiggle=2;labelBackgroundColor=none;" parent="ExKup5xLBlTpcws5XFxN-16" vertex="1">
          <mxGeometry y="264" width="450" height="30" as="geometry" />
        </mxCell>
        <mxCell id="-vXe2rStmvxL6NYYiN9Q-5" value="" style="shape=partialRectangle;overflow=hidden;connectable=0;fillColor=none;top=0;left=0;bottom=0;right=0;rounded=1;sketch=1;curveFitting=1;jiggle=2;labelBackgroundColor=none;" parent="-vXe2rStmvxL6NYYiN9Q-4" vertex="1">
          <mxGeometry width="30" height="30" as="geometry">
            <mxRectangle width="30" height="30" as="alternateBounds" />
          </mxGeometry>
        </mxCell>
        <mxCell id="-vXe2rStmvxL6NYYiN9Q-6" value="paymentMethod ENUM NOT NULL&#xa;(bankTransfer, paypal, ebanking)" style="shape=partialRectangle;overflow=hidden;connectable=0;fillColor=none;top=0;left=0;bottom=0;right=0;align=left;spacingLeft=6;rounded=1;sketch=1;curveFitting=1;jiggle=2;labelBackgroundColor=none;" parent="-vXe2rStmvxL6NYYiN9Q-4" vertex="1">
          <mxGeometry x="30" width="420" height="30" as="geometry">
            <mxRectangle width="420" height="30" as="alternateBounds" />
          </mxGeometry>
        </mxCell>
        <mxCell id="ExKup5xLBlTpcws5XFxN-41" value="" style="shape=partialRectangle;collapsible=0;dropTarget=0;pointerEvents=0;fillColor=none;points=[[0,0.5],[1,0.5]];portConstraint=eastwest;top=0;left=0;right=0;bottom=0;rounded=1;sketch=1;curveFitting=1;jiggle=2;labelBackgroundColor=none;" parent="ExKup5xLBlTpcws5XFxN-16" vertex="1">
          <mxGeometry y="294" width="450" height="30" as="geometry" />
        </mxCell>
        <mxCell id="ExKup5xLBlTpcws5XFxN-42" value="FK1" style="shape=partialRectangle;overflow=hidden;connectable=0;fillColor=none;top=0;left=0;bottom=0;right=0;rounded=1;sketch=1;curveFitting=1;jiggle=2;labelBackgroundColor=none;" parent="ExKup5xLBlTpcws5XFxN-41" vertex="1">
          <mxGeometry width="30" height="30" as="geometry">
            <mxRectangle width="30" height="30" as="alternateBounds" />
          </mxGeometry>
        </mxCell>
        <mxCell id="ExKup5xLBlTpcws5XFxN-43" value="userId int NOT NULL" style="shape=partialRectangle;overflow=hidden;connectable=0;fillColor=none;top=0;left=0;bottom=0;right=0;align=left;spacingLeft=6;rounded=1;sketch=1;curveFitting=1;jiggle=2;labelBackgroundColor=none;" parent="ExKup5xLBlTpcws5XFxN-41" vertex="1">
          <mxGeometry x="30" width="420" height="30" as="geometry">
            <mxRectangle width="420" height="30" as="alternateBounds" />
          </mxGeometry>
        </mxCell>
        <mxCell id="ExKup5xLBlTpcws5XFxN-57" value="" style="shape=partialRectangle;collapsible=0;dropTarget=0;pointerEvents=0;fillColor=none;points=[[0,0.5],[1,0.5]];portConstraint=eastwest;top=0;left=0;right=0;bottom=0;rounded=1;sketch=1;curveFitting=1;jiggle=2;labelBackgroundColor=none;" parent="ExKup5xLBlTpcws5XFxN-16" vertex="1">
          <mxGeometry y="324" width="450" height="30" as="geometry" />
        </mxCell>
        <mxCell id="ExKup5xLBlTpcws5XFxN-58" value="FK2" style="shape=partialRectangle;overflow=hidden;connectable=0;fillColor=none;top=0;left=0;bottom=0;right=0;rounded=1;sketch=1;curveFitting=1;jiggle=2;labelBackgroundColor=none;" parent="ExKup5xLBlTpcws5XFxN-57" vertex="1">
          <mxGeometry width="30" height="30" as="geometry">
            <mxRectangle width="30" height="30" as="alternateBounds" />
          </mxGeometry>
        </mxCell>
        <mxCell id="ExKup5xLBlTpcws5XFxN-59" value="contactInfo int NOT NULL" style="shape=partialRectangle;overflow=hidden;connectable=0;fillColor=none;top=0;left=0;bottom=0;right=0;align=left;spacingLeft=6;rounded=1;sketch=1;curveFitting=1;jiggle=2;labelBackgroundColor=none;" parent="ExKup5xLBlTpcws5XFxN-57" vertex="1">
          <mxGeometry x="30" width="420" height="30" as="geometry">
            <mxRectangle width="420" height="30" as="alternateBounds" />
          </mxGeometry>
        </mxCell>
        <mxCell id="ExKup5xLBlTpcws5XFxN-60" value="ContactInfo" style="shape=table;startSize=24;container=1;collapsible=1;childLayout=tableLayout;fixedRows=1;rowLines=0;fontStyle=1;align=center;resizeLast=1;rounded=1;shadow=0;sketch=1;curveFitting=1;jiggle=2;labelBackgroundColor=none;" parent="1" vertex="1">
          <mxGeometry x="1010" y="30" width="430" height="260" as="geometry">
            <mxRectangle x="471" y="106" width="70" height="30" as="alternateBounds" />
          </mxGeometry>
        </mxCell>
        <mxCell id="ExKup5xLBlTpcws5XFxN-61" value="" style="shape=partialRectangle;collapsible=0;dropTarget=0;pointerEvents=0;fillColor=none;points=[[0,0.5],[1,0.5]];portConstraint=eastwest;top=0;left=0;right=0;bottom=1;rounded=1;sketch=1;curveFitting=1;jiggle=2;labelBackgroundColor=none;" parent="ExKup5xLBlTpcws5XFxN-60" vertex="1">
          <mxGeometry y="24" width="430" height="30" as="geometry" />
        </mxCell>
        <mxCell id="ExKup5xLBlTpcws5XFxN-62" value="PK" style="shape=partialRectangle;overflow=hidden;connectable=0;fillColor=none;top=0;left=0;bottom=0;right=0;fontStyle=1;rounded=1;sketch=1;curveFitting=1;jiggle=2;labelBackgroundColor=none;" parent="ExKup5xLBlTpcws5XFxN-61" vertex="1">
          <mxGeometry width="30" height="30" as="geometry">
            <mxRectangle width="30" height="30" as="alternateBounds" />
          </mxGeometry>
        </mxCell>
        <mxCell id="ExKup5xLBlTpcws5XFxN-63" value="id int NOT NULL AUTO_INCREMENT" style="shape=partialRectangle;overflow=hidden;connectable=0;fillColor=none;top=0;left=0;bottom=0;right=0;align=left;spacingLeft=6;fontStyle=5;rounded=1;sketch=1;curveFitting=1;jiggle=2;labelBackgroundColor=none;" parent="ExKup5xLBlTpcws5XFxN-61" vertex="1">
          <mxGeometry x="30" width="400" height="30" as="geometry">
            <mxRectangle width="400" height="30" as="alternateBounds" />
          </mxGeometry>
        </mxCell>
        <mxCell id="ExKup5xLBlTpcws5XFxN-64" value="" style="shape=partialRectangle;collapsible=0;dropTarget=0;pointerEvents=0;fillColor=none;points=[[0,0.5],[1,0.5]];portConstraint=eastwest;top=0;left=0;right=0;bottom=0;rounded=1;sketch=1;curveFitting=1;jiggle=2;labelBackgroundColor=none;" parent="ExKup5xLBlTpcws5XFxN-60" vertex="1">
          <mxGeometry y="54" width="430" height="30" as="geometry" />
        </mxCell>
        <mxCell id="ExKup5xLBlTpcws5XFxN-65" value="" style="shape=partialRectangle;overflow=hidden;connectable=0;fillColor=none;top=0;left=0;bottom=0;right=0;rounded=1;sketch=1;curveFitting=1;jiggle=2;labelBackgroundColor=none;" parent="ExKup5xLBlTpcws5XFxN-64" vertex="1">
          <mxGeometry width="30" height="30" as="geometry">
            <mxRectangle width="30" height="30" as="alternateBounds" />
          </mxGeometry>
        </mxCell>
        <mxCell id="ExKup5xLBlTpcws5XFxN-66" value="insertDate timestamp Current_timestamp NOT NULL" style="shape=partialRectangle;overflow=hidden;connectable=0;fillColor=none;top=0;left=0;bottom=0;right=0;align=left;spacingLeft=6;rounded=1;sketch=1;curveFitting=1;jiggle=2;labelBackgroundColor=none;" parent="ExKup5xLBlTpcws5XFxN-64" vertex="1">
          <mxGeometry x="30" width="400" height="30" as="geometry">
            <mxRectangle width="400" height="30" as="alternateBounds" />
          </mxGeometry>
        </mxCell>
        <mxCell id="ExKup5xLBlTpcws5XFxN-67" value="" style="shape=partialRectangle;collapsible=0;dropTarget=0;pointerEvents=0;fillColor=none;points=[[0,0.5],[1,0.5]];portConstraint=eastwest;top=0;left=0;right=0;bottom=0;rounded=1;sketch=1;curveFitting=1;jiggle=2;labelBackgroundColor=none;" parent="ExKup5xLBlTpcws5XFxN-60" vertex="1">
          <mxGeometry y="84" width="430" height="26" as="geometry" />
        </mxCell>
        <mxCell id="ExKup5xLBlTpcws5XFxN-68" value="" style="shape=partialRectangle;overflow=hidden;connectable=0;fillColor=none;top=0;left=0;bottom=0;right=0;rounded=1;sketch=1;curveFitting=1;jiggle=2;labelBackgroundColor=none;" parent="ExKup5xLBlTpcws5XFxN-67" vertex="1">
          <mxGeometry width="30" height="26" as="geometry">
            <mxRectangle width="30" height="26" as="alternateBounds" />
          </mxGeometry>
        </mxCell>
        <mxCell id="ExKup5xLBlTpcws5XFxN-69" value="updateDate timestamp OnUpdate Current_timestamp NOT NULL" style="shape=partialRectangle;overflow=hidden;connectable=0;fillColor=none;top=0;left=0;bottom=0;right=0;align=left;spacingLeft=6;rounded=1;sketch=1;curveFitting=1;jiggle=2;labelBackgroundColor=none;" parent="ExKup5xLBlTpcws5XFxN-67" vertex="1">
          <mxGeometry x="30" width="400" height="26" as="geometry">
            <mxRectangle width="400" height="26" as="alternateBounds" />
          </mxGeometry>
        </mxCell>
        <mxCell id="ExKup5xLBlTpcws5XFxN-70" value="" style="shape=partialRectangle;collapsible=0;dropTarget=0;pointerEvents=0;fillColor=none;points=[[0,0.5],[1,0.5]];portConstraint=eastwest;top=0;left=0;right=0;bottom=0;rounded=1;sketch=1;curveFitting=1;jiggle=2;labelBackgroundColor=none;" parent="ExKup5xLBlTpcws5XFxN-60" vertex="1">
          <mxGeometry y="110" width="430" height="30" as="geometry" />
        </mxCell>
        <mxCell id="ExKup5xLBlTpcws5XFxN-71" value="" style="shape=partialRectangle;overflow=hidden;connectable=0;fillColor=none;top=0;left=0;bottom=0;right=0;rounded=1;sketch=1;curveFitting=1;jiggle=2;labelBackgroundColor=none;" parent="ExKup5xLBlTpcws5XFxN-70" vertex="1">
          <mxGeometry width="30" height="30" as="geometry">
            <mxRectangle width="30" height="30" as="alternateBounds" />
          </mxGeometry>
        </mxCell>
        <mxCell id="ExKup5xLBlTpcws5XFxN-72" value="address varchar(255) NOT NULL" style="shape=partialRectangle;overflow=hidden;connectable=0;fillColor=none;top=0;left=0;bottom=0;right=0;align=left;spacingLeft=6;rounded=1;sketch=1;curveFitting=1;jiggle=2;labelBackgroundColor=none;" parent="ExKup5xLBlTpcws5XFxN-70" vertex="1">
          <mxGeometry x="30" width="400" height="30" as="geometry">
            <mxRectangle width="400" height="30" as="alternateBounds" />
          </mxGeometry>
        </mxCell>
        <mxCell id="ExKup5xLBlTpcws5XFxN-73" value="" style="shape=partialRectangle;collapsible=0;dropTarget=0;pointerEvents=0;fillColor=none;points=[[0,0.5],[1,0.5]];portConstraint=eastwest;top=0;left=0;right=0;bottom=0;rounded=1;sketch=1;curveFitting=1;jiggle=2;labelBackgroundColor=none;" parent="ExKup5xLBlTpcws5XFxN-60" vertex="1">
          <mxGeometry y="140" width="430" height="30" as="geometry" />
        </mxCell>
        <mxCell id="ExKup5xLBlTpcws5XFxN-74" value="" style="shape=partialRectangle;overflow=hidden;connectable=0;fillColor=none;top=0;left=0;bottom=0;right=0;rounded=1;sketch=1;curveFitting=1;jiggle=2;labelBackgroundColor=none;" parent="ExKup5xLBlTpcws5XFxN-73" vertex="1">
          <mxGeometry width="30" height="30" as="geometry">
            <mxRectangle width="30" height="30" as="alternateBounds" />
          </mxGeometry>
        </mxCell>
        <mxCell id="ExKup5xLBlTpcws5XFxN-75" value="city varchar(255) NOT NULL " style="shape=partialRectangle;overflow=hidden;connectable=0;fillColor=none;top=0;left=0;bottom=0;right=0;align=left;spacingLeft=6;rounded=1;sketch=1;curveFitting=1;jiggle=2;labelBackgroundColor=none;" parent="ExKup5xLBlTpcws5XFxN-73" vertex="1">
          <mxGeometry x="30" width="400" height="30" as="geometry">
            <mxRectangle width="400" height="30" as="alternateBounds" />
          </mxGeometry>
        </mxCell>
        <mxCell id="ExKup5xLBlTpcws5XFxN-88" value="" style="shape=partialRectangle;collapsible=0;dropTarget=0;pointerEvents=0;fillColor=none;points=[[0,0.5],[1,0.5]];portConstraint=eastwest;top=0;left=0;right=0;bottom=0;rounded=1;sketch=1;curveFitting=1;jiggle=2;labelBackgroundColor=none;" parent="ExKup5xLBlTpcws5XFxN-60" vertex="1">
          <mxGeometry y="170" width="430" height="30" as="geometry" />
        </mxCell>
        <mxCell id="ExKup5xLBlTpcws5XFxN-89" value="" style="shape=partialRectangle;overflow=hidden;connectable=0;fillColor=none;top=0;left=0;bottom=0;right=0;rounded=1;sketch=1;curveFitting=1;jiggle=2;labelBackgroundColor=none;" parent="ExKup5xLBlTpcws5XFxN-88" vertex="1">
          <mxGeometry width="30" height="30" as="geometry">
            <mxRectangle width="30" height="30" as="alternateBounds" />
          </mxGeometry>
        </mxCell>
        <mxCell id="ExKup5xLBlTpcws5XFxN-90" value="tk varchar(255) NOT NULL " style="shape=partialRectangle;overflow=hidden;connectable=0;fillColor=none;top=0;left=0;bottom=0;right=0;align=left;spacingLeft=6;rounded=1;sketch=1;curveFitting=1;jiggle=2;labelBackgroundColor=none;" parent="ExKup5xLBlTpcws5XFxN-88" vertex="1">
          <mxGeometry x="30" width="400" height="30" as="geometry">
            <mxRectangle width="400" height="30" as="alternateBounds" />
          </mxGeometry>
        </mxCell>
        <mxCell id="ExKup5xLBlTpcws5XFxN-91" value="" style="shape=partialRectangle;collapsible=0;dropTarget=0;pointerEvents=0;fillColor=none;points=[[0,0.5],[1,0.5]];portConstraint=eastwest;top=0;left=0;right=0;bottom=0;rounded=1;sketch=1;curveFitting=1;jiggle=2;labelBackgroundColor=none;" parent="ExKup5xLBlTpcws5XFxN-60" vertex="1">
          <mxGeometry y="200" width="430" height="30" as="geometry" />
        </mxCell>
        <mxCell id="ExKup5xLBlTpcws5XFxN-92" value="" style="shape=partialRectangle;overflow=hidden;connectable=0;fillColor=none;top=0;left=0;bottom=0;right=0;rounded=1;sketch=1;curveFitting=1;jiggle=2;labelBackgroundColor=none;" parent="ExKup5xLBlTpcws5XFxN-91" vertex="1">
          <mxGeometry width="30" height="30" as="geometry">
            <mxRectangle width="30" height="30" as="alternateBounds" />
          </mxGeometry>
        </mxCell>
        <mxCell id="ExKup5xLBlTpcws5XFxN-93" value="phoneNo varchar(255) NULL " style="shape=partialRectangle;overflow=hidden;connectable=0;fillColor=none;top=0;left=0;bottom=0;right=0;align=left;spacingLeft=6;rounded=1;sketch=1;curveFitting=1;jiggle=2;labelBackgroundColor=none;" parent="ExKup5xLBlTpcws5XFxN-91" vertex="1">
          <mxGeometry x="30" width="400" height="30" as="geometry">
            <mxRectangle width="400" height="30" as="alternateBounds" />
          </mxGeometry>
        </mxCell>
        <mxCell id="ExKup5xLBlTpcws5XFxN-94" value="" style="shape=partialRectangle;collapsible=0;dropTarget=0;pointerEvents=0;fillColor=none;points=[[0,0.5],[1,0.5]];portConstraint=eastwest;top=0;left=0;right=0;bottom=0;rounded=1;sketch=1;curveFitting=1;jiggle=2;labelBackgroundColor=none;" parent="ExKup5xLBlTpcws5XFxN-60" vertex="1">
          <mxGeometry y="230" width="430" height="30" as="geometry" />
        </mxCell>
        <mxCell id="ExKup5xLBlTpcws5XFxN-95" value="" style="shape=partialRectangle;overflow=hidden;connectable=0;fillColor=none;top=0;left=0;bottom=0;right=0;rounded=1;sketch=1;curveFitting=1;jiggle=2;labelBackgroundColor=none;" parent="ExKup5xLBlTpcws5XFxN-94" vertex="1">
          <mxGeometry width="30" height="30" as="geometry">
            <mxRectangle width="30" height="30" as="alternateBounds" />
          </mxGeometry>
        </mxCell>
        <mxCell id="ExKup5xLBlTpcws5XFxN-96" value="mobilePhoneNo varchar(255) NOT NULL " style="shape=partialRectangle;overflow=hidden;connectable=0;fillColor=none;top=0;left=0;bottom=0;right=0;align=left;spacingLeft=6;rounded=1;sketch=1;curveFitting=1;jiggle=2;labelBackgroundColor=none;" parent="ExKup5xLBlTpcws5XFxN-94" vertex="1">
          <mxGeometry x="30" width="400" height="30" as="geometry">
            <mxRectangle width="400" height="30" as="alternateBounds" />
          </mxGeometry>
        </mxCell>
        <mxCell id="ExKup5xLBlTpcws5XFxN-99" value="Employee" style="shape=table;startSize=24;container=1;collapsible=1;childLayout=tableLayout;fixedRows=1;rowLines=0;fontStyle=1;align=center;resizeLast=1;rounded=1;shadow=0;sketch=1;curveFitting=1;jiggle=2;labelBackgroundColor=none;" parent="1" vertex="1">
          <mxGeometry x="550" y="-352" width="430" height="323" as="geometry">
            <mxRectangle x="471" y="106" width="70" height="30" as="alternateBounds" />
          </mxGeometry>
        </mxCell>
        <mxCell id="ExKup5xLBlTpcws5XFxN-100" value="" style="shape=partialRectangle;collapsible=0;dropTarget=0;pointerEvents=0;fillColor=none;points=[[0,0.5],[1,0.5]];portConstraint=eastwest;top=0;left=0;right=0;bottom=1;rounded=1;sketch=1;curveFitting=1;jiggle=2;labelBackgroundColor=none;" parent="ExKup5xLBlTpcws5XFxN-99" vertex="1">
          <mxGeometry y="24" width="430" height="30" as="geometry" />
        </mxCell>
        <mxCell id="ExKup5xLBlTpcws5XFxN-101" value="PK" style="shape=partialRectangle;overflow=hidden;connectable=0;fillColor=none;top=0;left=0;bottom=0;right=0;fontStyle=1;rounded=1;sketch=1;curveFitting=1;jiggle=2;labelBackgroundColor=none;" parent="ExKup5xLBlTpcws5XFxN-100" vertex="1">
          <mxGeometry width="30" height="30" as="geometry">
            <mxRectangle width="30" height="30" as="alternateBounds" />
          </mxGeometry>
        </mxCell>
        <mxCell id="ExKup5xLBlTpcws5XFxN-102" value="id int NOT NULL AUTO_INCREMENT" style="shape=partialRectangle;overflow=hidden;connectable=0;fillColor=none;top=0;left=0;bottom=0;right=0;align=left;spacingLeft=6;fontStyle=5;rounded=1;sketch=1;curveFitting=1;jiggle=2;labelBackgroundColor=none;" parent="ExKup5xLBlTpcws5XFxN-100" vertex="1">
          <mxGeometry x="30" width="400" height="30" as="geometry">
            <mxRectangle width="400" height="30" as="alternateBounds" />
          </mxGeometry>
        </mxCell>
        <mxCell id="ExKup5xLBlTpcws5XFxN-103" value="" style="shape=partialRectangle;collapsible=0;dropTarget=0;pointerEvents=0;fillColor=none;points=[[0,0.5],[1,0.5]];portConstraint=eastwest;top=0;left=0;right=0;bottom=0;rounded=1;sketch=1;curveFitting=1;jiggle=2;labelBackgroundColor=none;" parent="ExKup5xLBlTpcws5XFxN-99" vertex="1">
          <mxGeometry y="54" width="430" height="30" as="geometry" />
        </mxCell>
        <mxCell id="ExKup5xLBlTpcws5XFxN-104" value="" style="shape=partialRectangle;overflow=hidden;connectable=0;fillColor=none;top=0;left=0;bottom=0;right=0;rounded=1;sketch=1;curveFitting=1;jiggle=2;labelBackgroundColor=none;" parent="ExKup5xLBlTpcws5XFxN-103" vertex="1">
          <mxGeometry width="30" height="30" as="geometry">
            <mxRectangle width="30" height="30" as="alternateBounds" />
          </mxGeometry>
        </mxCell>
        <mxCell id="ExKup5xLBlTpcws5XFxN-105" value="insertDate timestamp Current_timestamp NOT NULL" style="shape=partialRectangle;overflow=hidden;connectable=0;fillColor=none;top=0;left=0;bottom=0;right=0;align=left;spacingLeft=6;rounded=1;sketch=1;curveFitting=1;jiggle=2;labelBackgroundColor=none;" parent="ExKup5xLBlTpcws5XFxN-103" vertex="1">
          <mxGeometry x="30" width="400" height="30" as="geometry">
            <mxRectangle width="400" height="30" as="alternateBounds" />
          </mxGeometry>
        </mxCell>
        <mxCell id="ExKup5xLBlTpcws5XFxN-106" value="" style="shape=partialRectangle;collapsible=0;dropTarget=0;pointerEvents=0;fillColor=none;points=[[0,0.5],[1,0.5]];portConstraint=eastwest;top=0;left=0;right=0;bottom=0;rounded=1;sketch=1;curveFitting=1;jiggle=2;labelBackgroundColor=none;" parent="ExKup5xLBlTpcws5XFxN-99" vertex="1">
          <mxGeometry y="84" width="430" height="30" as="geometry" />
        </mxCell>
        <mxCell id="ExKup5xLBlTpcws5XFxN-107" value="" style="shape=partialRectangle;overflow=hidden;connectable=0;fillColor=none;top=0;left=0;bottom=0;right=0;rounded=1;sketch=1;curveFitting=1;jiggle=2;labelBackgroundColor=none;" parent="ExKup5xLBlTpcws5XFxN-106" vertex="1">
          <mxGeometry width="30" height="30" as="geometry">
            <mxRectangle width="30" height="30" as="alternateBounds" />
          </mxGeometry>
        </mxCell>
        <mxCell id="ExKup5xLBlTpcws5XFxN-108" value="updateDate timestamp OnUpdate Current_timestamp NOT NULL" style="shape=partialRectangle;overflow=hidden;connectable=0;fillColor=none;top=0;left=0;bottom=0;right=0;align=left;spacingLeft=6;rounded=1;sketch=1;curveFitting=1;jiggle=2;labelBackgroundColor=none;" parent="ExKup5xLBlTpcws5XFxN-106" vertex="1">
          <mxGeometry x="30" width="400" height="30" as="geometry">
            <mxRectangle width="400" height="30" as="alternateBounds" />
          </mxGeometry>
        </mxCell>
        <mxCell id="ExKup5xLBlTpcws5XFxN-112" value="" style="shape=partialRectangle;collapsible=0;dropTarget=0;pointerEvents=0;fillColor=none;points=[[0,0.5],[1,0.5]];portConstraint=eastwest;top=0;left=0;right=0;bottom=0;rounded=1;sketch=1;curveFitting=1;jiggle=2;labelBackgroundColor=none;" parent="ExKup5xLBlTpcws5XFxN-99" vertex="1">
          <mxGeometry y="114" width="430" height="30" as="geometry" />
        </mxCell>
        <mxCell id="ExKup5xLBlTpcws5XFxN-113" value="" style="shape=partialRectangle;overflow=hidden;connectable=0;fillColor=none;top=0;left=0;bottom=0;right=0;rounded=1;sketch=1;curveFitting=1;jiggle=2;labelBackgroundColor=none;" parent="ExKup5xLBlTpcws5XFxN-112" vertex="1">
          <mxGeometry width="30" height="30" as="geometry">
            <mxRectangle width="30" height="30" as="alternateBounds" />
          </mxGeometry>
        </mxCell>
        <mxCell id="ExKup5xLBlTpcws5XFxN-114" value="avgRate decimal  NOT NULL DEFAULT 0" style="shape=partialRectangle;overflow=hidden;connectable=0;fillColor=none;top=0;left=0;bottom=0;right=0;align=left;spacingLeft=6;rounded=1;sketch=1;curveFitting=1;jiggle=2;labelBackgroundColor=none;" parent="ExKup5xLBlTpcws5XFxN-112" vertex="1">
          <mxGeometry x="30" width="400" height="30" as="geometry">
            <mxRectangle width="400" height="30" as="alternateBounds" />
          </mxGeometry>
        </mxCell>
        <mxCell id="ExKup5xLBlTpcws5XFxN-115" value="" style="shape=partialRectangle;collapsible=0;dropTarget=0;pointerEvents=0;fillColor=none;points=[[0,0.5],[1,0.5]];portConstraint=eastwest;top=0;left=0;right=0;bottom=0;rounded=1;sketch=1;curveFitting=1;jiggle=2;labelBackgroundColor=none;" parent="ExKup5xLBlTpcws5XFxN-99" vertex="1">
          <mxGeometry y="144" width="430" height="30" as="geometry" />
        </mxCell>
        <mxCell id="ExKup5xLBlTpcws5XFxN-116" value="" style="shape=partialRectangle;overflow=hidden;connectable=0;fillColor=none;top=0;left=0;bottom=0;right=0;rounded=1;sketch=1;curveFitting=1;jiggle=2;labelBackgroundColor=none;" parent="ExKup5xLBlTpcws5XFxN-115" vertex="1">
          <mxGeometry width="30" height="30" as="geometry">
            <mxRectangle width="30" height="30" as="alternateBounds" />
          </mxGeometry>
        </mxCell>
        <mxCell id="ExKup5xLBlTpcws5XFxN-117" value="avgJobQuality decimal  NOT NULL DEFAULT 0" style="shape=partialRectangle;overflow=hidden;connectable=0;fillColor=none;top=0;left=0;bottom=0;right=0;align=left;spacingLeft=6;rounded=1;sketch=1;curveFitting=1;jiggle=2;labelBackgroundColor=none;" parent="ExKup5xLBlTpcws5XFxN-115" vertex="1">
          <mxGeometry x="30" width="400" height="30" as="geometry">
            <mxRectangle width="400" height="30" as="alternateBounds" />
          </mxGeometry>
        </mxCell>
        <mxCell id="ExKup5xLBlTpcws5XFxN-118" value="" style="shape=partialRectangle;collapsible=0;dropTarget=0;pointerEvents=0;fillColor=none;points=[[0,0.5],[1,0.5]];portConstraint=eastwest;top=0;left=0;right=0;bottom=0;rounded=1;sketch=1;curveFitting=1;jiggle=2;labelBackgroundColor=none;" parent="ExKup5xLBlTpcws5XFxN-99" vertex="1">
          <mxGeometry y="174" width="430" height="22" as="geometry" />
        </mxCell>
        <mxCell id="ExKup5xLBlTpcws5XFxN-119" value="" style="shape=partialRectangle;overflow=hidden;connectable=0;fillColor=none;top=0;left=0;bottom=0;right=0;rounded=1;sketch=1;curveFitting=1;jiggle=2;labelBackgroundColor=none;" parent="ExKup5xLBlTpcws5XFxN-118" vertex="1">
          <mxGeometry width="30" height="22" as="geometry">
            <mxRectangle width="30" height="22" as="alternateBounds" />
          </mxGeometry>
        </mxCell>
        <mxCell id="ExKup5xLBlTpcws5XFxN-120" value="avgPrice decimal  NOT NULL DEFAULT 0" style="shape=partialRectangle;overflow=hidden;connectable=0;fillColor=none;top=0;left=0;bottom=0;right=0;align=left;spacingLeft=6;rounded=1;sketch=1;curveFitting=1;jiggle=2;labelBackgroundColor=none;" parent="ExKup5xLBlTpcws5XFxN-118" vertex="1">
          <mxGeometry x="30" width="400" height="22" as="geometry">
            <mxRectangle width="400" height="22" as="alternateBounds" />
          </mxGeometry>
        </mxCell>
        <mxCell id="ExKup5xLBlTpcws5XFxN-127" value="" style="shape=partialRectangle;collapsible=0;dropTarget=0;pointerEvents=0;fillColor=none;points=[[0,0.5],[1,0.5]];portConstraint=eastwest;top=0;left=0;right=0;bottom=0;rounded=1;sketch=1;curveFitting=1;jiggle=2;labelBackgroundColor=none;" parent="ExKup5xLBlTpcws5XFxN-99" vertex="1">
          <mxGeometry y="196" width="430" height="30" as="geometry" />
        </mxCell>
        <mxCell id="ExKup5xLBlTpcws5XFxN-128" value="" style="shape=partialRectangle;overflow=hidden;connectable=0;fillColor=none;top=0;left=0;bottom=0;right=0;rounded=1;sketch=1;curveFitting=1;jiggle=2;labelBackgroundColor=none;" parent="ExKup5xLBlTpcws5XFxN-127" vertex="1">
          <mxGeometry width="30" height="30" as="geometry">
            <mxRectangle width="30" height="30" as="alternateBounds" />
          </mxGeometry>
        </mxCell>
        <mxCell id="ExKup5xLBlTpcws5XFxN-129" value="avgContactQuality decimal  NOT NULL DEFAULT 0" style="shape=partialRectangle;overflow=hidden;connectable=0;fillColor=none;top=0;left=0;bottom=0;right=0;align=left;spacingLeft=6;rounded=1;sketch=1;curveFitting=1;jiggle=2;labelBackgroundColor=none;" parent="ExKup5xLBlTpcws5XFxN-127" vertex="1">
          <mxGeometry x="30" width="400" height="30" as="geometry">
            <mxRectangle width="400" height="30" as="alternateBounds" />
          </mxGeometry>
        </mxCell>
        <mxCell id="ExKup5xLBlTpcws5XFxN-131" value="" style="shape=partialRectangle;collapsible=0;dropTarget=0;pointerEvents=0;fillColor=none;points=[[0,0.5],[1,0.5]];portConstraint=eastwest;top=0;left=0;right=0;bottom=0;rounded=1;sketch=1;curveFitting=1;jiggle=2;labelBackgroundColor=none;" parent="ExKup5xLBlTpcws5XFxN-99" vertex="1">
          <mxGeometry y="226" width="430" height="30" as="geometry" />
        </mxCell>
        <mxCell id="ExKup5xLBlTpcws5XFxN-132" value="FK1" style="shape=partialRectangle;overflow=hidden;connectable=0;fillColor=none;top=0;left=0;bottom=0;right=0;rounded=1;sketch=1;curveFitting=1;jiggle=2;labelBackgroundColor=none;" parent="ExKup5xLBlTpcws5XFxN-131" vertex="1">
          <mxGeometry width="30" height="30" as="geometry">
            <mxRectangle width="30" height="30" as="alternateBounds" />
          </mxGeometry>
        </mxCell>
        <mxCell id="ExKup5xLBlTpcws5XFxN-133" value="userId int NOT NULL" style="shape=partialRectangle;overflow=hidden;connectable=0;fillColor=none;top=0;left=0;bottom=0;right=0;align=left;spacingLeft=6;rounded=1;sketch=1;curveFitting=1;jiggle=2;labelBackgroundColor=none;" parent="ExKup5xLBlTpcws5XFxN-131" vertex="1">
          <mxGeometry x="30" width="400" height="30" as="geometry">
            <mxRectangle width="400" height="30" as="alternateBounds" />
          </mxGeometry>
        </mxCell>
        <mxCell id="ExKup5xLBlTpcws5XFxN-121" value="" style="shape=partialRectangle;collapsible=0;dropTarget=0;pointerEvents=0;fillColor=none;points=[[0,0.5],[1,0.5]];portConstraint=eastwest;top=0;left=0;right=0;bottom=0;rounded=1;sketch=1;curveFitting=1;jiggle=2;labelBackgroundColor=none;" parent="ExKup5xLBlTpcws5XFxN-99" vertex="1">
          <mxGeometry y="256" width="430" height="20" as="geometry" />
        </mxCell>
        <mxCell id="ExKup5xLBlTpcws5XFxN-122" value="FK1" style="shape=partialRectangle;overflow=hidden;connectable=0;fillColor=none;top=0;left=0;bottom=0;right=0;rounded=1;sketch=1;curveFitting=1;jiggle=2;labelBackgroundColor=none;" parent="ExKup5xLBlTpcws5XFxN-121" vertex="1">
          <mxGeometry width="30" height="20" as="geometry">
            <mxRectangle width="30" height="20" as="alternateBounds" />
          </mxGeometry>
        </mxCell>
        <mxCell id="ExKup5xLBlTpcws5XFxN-123" value="fileId int NULL" style="shape=partialRectangle;overflow=hidden;connectable=0;fillColor=none;top=0;left=0;bottom=0;right=0;align=left;spacingLeft=6;rounded=1;sketch=1;curveFitting=1;jiggle=2;labelBackgroundColor=none;" parent="ExKup5xLBlTpcws5XFxN-121" vertex="1">
          <mxGeometry x="30" width="400" height="20" as="geometry">
            <mxRectangle width="400" height="20" as="alternateBounds" />
          </mxGeometry>
        </mxCell>
        <mxCell id="ExKup5xLBlTpcws5XFxN-124" value="" style="shape=partialRectangle;collapsible=0;dropTarget=0;pointerEvents=0;fillColor=none;points=[[0,0.5],[1,0.5]];portConstraint=eastwest;top=0;left=0;right=0;bottom=0;rounded=1;sketch=1;curveFitting=1;jiggle=2;labelBackgroundColor=none;" parent="ExKup5xLBlTpcws5XFxN-99" vertex="1">
          <mxGeometry y="276" width="430" height="27" as="geometry" />
        </mxCell>
        <mxCell id="ExKup5xLBlTpcws5XFxN-125" value="FK2" style="shape=partialRectangle;overflow=hidden;connectable=0;fillColor=none;top=0;left=0;bottom=0;right=0;rounded=1;sketch=1;curveFitting=1;jiggle=2;labelBackgroundColor=none;" parent="ExKup5xLBlTpcws5XFxN-124" vertex="1">
          <mxGeometry width="30" height="27" as="geometry">
            <mxRectangle width="30" height="27" as="alternateBounds" />
          </mxGeometry>
        </mxCell>
        <mxCell id="ExKup5xLBlTpcws5XFxN-126" value="contactInfo int NOT NULL" style="shape=partialRectangle;overflow=hidden;connectable=0;fillColor=none;top=0;left=0;bottom=0;right=0;align=left;spacingLeft=6;rounded=1;sketch=1;curveFitting=1;jiggle=2;labelBackgroundColor=none;" parent="ExKup5xLBlTpcws5XFxN-124" vertex="1">
          <mxGeometry x="30" width="400" height="27" as="geometry">
            <mxRectangle width="400" height="27" as="alternateBounds" />
          </mxGeometry>
        </mxCell>
        <mxCell id="dE7ULnlJ5DoON1_vQw4C-53" value="" style="shape=partialRectangle;collapsible=0;dropTarget=0;pointerEvents=0;fillColor=none;points=[[0,0.5],[1,0.5]];portConstraint=eastwest;top=0;left=0;right=0;bottom=0;rounded=1;sketch=1;curveFitting=1;jiggle=2;labelBackgroundColor=none;" vertex="1" parent="ExKup5xLBlTpcws5XFxN-99">
          <mxGeometry y="303" width="430" height="20" as="geometry" />
        </mxCell>
        <mxCell id="dE7ULnlJ5DoON1_vQw4C-54" value="FK2" style="shape=partialRectangle;overflow=hidden;connectable=0;fillColor=none;top=0;left=0;bottom=0;right=0;rounded=1;sketch=1;curveFitting=1;jiggle=2;labelBackgroundColor=none;" vertex="1" parent="dE7ULnlJ5DoON1_vQw4C-53">
          <mxGeometry width="30" height="20" as="geometry">
            <mxRectangle width="30" height="20" as="alternateBounds" />
          </mxGeometry>
        </mxCell>
        <mxCell id="dE7ULnlJ5DoON1_vQw4C-55" value="company int NOT NULL" style="shape=partialRectangle;overflow=hidden;connectable=0;fillColor=none;top=0;left=0;bottom=0;right=0;align=left;spacingLeft=6;rounded=1;sketch=1;curveFitting=1;jiggle=2;labelBackgroundColor=none;" vertex="1" parent="dE7ULnlJ5DoON1_vQw4C-53">
          <mxGeometry x="30" width="400" height="20" as="geometry">
            <mxRectangle width="400" height="20" as="alternateBounds" />
          </mxGeometry>
        </mxCell>
        <mxCell id="ExKup5xLBlTpcws5XFxN-135" value="File" style="shape=table;startSize=24;container=1;collapsible=1;childLayout=tableLayout;fixedRows=1;rowLines=0;fontStyle=1;align=center;resizeLast=1;rounded=1;shadow=0;sketch=1;curveFitting=1;jiggle=2;labelBackgroundColor=none;" parent="1" vertex="1">
          <mxGeometry x="1180" y="-320" width="430" height="200" as="geometry">
            <mxRectangle x="471" y="106" width="70" height="30" as="alternateBounds" />
          </mxGeometry>
        </mxCell>
        <mxCell id="ExKup5xLBlTpcws5XFxN-136" value="" style="shape=partialRectangle;collapsible=0;dropTarget=0;pointerEvents=0;fillColor=none;points=[[0,0.5],[1,0.5]];portConstraint=eastwest;top=0;left=0;right=0;bottom=1;rounded=1;sketch=1;curveFitting=1;jiggle=2;labelBackgroundColor=none;" parent="ExKup5xLBlTpcws5XFxN-135" vertex="1">
          <mxGeometry y="24" width="430" height="30" as="geometry" />
        </mxCell>
        <mxCell id="ExKup5xLBlTpcws5XFxN-137" value="PK" style="shape=partialRectangle;overflow=hidden;connectable=0;fillColor=none;top=0;left=0;bottom=0;right=0;fontStyle=1;rounded=1;sketch=1;curveFitting=1;jiggle=2;labelBackgroundColor=none;" parent="ExKup5xLBlTpcws5XFxN-136" vertex="1">
          <mxGeometry width="30" height="30" as="geometry">
            <mxRectangle width="30" height="30" as="alternateBounds" />
          </mxGeometry>
        </mxCell>
        <mxCell id="ExKup5xLBlTpcws5XFxN-138" value="id int NOT NULL AUTO_INCREMENT" style="shape=partialRectangle;overflow=hidden;connectable=0;fillColor=none;top=0;left=0;bottom=0;right=0;align=left;spacingLeft=6;fontStyle=5;rounded=1;sketch=1;curveFitting=1;jiggle=2;labelBackgroundColor=none;" parent="ExKup5xLBlTpcws5XFxN-136" vertex="1">
          <mxGeometry x="30" width="400" height="30" as="geometry">
            <mxRectangle width="400" height="30" as="alternateBounds" />
          </mxGeometry>
        </mxCell>
        <mxCell id="ExKup5xLBlTpcws5XFxN-139" value="" style="shape=partialRectangle;collapsible=0;dropTarget=0;pointerEvents=0;fillColor=none;points=[[0,0.5],[1,0.5]];portConstraint=eastwest;top=0;left=0;right=0;bottom=0;rounded=1;sketch=1;curveFitting=1;jiggle=2;labelBackgroundColor=none;" parent="ExKup5xLBlTpcws5XFxN-135" vertex="1">
          <mxGeometry y="54" width="430" height="30" as="geometry" />
        </mxCell>
        <mxCell id="ExKup5xLBlTpcws5XFxN-140" value="" style="shape=partialRectangle;overflow=hidden;connectable=0;fillColor=none;top=0;left=0;bottom=0;right=0;rounded=1;sketch=1;curveFitting=1;jiggle=2;labelBackgroundColor=none;" parent="ExKup5xLBlTpcws5XFxN-139" vertex="1">
          <mxGeometry width="30" height="30" as="geometry">
            <mxRectangle width="30" height="30" as="alternateBounds" />
          </mxGeometry>
        </mxCell>
        <mxCell id="ExKup5xLBlTpcws5XFxN-141" value="insertDate timestamp Current_timestamp NOT NULL" style="shape=partialRectangle;overflow=hidden;connectable=0;fillColor=none;top=0;left=0;bottom=0;right=0;align=left;spacingLeft=6;rounded=1;sketch=1;curveFitting=1;jiggle=2;labelBackgroundColor=none;" parent="ExKup5xLBlTpcws5XFxN-139" vertex="1">
          <mxGeometry x="30" width="400" height="30" as="geometry">
            <mxRectangle width="400" height="30" as="alternateBounds" />
          </mxGeometry>
        </mxCell>
        <mxCell id="ExKup5xLBlTpcws5XFxN-142" value="" style="shape=partialRectangle;collapsible=0;dropTarget=0;pointerEvents=0;fillColor=none;points=[[0,0.5],[1,0.5]];portConstraint=eastwest;top=0;left=0;right=0;bottom=0;rounded=1;sketch=1;curveFitting=1;jiggle=2;labelBackgroundColor=none;" parent="ExKup5xLBlTpcws5XFxN-135" vertex="1">
          <mxGeometry y="84" width="430" height="26" as="geometry" />
        </mxCell>
        <mxCell id="ExKup5xLBlTpcws5XFxN-143" value="" style="shape=partialRectangle;overflow=hidden;connectable=0;fillColor=none;top=0;left=0;bottom=0;right=0;rounded=1;sketch=1;curveFitting=1;jiggle=2;labelBackgroundColor=none;" parent="ExKup5xLBlTpcws5XFxN-142" vertex="1">
          <mxGeometry width="30" height="26" as="geometry">
            <mxRectangle width="30" height="26" as="alternateBounds" />
          </mxGeometry>
        </mxCell>
        <mxCell id="ExKup5xLBlTpcws5XFxN-144" value="updateDate timestamp OnUpdate Current_timestamp NOT NULL" style="shape=partialRectangle;overflow=hidden;connectable=0;fillColor=none;top=0;left=0;bottom=0;right=0;align=left;spacingLeft=6;rounded=1;sketch=1;curveFitting=1;jiggle=2;labelBackgroundColor=none;" parent="ExKup5xLBlTpcws5XFxN-142" vertex="1">
          <mxGeometry x="30" width="400" height="26" as="geometry">
            <mxRectangle width="400" height="26" as="alternateBounds" />
          </mxGeometry>
        </mxCell>
        <mxCell id="ExKup5xLBlTpcws5XFxN-145" value="" style="shape=partialRectangle;collapsible=0;dropTarget=0;pointerEvents=0;fillColor=none;points=[[0,0.5],[1,0.5]];portConstraint=eastwest;top=0;left=0;right=0;bottom=0;rounded=1;sketch=1;curveFitting=1;jiggle=2;labelBackgroundColor=none;" parent="ExKup5xLBlTpcws5XFxN-135" vertex="1">
          <mxGeometry y="110" width="430" height="30" as="geometry" />
        </mxCell>
        <mxCell id="ExKup5xLBlTpcws5XFxN-146" value="" style="shape=partialRectangle;overflow=hidden;connectable=0;fillColor=none;top=0;left=0;bottom=0;right=0;rounded=1;sketch=1;curveFitting=1;jiggle=2;labelBackgroundColor=none;" parent="ExKup5xLBlTpcws5XFxN-145" vertex="1">
          <mxGeometry width="30" height="30" as="geometry">
            <mxRectangle width="30" height="30" as="alternateBounds" />
          </mxGeometry>
        </mxCell>
        <mxCell id="ExKup5xLBlTpcws5XFxN-147" value="type varchar(255) NOT NULL" style="shape=partialRectangle;overflow=hidden;connectable=0;fillColor=none;top=0;left=0;bottom=0;right=0;align=left;spacingLeft=6;rounded=1;sketch=1;curveFitting=1;jiggle=2;labelBackgroundColor=none;" parent="ExKup5xLBlTpcws5XFxN-145" vertex="1">
          <mxGeometry x="30" width="400" height="30" as="geometry">
            <mxRectangle width="400" height="30" as="alternateBounds" />
          </mxGeometry>
        </mxCell>
        <mxCell id="ExKup5xLBlTpcws5XFxN-148" value="" style="shape=partialRectangle;collapsible=0;dropTarget=0;pointerEvents=0;fillColor=none;points=[[0,0.5],[1,0.5]];portConstraint=eastwest;top=0;left=0;right=0;bottom=0;rounded=1;sketch=1;curveFitting=1;jiggle=2;labelBackgroundColor=none;" parent="ExKup5xLBlTpcws5XFxN-135" vertex="1">
          <mxGeometry y="140" width="430" height="30" as="geometry" />
        </mxCell>
        <mxCell id="ExKup5xLBlTpcws5XFxN-149" value="" style="shape=partialRectangle;overflow=hidden;connectable=0;fillColor=none;top=0;left=0;bottom=0;right=0;rounded=1;sketch=1;curveFitting=1;jiggle=2;labelBackgroundColor=none;" parent="ExKup5xLBlTpcws5XFxN-148" vertex="1">
          <mxGeometry width="30" height="30" as="geometry">
            <mxRectangle width="30" height="30" as="alternateBounds" />
          </mxGeometry>
        </mxCell>
        <mxCell id="ExKup5xLBlTpcws5XFxN-150" value="name varchar(255) NOT NULL " style="shape=partialRectangle;overflow=hidden;connectable=0;fillColor=none;top=0;left=0;bottom=0;right=0;align=left;spacingLeft=6;rounded=1;sketch=1;curveFitting=1;jiggle=2;labelBackgroundColor=none;" parent="ExKup5xLBlTpcws5XFxN-148" vertex="1">
          <mxGeometry x="30" width="400" height="30" as="geometry">
            <mxRectangle width="400" height="30" as="alternateBounds" />
          </mxGeometry>
        </mxCell>
        <mxCell id="ExKup5xLBlTpcws5XFxN-151" value="" style="shape=partialRectangle;collapsible=0;dropTarget=0;pointerEvents=0;fillColor=none;points=[[0,0.5],[1,0.5]];portConstraint=eastwest;top=0;left=0;right=0;bottom=0;rounded=1;sketch=1;curveFitting=1;jiggle=2;labelBackgroundColor=none;" parent="ExKup5xLBlTpcws5XFxN-135" vertex="1">
          <mxGeometry y="170" width="430" height="30" as="geometry" />
        </mxCell>
        <mxCell id="ExKup5xLBlTpcws5XFxN-152" value="" style="shape=partialRectangle;overflow=hidden;connectable=0;fillColor=none;top=0;left=0;bottom=0;right=0;rounded=1;sketch=1;curveFitting=1;jiggle=2;labelBackgroundColor=none;" parent="ExKup5xLBlTpcws5XFxN-151" vertex="1">
          <mxGeometry width="30" height="30" as="geometry">
            <mxRectangle width="30" height="30" as="alternateBounds" />
          </mxGeometry>
        </mxCell>
        <mxCell id="ExKup5xLBlTpcws5XFxN-153" value="data longblob NOT NULL " style="shape=partialRectangle;overflow=hidden;connectable=0;fillColor=none;top=0;left=0;bottom=0;right=0;align=left;spacingLeft=6;rounded=1;sketch=1;curveFitting=1;jiggle=2;labelBackgroundColor=none;" parent="ExKup5xLBlTpcws5XFxN-151" vertex="1">
          <mxGeometry x="30" width="400" height="30" as="geometry">
            <mxRectangle width="400" height="30" as="alternateBounds" />
          </mxGeometry>
        </mxCell>
        <mxCell id="ExKup5xLBlTpcws5XFxN-192" value="FarmerLocation" style="shape=table;startSize=24;container=1;collapsible=1;childLayout=tableLayout;fixedRows=1;rowLines=0;fontStyle=1;align=center;resizeLast=1;rounded=1;shadow=0;sketch=1;curveFitting=1;jiggle=2;labelBackgroundColor=none;" parent="1" vertex="1">
          <mxGeometry x="-870" y="300" width="430" height="260" as="geometry">
            <mxRectangle x="471" y="106" width="70" height="30" as="alternateBounds" />
          </mxGeometry>
        </mxCell>
        <mxCell id="ExKup5xLBlTpcws5XFxN-193" value="" style="shape=partialRectangle;collapsible=0;dropTarget=0;pointerEvents=0;fillColor=none;points=[[0,0.5],[1,0.5]];portConstraint=eastwest;top=0;left=0;right=0;bottom=1;rounded=1;sketch=1;curveFitting=1;jiggle=2;labelBackgroundColor=none;" parent="ExKup5xLBlTpcws5XFxN-192" vertex="1">
          <mxGeometry y="24" width="430" height="30" as="geometry" />
        </mxCell>
        <mxCell id="ExKup5xLBlTpcws5XFxN-194" value="PK" style="shape=partialRectangle;overflow=hidden;connectable=0;fillColor=none;top=0;left=0;bottom=0;right=0;fontStyle=1;rounded=1;sketch=1;curveFitting=1;jiggle=2;labelBackgroundColor=none;" parent="ExKup5xLBlTpcws5XFxN-193" vertex="1">
          <mxGeometry width="30" height="30" as="geometry">
            <mxRectangle width="30" height="30" as="alternateBounds" />
          </mxGeometry>
        </mxCell>
        <mxCell id="ExKup5xLBlTpcws5XFxN-195" value="id int NOT NULL AUTO_INCREMENT" style="shape=partialRectangle;overflow=hidden;connectable=0;fillColor=none;top=0;left=0;bottom=0;right=0;align=left;spacingLeft=6;fontStyle=5;rounded=1;sketch=1;curveFitting=1;jiggle=2;labelBackgroundColor=none;" parent="ExKup5xLBlTpcws5XFxN-193" vertex="1">
          <mxGeometry x="30" width="400" height="30" as="geometry">
            <mxRectangle width="400" height="30" as="alternateBounds" />
          </mxGeometry>
        </mxCell>
        <mxCell id="ExKup5xLBlTpcws5XFxN-196" value="" style="shape=partialRectangle;collapsible=0;dropTarget=0;pointerEvents=0;fillColor=none;points=[[0,0.5],[1,0.5]];portConstraint=eastwest;top=0;left=0;right=0;bottom=0;rounded=1;sketch=1;curveFitting=1;jiggle=2;labelBackgroundColor=none;" parent="ExKup5xLBlTpcws5XFxN-192" vertex="1">
          <mxGeometry y="54" width="430" height="30" as="geometry" />
        </mxCell>
        <mxCell id="ExKup5xLBlTpcws5XFxN-197" value="" style="shape=partialRectangle;overflow=hidden;connectable=0;fillColor=none;top=0;left=0;bottom=0;right=0;rounded=1;sketch=1;curveFitting=1;jiggle=2;labelBackgroundColor=none;" parent="ExKup5xLBlTpcws5XFxN-196" vertex="1">
          <mxGeometry width="30" height="30" as="geometry">
            <mxRectangle width="30" height="30" as="alternateBounds" />
          </mxGeometry>
        </mxCell>
        <mxCell id="ExKup5xLBlTpcws5XFxN-198" value="insertDate timestamp Current_timestamp NOT NULL" style="shape=partialRectangle;overflow=hidden;connectable=0;fillColor=none;top=0;left=0;bottom=0;right=0;align=left;spacingLeft=6;rounded=1;sketch=1;curveFitting=1;jiggle=2;labelBackgroundColor=none;" parent="ExKup5xLBlTpcws5XFxN-196" vertex="1">
          <mxGeometry x="30" width="400" height="30" as="geometry">
            <mxRectangle width="400" height="30" as="alternateBounds" />
          </mxGeometry>
        </mxCell>
        <mxCell id="ExKup5xLBlTpcws5XFxN-199" value="" style="shape=partialRectangle;collapsible=0;dropTarget=0;pointerEvents=0;fillColor=none;points=[[0,0.5],[1,0.5]];portConstraint=eastwest;top=0;left=0;right=0;bottom=0;rounded=1;sketch=1;curveFitting=1;jiggle=2;labelBackgroundColor=none;" parent="ExKup5xLBlTpcws5XFxN-192" vertex="1">
          <mxGeometry y="84" width="430" height="26" as="geometry" />
        </mxCell>
        <mxCell id="ExKup5xLBlTpcws5XFxN-200" value="" style="shape=partialRectangle;overflow=hidden;connectable=0;fillColor=none;top=0;left=0;bottom=0;right=0;rounded=1;sketch=1;curveFitting=1;jiggle=2;labelBackgroundColor=none;" parent="ExKup5xLBlTpcws5XFxN-199" vertex="1">
          <mxGeometry width="30" height="26" as="geometry">
            <mxRectangle width="30" height="26" as="alternateBounds" />
          </mxGeometry>
        </mxCell>
        <mxCell id="ExKup5xLBlTpcws5XFxN-201" value="updateDate timestamp OnUpdate Current_timestamp NOT NULL" style="shape=partialRectangle;overflow=hidden;connectable=0;fillColor=none;top=0;left=0;bottom=0;right=0;align=left;spacingLeft=6;rounded=1;sketch=1;curveFitting=1;jiggle=2;labelBackgroundColor=none;" parent="ExKup5xLBlTpcws5XFxN-199" vertex="1">
          <mxGeometry x="30" width="400" height="26" as="geometry">
            <mxRectangle width="400" height="26" as="alternateBounds" />
          </mxGeometry>
        </mxCell>
        <mxCell id="ExKup5xLBlTpcws5XFxN-202" value="" style="shape=partialRectangle;collapsible=0;dropTarget=0;pointerEvents=0;fillColor=none;points=[[0,0.5],[1,0.5]];portConstraint=eastwest;top=0;left=0;right=0;bottom=0;rounded=1;sketch=1;curveFitting=1;jiggle=2;labelBackgroundColor=none;" parent="ExKup5xLBlTpcws5XFxN-192" vertex="1">
          <mxGeometry y="110" width="430" height="30" as="geometry" />
        </mxCell>
        <mxCell id="ExKup5xLBlTpcws5XFxN-203" value="" style="shape=partialRectangle;overflow=hidden;connectable=0;fillColor=none;top=0;left=0;bottom=0;right=0;rounded=1;sketch=1;curveFitting=1;jiggle=2;labelBackgroundColor=none;" parent="ExKup5xLBlTpcws5XFxN-202" vertex="1">
          <mxGeometry width="30" height="30" as="geometry">
            <mxRectangle width="30" height="30" as="alternateBounds" />
          </mxGeometry>
        </mxCell>
        <mxCell id="ExKup5xLBlTpcws5XFxN-204" value="description text NULL" style="shape=partialRectangle;overflow=hidden;connectable=0;fillColor=none;top=0;left=0;bottom=0;right=0;align=left;spacingLeft=6;rounded=1;sketch=1;curveFitting=1;jiggle=2;labelBackgroundColor=none;" parent="ExKup5xLBlTpcws5XFxN-202" vertex="1">
          <mxGeometry x="30" width="400" height="30" as="geometry">
            <mxRectangle width="400" height="30" as="alternateBounds" />
          </mxGeometry>
        </mxCell>
        <mxCell id="ExKup5xLBlTpcws5XFxN-205" value="" style="shape=partialRectangle;collapsible=0;dropTarget=0;pointerEvents=0;fillColor=none;points=[[0,0.5],[1,0.5]];portConstraint=eastwest;top=0;left=0;right=0;bottom=0;rounded=1;sketch=1;curveFitting=1;jiggle=2;labelBackgroundColor=none;" parent="ExKup5xLBlTpcws5XFxN-192" vertex="1">
          <mxGeometry y="140" width="430" height="30" as="geometry" />
        </mxCell>
        <mxCell id="ExKup5xLBlTpcws5XFxN-206" value="" style="shape=partialRectangle;overflow=hidden;connectable=0;fillColor=none;top=0;left=0;bottom=0;right=0;rounded=1;sketch=1;curveFitting=1;jiggle=2;labelBackgroundColor=none;" parent="ExKup5xLBlTpcws5XFxN-205" vertex="1">
          <mxGeometry width="30" height="30" as="geometry">
            <mxRectangle width="30" height="30" as="alternateBounds" />
          </mxGeometry>
        </mxCell>
        <mxCell id="ExKup5xLBlTpcws5XFxN-207" value="name varchar(255) NOT NULL " style="shape=partialRectangle;overflow=hidden;connectable=0;fillColor=none;top=0;left=0;bottom=0;right=0;align=left;spacingLeft=6;rounded=1;sketch=1;curveFitting=1;jiggle=2;labelBackgroundColor=none;" parent="ExKup5xLBlTpcws5XFxN-205" vertex="1">
          <mxGeometry x="30" width="400" height="30" as="geometry">
            <mxRectangle width="400" height="30" as="alternateBounds" />
          </mxGeometry>
        </mxCell>
        <mxCell id="ExKup5xLBlTpcws5XFxN-208" value="" style="shape=partialRectangle;collapsible=0;dropTarget=0;pointerEvents=0;fillColor=none;points=[[0,0.5],[1,0.5]];portConstraint=eastwest;top=0;left=0;right=0;bottom=0;rounded=1;sketch=1;curveFitting=1;jiggle=2;labelBackgroundColor=none;" parent="ExKup5xLBlTpcws5XFxN-192" vertex="1">
          <mxGeometry y="170" width="430" height="30" as="geometry" />
        </mxCell>
        <mxCell id="ExKup5xLBlTpcws5XFxN-209" value="" style="shape=partialRectangle;overflow=hidden;connectable=0;fillColor=none;top=0;left=0;bottom=0;right=0;rounded=1;sketch=1;curveFitting=1;jiggle=2;labelBackgroundColor=none;" parent="ExKup5xLBlTpcws5XFxN-208" vertex="1">
          <mxGeometry width="30" height="30" as="geometry">
            <mxRectangle width="30" height="30" as="alternateBounds" />
          </mxGeometry>
        </mxCell>
        <mxCell id="ExKup5xLBlTpcws5XFxN-210" value="data longblob NOT NULL " style="shape=partialRectangle;overflow=hidden;connectable=0;fillColor=none;top=0;left=0;bottom=0;right=0;align=left;spacingLeft=6;rounded=1;sketch=1;curveFitting=1;jiggle=2;labelBackgroundColor=none;" parent="ExKup5xLBlTpcws5XFxN-208" vertex="1">
          <mxGeometry x="30" width="400" height="30" as="geometry">
            <mxRectangle width="400" height="30" as="alternateBounds" />
          </mxGeometry>
        </mxCell>
        <mxCell id="ExKup5xLBlTpcws5XFxN-276" value="" style="shape=partialRectangle;collapsible=0;dropTarget=0;pointerEvents=0;fillColor=none;points=[[0,0.5],[1,0.5]];portConstraint=eastwest;top=0;left=0;right=0;bottom=0;rounded=1;sketch=1;curveFitting=1;jiggle=2;labelBackgroundColor=none;" parent="ExKup5xLBlTpcws5XFxN-192" vertex="1">
          <mxGeometry y="200" width="430" height="30" as="geometry" />
        </mxCell>
        <mxCell id="ExKup5xLBlTpcws5XFxN-277" value="FK1" style="shape=partialRectangle;overflow=hidden;connectable=0;fillColor=none;top=0;left=0;bottom=0;right=0;rounded=1;sketch=1;curveFitting=1;jiggle=2;labelBackgroundColor=none;" parent="ExKup5xLBlTpcws5XFxN-276" vertex="1">
          <mxGeometry width="30" height="30" as="geometry">
            <mxRectangle width="30" height="30" as="alternateBounds" />
          </mxGeometry>
        </mxCell>
        <mxCell id="ExKup5xLBlTpcws5XFxN-278" value="farmerId int NOT NULL " style="shape=partialRectangle;overflow=hidden;connectable=0;fillColor=none;top=0;left=0;bottom=0;right=0;align=left;spacingLeft=6;rounded=1;sketch=1;curveFitting=1;jiggle=2;labelBackgroundColor=none;" parent="ExKup5xLBlTpcws5XFxN-276" vertex="1">
          <mxGeometry x="30" width="400" height="30" as="geometry">
            <mxRectangle width="400" height="30" as="alternateBounds" />
          </mxGeometry>
        </mxCell>
        <mxCell id="ExKup5xLBlTpcws5XFxN-285" value="" style="shape=partialRectangle;collapsible=0;dropTarget=0;pointerEvents=0;fillColor=none;points=[[0,0.5],[1,0.5]];portConstraint=eastwest;top=0;left=0;right=0;bottom=0;rounded=1;sketch=1;curveFitting=1;jiggle=2;labelBackgroundColor=none;" parent="ExKup5xLBlTpcws5XFxN-192" vertex="1">
          <mxGeometry y="230" width="430" height="30" as="geometry" />
        </mxCell>
        <mxCell id="ExKup5xLBlTpcws5XFxN-286" value="FK2" style="shape=partialRectangle;overflow=hidden;connectable=0;fillColor=none;top=0;left=0;bottom=0;right=0;rounded=1;sketch=1;curveFitting=1;jiggle=2;labelBackgroundColor=none;" parent="ExKup5xLBlTpcws5XFxN-285" vertex="1">
          <mxGeometry width="30" height="30" as="geometry">
            <mxRectangle width="30" height="30" as="alternateBounds" />
          </mxGeometry>
        </mxCell>
        <mxCell id="ExKup5xLBlTpcws5XFxN-287" value="locationId int NOT NULL " style="shape=partialRectangle;overflow=hidden;connectable=0;fillColor=none;top=0;left=0;bottom=0;right=0;align=left;spacingLeft=6;rounded=1;sketch=1;curveFitting=1;jiggle=2;labelBackgroundColor=none;" parent="ExKup5xLBlTpcws5XFxN-285" vertex="1">
          <mxGeometry x="30" width="400" height="30" as="geometry">
            <mxRectangle width="400" height="30" as="alternateBounds" />
          </mxGeometry>
        </mxCell>
        <mxCell id="ExKup5xLBlTpcws5XFxN-211" value="Location" style="shape=table;startSize=24;container=1;collapsible=1;childLayout=tableLayout;fixedRows=1;rowLines=0;fontStyle=1;align=center;resizeLast=1;rounded=1;shadow=0;sketch=1;curveFitting=1;jiggle=2;labelBackgroundColor=none;" parent="1" vertex="1">
          <mxGeometry x="-5" y="-380" width="430" height="380" as="geometry">
            <mxRectangle x="471" y="106" width="70" height="30" as="alternateBounds" />
          </mxGeometry>
        </mxCell>
        <mxCell id="ExKup5xLBlTpcws5XFxN-212" value="" style="shape=partialRectangle;collapsible=0;dropTarget=0;pointerEvents=0;fillColor=none;points=[[0,0.5],[1,0.5]];portConstraint=eastwest;top=0;left=0;right=0;bottom=1;rounded=1;sketch=1;curveFitting=1;jiggle=2;labelBackgroundColor=none;" parent="ExKup5xLBlTpcws5XFxN-211" vertex="1">
          <mxGeometry y="24" width="430" height="30" as="geometry" />
        </mxCell>
        <mxCell id="ExKup5xLBlTpcws5XFxN-213" value="PK" style="shape=partialRectangle;overflow=hidden;connectable=0;fillColor=none;top=0;left=0;bottom=0;right=0;fontStyle=1;rounded=1;sketch=1;curveFitting=1;jiggle=2;labelBackgroundColor=none;" parent="ExKup5xLBlTpcws5XFxN-212" vertex="1">
          <mxGeometry width="30" height="30" as="geometry">
            <mxRectangle width="30" height="30" as="alternateBounds" />
          </mxGeometry>
        </mxCell>
        <mxCell id="ExKup5xLBlTpcws5XFxN-214" value="id int NOT NULL AUTO_INCREMENT" style="shape=partialRectangle;overflow=hidden;connectable=0;fillColor=none;top=0;left=0;bottom=0;right=0;align=left;spacingLeft=6;fontStyle=5;rounded=1;sketch=1;curveFitting=1;jiggle=2;labelBackgroundColor=none;" parent="ExKup5xLBlTpcws5XFxN-212" vertex="1">
          <mxGeometry x="30" width="400" height="30" as="geometry">
            <mxRectangle width="400" height="30" as="alternateBounds" />
          </mxGeometry>
        </mxCell>
        <mxCell id="ExKup5xLBlTpcws5XFxN-215" value="" style="shape=partialRectangle;collapsible=0;dropTarget=0;pointerEvents=0;fillColor=none;points=[[0,0.5],[1,0.5]];portConstraint=eastwest;top=0;left=0;right=0;bottom=0;rounded=1;sketch=1;curveFitting=1;jiggle=2;labelBackgroundColor=none;" parent="ExKup5xLBlTpcws5XFxN-211" vertex="1">
          <mxGeometry y="54" width="430" height="30" as="geometry" />
        </mxCell>
        <mxCell id="ExKup5xLBlTpcws5XFxN-216" value="" style="shape=partialRectangle;overflow=hidden;connectable=0;fillColor=none;top=0;left=0;bottom=0;right=0;rounded=1;sketch=1;curveFitting=1;jiggle=2;labelBackgroundColor=none;" parent="ExKup5xLBlTpcws5XFxN-215" vertex="1">
          <mxGeometry width="30" height="30" as="geometry">
            <mxRectangle width="30" height="30" as="alternateBounds" />
          </mxGeometry>
        </mxCell>
        <mxCell id="ExKup5xLBlTpcws5XFxN-217" value="insertDate timestamp Current_timestamp NOT NULL" style="shape=partialRectangle;overflow=hidden;connectable=0;fillColor=none;top=0;left=0;bottom=0;right=0;align=left;spacingLeft=6;rounded=1;sketch=1;curveFitting=1;jiggle=2;labelBackgroundColor=none;" parent="ExKup5xLBlTpcws5XFxN-215" vertex="1">
          <mxGeometry x="30" width="400" height="30" as="geometry">
            <mxRectangle width="400" height="30" as="alternateBounds" />
          </mxGeometry>
        </mxCell>
        <mxCell id="ExKup5xLBlTpcws5XFxN-218" value="" style="shape=partialRectangle;collapsible=0;dropTarget=0;pointerEvents=0;fillColor=none;points=[[0,0.5],[1,0.5]];portConstraint=eastwest;top=0;left=0;right=0;bottom=0;rounded=1;sketch=1;curveFitting=1;jiggle=2;labelBackgroundColor=none;" parent="ExKup5xLBlTpcws5XFxN-211" vertex="1">
          <mxGeometry y="84" width="430" height="26" as="geometry" />
        </mxCell>
        <mxCell id="ExKup5xLBlTpcws5XFxN-219" value="" style="shape=partialRectangle;overflow=hidden;connectable=0;fillColor=none;top=0;left=0;bottom=0;right=0;rounded=1;sketch=1;curveFitting=1;jiggle=2;labelBackgroundColor=none;" parent="ExKup5xLBlTpcws5XFxN-218" vertex="1">
          <mxGeometry width="30" height="26" as="geometry">
            <mxRectangle width="30" height="26" as="alternateBounds" />
          </mxGeometry>
        </mxCell>
        <mxCell id="ExKup5xLBlTpcws5XFxN-220" value="updateDate timestamp OnUpdate Current_timestamp NOT NULL" style="shape=partialRectangle;overflow=hidden;connectable=0;fillColor=none;top=0;left=0;bottom=0;right=0;align=left;spacingLeft=6;rounded=1;sketch=1;curveFitting=1;jiggle=2;labelBackgroundColor=none;" parent="ExKup5xLBlTpcws5XFxN-218" vertex="1">
          <mxGeometry x="30" width="400" height="26" as="geometry">
            <mxRectangle width="400" height="26" as="alternateBounds" />
          </mxGeometry>
        </mxCell>
        <mxCell id="ExKup5xLBlTpcws5XFxN-221" value="" style="shape=partialRectangle;collapsible=0;dropTarget=0;pointerEvents=0;fillColor=none;points=[[0,0.5],[1,0.5]];portConstraint=eastwest;top=0;left=0;right=0;bottom=0;rounded=1;sketch=1;curveFitting=1;jiggle=2;labelBackgroundColor=none;" parent="ExKup5xLBlTpcws5XFxN-211" vertex="1">
          <mxGeometry y="110" width="430" height="30" as="geometry" />
        </mxCell>
        <mxCell id="ExKup5xLBlTpcws5XFxN-222" value="" style="shape=partialRectangle;overflow=hidden;connectable=0;fillColor=none;top=0;left=0;bottom=0;right=0;rounded=1;sketch=1;curveFitting=1;jiggle=2;labelBackgroundColor=none;" parent="ExKup5xLBlTpcws5XFxN-221" vertex="1">
          <mxGeometry width="30" height="30" as="geometry">
            <mxRectangle width="30" height="30" as="alternateBounds" />
          </mxGeometry>
        </mxCell>
        <mxCell id="ExKup5xLBlTpcws5XFxN-223" value="longtitude decimal NOT NULL" style="shape=partialRectangle;overflow=hidden;connectable=0;fillColor=none;top=0;left=0;bottom=0;right=0;align=left;spacingLeft=6;rounded=1;sketch=1;curveFitting=1;jiggle=2;labelBackgroundColor=none;" parent="ExKup5xLBlTpcws5XFxN-221" vertex="1">
          <mxGeometry x="30" width="400" height="30" as="geometry">
            <mxRectangle width="400" height="30" as="alternateBounds" />
          </mxGeometry>
        </mxCell>
        <mxCell id="ExKup5xLBlTpcws5XFxN-224" value="" style="shape=partialRectangle;collapsible=0;dropTarget=0;pointerEvents=0;fillColor=none;points=[[0,0.5],[1,0.5]];portConstraint=eastwest;top=0;left=0;right=0;bottom=0;rounded=1;sketch=1;curveFitting=1;jiggle=2;labelBackgroundColor=none;" parent="ExKup5xLBlTpcws5XFxN-211" vertex="1">
          <mxGeometry y="140" width="430" height="30" as="geometry" />
        </mxCell>
        <mxCell id="ExKup5xLBlTpcws5XFxN-225" value="" style="shape=partialRectangle;overflow=hidden;connectable=0;fillColor=none;top=0;left=0;bottom=0;right=0;rounded=1;sketch=1;curveFitting=1;jiggle=2;labelBackgroundColor=none;" parent="ExKup5xLBlTpcws5XFxN-224" vertex="1">
          <mxGeometry width="30" height="30" as="geometry">
            <mxRectangle width="30" height="30" as="alternateBounds" />
          </mxGeometry>
        </mxCell>
        <mxCell id="ExKup5xLBlTpcws5XFxN-226" value="latitude decimal NOT NULL " style="shape=partialRectangle;overflow=hidden;connectable=0;fillColor=none;top=0;left=0;bottom=0;right=0;align=left;spacingLeft=6;rounded=1;sketch=1;curveFitting=1;jiggle=2;labelBackgroundColor=none;" parent="ExKup5xLBlTpcws5XFxN-224" vertex="1">
          <mxGeometry x="30" width="400" height="30" as="geometry">
            <mxRectangle width="400" height="30" as="alternateBounds" />
          </mxGeometry>
        </mxCell>
        <mxCell id="ExKup5xLBlTpcws5XFxN-227" value="" style="shape=partialRectangle;collapsible=0;dropTarget=0;pointerEvents=0;fillColor=none;points=[[0,0.5],[1,0.5]];portConstraint=eastwest;top=0;left=0;right=0;bottom=0;rounded=1;sketch=1;curveFitting=1;jiggle=2;labelBackgroundColor=none;" parent="ExKup5xLBlTpcws5XFxN-211" vertex="1">
          <mxGeometry y="170" width="430" height="30" as="geometry" />
        </mxCell>
        <mxCell id="ExKup5xLBlTpcws5XFxN-228" value="" style="shape=partialRectangle;overflow=hidden;connectable=0;fillColor=none;top=0;left=0;bottom=0;right=0;rounded=1;sketch=1;curveFitting=1;jiggle=2;labelBackgroundColor=none;" parent="ExKup5xLBlTpcws5XFxN-227" vertex="1">
          <mxGeometry width="30" height="30" as="geometry">
            <mxRectangle width="30" height="30" as="alternateBounds" />
          </mxGeometry>
        </mxCell>
        <mxCell id="ExKup5xLBlTpcws5XFxN-229" value="prefecture varchar(255) NOT NULL" style="shape=partialRectangle;overflow=hidden;connectable=0;fillColor=none;top=0;left=0;bottom=0;right=0;align=left;spacingLeft=6;rounded=1;sketch=1;curveFitting=1;jiggle=2;labelBackgroundColor=none;" parent="ExKup5xLBlTpcws5XFxN-227" vertex="1">
          <mxGeometry x="30" width="400" height="30" as="geometry">
            <mxRectangle width="400" height="30" as="alternateBounds" />
          </mxGeometry>
        </mxCell>
        <mxCell id="ExKup5xLBlTpcws5XFxN-230" value="" style="shape=partialRectangle;collapsible=0;dropTarget=0;pointerEvents=0;fillColor=none;points=[[0,0.5],[1,0.5]];portConstraint=eastwest;top=0;left=0;right=0;bottom=0;rounded=1;sketch=1;curveFitting=1;jiggle=2;labelBackgroundColor=none;" parent="ExKup5xLBlTpcws5XFxN-211" vertex="1">
          <mxGeometry y="200" width="430" height="30" as="geometry" />
        </mxCell>
        <mxCell id="ExKup5xLBlTpcws5XFxN-231" value="" style="shape=partialRectangle;overflow=hidden;connectable=0;fillColor=none;top=0;left=0;bottom=0;right=0;rounded=1;sketch=1;curveFitting=1;jiggle=2;labelBackgroundColor=none;" parent="ExKup5xLBlTpcws5XFxN-230" vertex="1">
          <mxGeometry width="30" height="30" as="geometry">
            <mxRectangle width="30" height="30" as="alternateBounds" />
          </mxGeometry>
        </mxCell>
        <mxCell id="ExKup5xLBlTpcws5XFxN-232" value="country varchar(255) NOT NULL" style="shape=partialRectangle;overflow=hidden;connectable=0;fillColor=none;top=0;left=0;bottom=0;right=0;align=left;spacingLeft=6;rounded=1;sketch=1;curveFitting=1;jiggle=2;labelBackgroundColor=none;" parent="ExKup5xLBlTpcws5XFxN-230" vertex="1">
          <mxGeometry x="30" width="400" height="30" as="geometry">
            <mxRectangle width="400" height="30" as="alternateBounds" />
          </mxGeometry>
        </mxCell>
        <mxCell id="ExKup5xLBlTpcws5XFxN-414" value="" style="shape=partialRectangle;collapsible=0;dropTarget=0;pointerEvents=0;fillColor=none;points=[[0,0.5],[1,0.5]];portConstraint=eastwest;top=0;left=0;right=0;bottom=0;rounded=1;sketch=1;curveFitting=1;jiggle=2;labelBackgroundColor=none;" parent="ExKup5xLBlTpcws5XFxN-211" vertex="1">
          <mxGeometry y="230" width="430" height="30" as="geometry" />
        </mxCell>
        <mxCell id="ExKup5xLBlTpcws5XFxN-415" value="" style="shape=partialRectangle;overflow=hidden;connectable=0;fillColor=none;top=0;left=0;bottom=0;right=0;rounded=1;sketch=1;curveFitting=1;jiggle=2;labelBackgroundColor=none;" parent="ExKup5xLBlTpcws5XFxN-414" vertex="1">
          <mxGeometry width="30" height="30" as="geometry">
            <mxRectangle width="30" height="30" as="alternateBounds" />
          </mxGeometry>
        </mxCell>
        <mxCell id="ExKup5xLBlTpcws5XFxN-416" value="region varchar(255) NOT NULL" style="shape=partialRectangle;overflow=hidden;connectable=0;fillColor=none;top=0;left=0;bottom=0;right=0;align=left;spacingLeft=6;rounded=1;sketch=1;curveFitting=1;jiggle=2;labelBackgroundColor=none;" parent="ExKup5xLBlTpcws5XFxN-414" vertex="1">
          <mxGeometry x="30" width="400" height="30" as="geometry">
            <mxRectangle width="400" height="30" as="alternateBounds" />
          </mxGeometry>
        </mxCell>
        <mxCell id="ExKup5xLBlTpcws5XFxN-233" value="" style="shape=partialRectangle;collapsible=0;dropTarget=0;pointerEvents=0;fillColor=none;points=[[0,0.5],[1,0.5]];portConstraint=eastwest;top=0;left=0;right=0;bottom=0;rounded=1;sketch=1;curveFitting=1;jiggle=2;labelBackgroundColor=none;" parent="ExKup5xLBlTpcws5XFxN-211" vertex="1">
          <mxGeometry y="260" width="430" height="30" as="geometry" />
        </mxCell>
        <mxCell id="ExKup5xLBlTpcws5XFxN-234" value="" style="shape=partialRectangle;overflow=hidden;connectable=0;fillColor=none;top=0;left=0;bottom=0;right=0;rounded=1;sketch=1;curveFitting=1;jiggle=2;labelBackgroundColor=none;" parent="ExKup5xLBlTpcws5XFxN-233" vertex="1">
          <mxGeometry width="30" height="30" as="geometry">
            <mxRectangle width="30" height="30" as="alternateBounds" />
          </mxGeometry>
        </mxCell>
        <mxCell id="ExKup5xLBlTpcws5XFxN-235" value="region varchar(255) NOT NULL" style="shape=partialRectangle;overflow=hidden;connectable=0;fillColor=none;top=0;left=0;bottom=0;right=0;align=left;spacingLeft=6;rounded=1;sketch=1;curveFitting=1;jiggle=2;labelBackgroundColor=none;" parent="ExKup5xLBlTpcws5XFxN-233" vertex="1">
          <mxGeometry x="30" width="400" height="30" as="geometry">
            <mxRectangle width="400" height="30" as="alternateBounds" />
          </mxGeometry>
        </mxCell>
        <mxCell id="ExKup5xLBlTpcws5XFxN-236" value="" style="shape=partialRectangle;collapsible=0;dropTarget=0;pointerEvents=0;fillColor=none;points=[[0,0.5],[1,0.5]];portConstraint=eastwest;top=0;left=0;right=0;bottom=0;rounded=1;sketch=1;curveFitting=1;jiggle=2;labelBackgroundColor=none;" parent="ExKup5xLBlTpcws5XFxN-211" vertex="1">
          <mxGeometry y="290" width="430" height="30" as="geometry" />
        </mxCell>
        <mxCell id="ExKup5xLBlTpcws5XFxN-237" value="" style="shape=partialRectangle;overflow=hidden;connectable=0;fillColor=none;top=0;left=0;bottom=0;right=0;rounded=1;sketch=1;curveFitting=1;jiggle=2;labelBackgroundColor=none;" parent="ExKup5xLBlTpcws5XFxN-236" vertex="1">
          <mxGeometry width="30" height="30" as="geometry">
            <mxRectangle width="30" height="30" as="alternateBounds" />
          </mxGeometry>
        </mxCell>
        <mxCell id="ExKup5xLBlTpcws5XFxN-238" value="city varchar(255) NOT NULL" style="shape=partialRectangle;overflow=hidden;connectable=0;fillColor=none;top=0;left=0;bottom=0;right=0;align=left;spacingLeft=6;rounded=1;sketch=1;curveFitting=1;jiggle=2;labelBackgroundColor=none;" parent="ExKup5xLBlTpcws5XFxN-236" vertex="1">
          <mxGeometry x="30" width="400" height="30" as="geometry">
            <mxRectangle width="400" height="30" as="alternateBounds" />
          </mxGeometry>
        </mxCell>
        <mxCell id="ExKup5xLBlTpcws5XFxN-239" value="" style="shape=partialRectangle;collapsible=0;dropTarget=0;pointerEvents=0;fillColor=none;points=[[0,0.5],[1,0.5]];portConstraint=eastwest;top=0;left=0;right=0;bottom=0;rounded=1;sketch=1;curveFitting=1;jiggle=2;labelBackgroundColor=none;" parent="ExKup5xLBlTpcws5XFxN-211" vertex="1">
          <mxGeometry y="320" width="430" height="30" as="geometry" />
        </mxCell>
        <mxCell id="ExKup5xLBlTpcws5XFxN-240" value="" style="shape=partialRectangle;overflow=hidden;connectable=0;fillColor=none;top=0;left=0;bottom=0;right=0;rounded=1;sketch=1;curveFitting=1;jiggle=2;labelBackgroundColor=none;" parent="ExKup5xLBlTpcws5XFxN-239" vertex="1">
          <mxGeometry width="30" height="30" as="geometry">
            <mxRectangle width="30" height="30" as="alternateBounds" />
          </mxGeometry>
        </mxCell>
        <mxCell id="ExKup5xLBlTpcws5XFxN-241" value="postCode varchar(255) NOT NULL" style="shape=partialRectangle;overflow=hidden;connectable=0;fillColor=none;top=0;left=0;bottom=0;right=0;align=left;spacingLeft=6;rounded=1;sketch=1;curveFitting=1;jiggle=2;labelBackgroundColor=none;" parent="ExKup5xLBlTpcws5XFxN-239" vertex="1">
          <mxGeometry x="30" width="400" height="30" as="geometry">
            <mxRectangle width="400" height="30" as="alternateBounds" />
          </mxGeometry>
        </mxCell>
        <mxCell id="ExKup5xLBlTpcws5XFxN-242" value="" style="shape=partialRectangle;collapsible=0;dropTarget=0;pointerEvents=0;fillColor=none;points=[[0,0.5],[1,0.5]];portConstraint=eastwest;top=0;left=0;right=0;bottom=0;rounded=1;sketch=1;curveFitting=1;jiggle=2;labelBackgroundColor=none;" parent="ExKup5xLBlTpcws5XFxN-211" vertex="1">
          <mxGeometry y="350" width="430" height="30" as="geometry" />
        </mxCell>
        <mxCell id="ExKup5xLBlTpcws5XFxN-243" value="" style="shape=partialRectangle;overflow=hidden;connectable=0;fillColor=none;top=0;left=0;bottom=0;right=0;rounded=1;sketch=1;curveFitting=1;jiggle=2;labelBackgroundColor=none;" parent="ExKup5xLBlTpcws5XFxN-242" vertex="1">
          <mxGeometry width="30" height="30" as="geometry">
            <mxRectangle width="30" height="30" as="alternateBounds" />
          </mxGeometry>
        </mxCell>
        <mxCell id="ExKup5xLBlTpcws5XFxN-244" value="street varchar(255) NOT NULL" style="shape=partialRectangle;overflow=hidden;connectable=0;fillColor=none;top=0;left=0;bottom=0;right=0;align=left;spacingLeft=6;rounded=1;sketch=1;curveFitting=1;jiggle=2;labelBackgroundColor=none;" parent="ExKup5xLBlTpcws5XFxN-242" vertex="1">
          <mxGeometry x="30" width="400" height="30" as="geometry">
            <mxRectangle width="400" height="30" as="alternateBounds" />
          </mxGeometry>
        </mxCell>
        <mxCell id="ExKup5xLBlTpcws5XFxN-282" value="" style="edgeStyle=elbowEdgeStyle;fontSize=12;html=1;endArrow=ERoneToMany;rounded=1;sketch=1;curveFitting=1;jiggle=2;labelBackgroundColor=none;fontColor=default;entryX=1.001;entryY=0.929;entryDx=0;entryDy=0;entryPerimeter=0;" parent="1" target="ExKup5xLBlTpcws5XFxN-4" edge="1">
          <mxGeometry width="100" height="100" relative="1" as="geometry">
            <mxPoint x="1106" y="540" as="sourcePoint" />
            <mxPoint x="910" y="270" as="targetPoint" />
            <Array as="points">
              <mxPoint x="960" y="470" />
              <mxPoint x="960" y="190" />
            </Array>
          </mxGeometry>
        </mxCell>
        <mxCell id="ExKup5xLBlTpcws5XFxN-283" value="" style="edgeStyle=elbowEdgeStyle;fontSize=12;html=1;endArrow=ERoneToMany;rounded=1;exitX=-0.009;exitY=0.867;exitDx=0;exitDy=0;exitPerimeter=0;sketch=1;curveFitting=1;jiggle=2;labelBackgroundColor=none;fontColor=default;" parent="1" target="ExKup5xLBlTpcws5XFxN-205" edge="1">
          <mxGeometry width="100" height="100" relative="1" as="geometry">
            <mxPoint x="-60" y="155" as="sourcePoint" />
            <mxPoint x="-176" y="255" as="targetPoint" />
            <Array as="points">
              <mxPoint x="-126" y="175" />
            </Array>
          </mxGeometry>
        </mxCell>
        <mxCell id="ExKup5xLBlTpcws5XFxN-284" value="" style="edgeStyle=orthogonalEdgeStyle;fontSize=12;html=1;endArrow=ERoneToMany;rounded=1;entryX=0.7;entryY=-0.004;entryDx=0;entryDy=0;entryPerimeter=0;sketch=1;curveFitting=1;jiggle=2;labelBackgroundColor=none;fontColor=default;exitX=0;exitY=0.5;exitDx=0;exitDy=0;" parent="1" source="ExKup5xLBlTpcws5XFxN-233" target="ExKup5xLBlTpcws5XFxN-192" edge="1">
          <mxGeometry width="100" height="100" relative="1" as="geometry">
            <mxPoint x="-60" y="-130" as="sourcePoint" />
            <mxPoint x="-300" y="-20" as="targetPoint" />
            <Array as="points">
              <mxPoint x="-5" y="-100" />
              <mxPoint x="-569" y="-100" />
            </Array>
          </mxGeometry>
        </mxCell>
        <mxCell id="ExKup5xLBlTpcws5XFxN-288" value="Request" style="shape=table;startSize=24;container=1;collapsible=1;childLayout=tableLayout;fixedRows=1;rowLines=0;fontStyle=1;align=center;resizeLast=1;rounded=1;shadow=0;sketch=1;curveFitting=1;jiggle=2;labelBackgroundColor=none;" parent="1" vertex="1">
          <mxGeometry x="-620" y="-570" width="430" height="410" as="geometry">
            <mxRectangle x="471" y="106" width="70" height="30" as="alternateBounds" />
          </mxGeometry>
        </mxCell>
        <mxCell id="ExKup5xLBlTpcws5XFxN-289" value="" style="shape=partialRectangle;collapsible=0;dropTarget=0;pointerEvents=0;fillColor=none;points=[[0,0.5],[1,0.5]];portConstraint=eastwest;top=0;left=0;right=0;bottom=1;rounded=1;sketch=1;curveFitting=1;jiggle=2;labelBackgroundColor=none;" parent="ExKup5xLBlTpcws5XFxN-288" vertex="1">
          <mxGeometry y="24" width="430" height="30" as="geometry" />
        </mxCell>
        <mxCell id="ExKup5xLBlTpcws5XFxN-290" value="PK" style="shape=partialRectangle;overflow=hidden;connectable=0;fillColor=none;top=0;left=0;bottom=0;right=0;fontStyle=1;rounded=1;sketch=1;curveFitting=1;jiggle=2;labelBackgroundColor=none;" parent="ExKup5xLBlTpcws5XFxN-289" vertex="1">
          <mxGeometry width="30" height="30" as="geometry">
            <mxRectangle width="30" height="30" as="alternateBounds" />
          </mxGeometry>
        </mxCell>
        <mxCell id="ExKup5xLBlTpcws5XFxN-291" value="id int NOT NULL AUTO_INCREMENT" style="shape=partialRectangle;overflow=hidden;connectable=0;fillColor=none;top=0;left=0;bottom=0;right=0;align=left;spacingLeft=6;fontStyle=5;rounded=1;sketch=1;curveFitting=1;jiggle=2;labelBackgroundColor=none;" parent="ExKup5xLBlTpcws5XFxN-289" vertex="1">
          <mxGeometry x="30" width="400" height="30" as="geometry">
            <mxRectangle width="400" height="30" as="alternateBounds" />
          </mxGeometry>
        </mxCell>
        <mxCell id="ExKup5xLBlTpcws5XFxN-292" value="" style="shape=partialRectangle;collapsible=0;dropTarget=0;pointerEvents=0;fillColor=none;points=[[0,0.5],[1,0.5]];portConstraint=eastwest;top=0;left=0;right=0;bottom=0;rounded=1;sketch=1;curveFitting=1;jiggle=2;labelBackgroundColor=none;" parent="ExKup5xLBlTpcws5XFxN-288" vertex="1">
          <mxGeometry y="54" width="430" height="30" as="geometry" />
        </mxCell>
        <mxCell id="ExKup5xLBlTpcws5XFxN-293" value="" style="shape=partialRectangle;overflow=hidden;connectable=0;fillColor=none;top=0;left=0;bottom=0;right=0;rounded=1;sketch=1;curveFitting=1;jiggle=2;labelBackgroundColor=none;" parent="ExKup5xLBlTpcws5XFxN-292" vertex="1">
          <mxGeometry width="30" height="30" as="geometry">
            <mxRectangle width="30" height="30" as="alternateBounds" />
          </mxGeometry>
        </mxCell>
        <mxCell id="ExKup5xLBlTpcws5XFxN-294" value="insertDate timestamp Current_timestamp NOT NULL" style="shape=partialRectangle;overflow=hidden;connectable=0;fillColor=none;top=0;left=0;bottom=0;right=0;align=left;spacingLeft=6;rounded=1;sketch=1;curveFitting=1;jiggle=2;labelBackgroundColor=none;" parent="ExKup5xLBlTpcws5XFxN-292" vertex="1">
          <mxGeometry x="30" width="400" height="30" as="geometry">
            <mxRectangle width="400" height="30" as="alternateBounds" />
          </mxGeometry>
        </mxCell>
        <mxCell id="ExKup5xLBlTpcws5XFxN-295" value="" style="shape=partialRectangle;collapsible=0;dropTarget=0;pointerEvents=0;fillColor=none;points=[[0,0.5],[1,0.5]];portConstraint=eastwest;top=0;left=0;right=0;bottom=0;rounded=1;sketch=1;curveFitting=1;jiggle=2;labelBackgroundColor=none;" parent="ExKup5xLBlTpcws5XFxN-288" vertex="1">
          <mxGeometry y="84" width="430" height="26" as="geometry" />
        </mxCell>
        <mxCell id="ExKup5xLBlTpcws5XFxN-296" value="" style="shape=partialRectangle;overflow=hidden;connectable=0;fillColor=none;top=0;left=0;bottom=0;right=0;rounded=1;sketch=1;curveFitting=1;jiggle=2;labelBackgroundColor=none;" parent="ExKup5xLBlTpcws5XFxN-295" vertex="1">
          <mxGeometry width="30" height="26" as="geometry">
            <mxRectangle width="30" height="26" as="alternateBounds" />
          </mxGeometry>
        </mxCell>
        <mxCell id="ExKup5xLBlTpcws5XFxN-297" value="updateDate timestamp OnUpdate Current_timestamp NOT NULL" style="shape=partialRectangle;overflow=hidden;connectable=0;fillColor=none;top=0;left=0;bottom=0;right=0;align=left;spacingLeft=6;rounded=1;sketch=1;curveFitting=1;jiggle=2;labelBackgroundColor=none;" parent="ExKup5xLBlTpcws5XFxN-295" vertex="1">
          <mxGeometry x="30" width="400" height="26" as="geometry">
            <mxRectangle width="400" height="26" as="alternateBounds" />
          </mxGeometry>
        </mxCell>
        <mxCell id="ExKup5xLBlTpcws5XFxN-298" value="" style="shape=partialRectangle;collapsible=0;dropTarget=0;pointerEvents=0;fillColor=none;points=[[0,0.5],[1,0.5]];portConstraint=eastwest;top=0;left=0;right=0;bottom=0;rounded=1;sketch=1;curveFitting=1;jiggle=2;labelBackgroundColor=none;" parent="ExKup5xLBlTpcws5XFxN-288" vertex="1">
          <mxGeometry y="110" width="430" height="30" as="geometry" />
        </mxCell>
        <mxCell id="ExKup5xLBlTpcws5XFxN-299" value="" style="shape=partialRectangle;overflow=hidden;connectable=0;fillColor=none;top=0;left=0;bottom=0;right=0;rounded=1;sketch=1;curveFitting=1;jiggle=2;labelBackgroundColor=none;" parent="ExKup5xLBlTpcws5XFxN-298" vertex="1">
          <mxGeometry width="30" height="30" as="geometry">
            <mxRectangle width="30" height="30" as="alternateBounds" />
          </mxGeometry>
        </mxCell>
        <mxCell id="ExKup5xLBlTpcws5XFxN-300" value="jobType varchar(255) NOT NULL" style="shape=partialRectangle;overflow=hidden;connectable=0;fillColor=none;top=0;left=0;bottom=0;right=0;align=left;spacingLeft=6;rounded=1;sketch=1;curveFitting=1;jiggle=2;labelBackgroundColor=none;" parent="ExKup5xLBlTpcws5XFxN-298" vertex="1">
          <mxGeometry x="30" width="400" height="30" as="geometry">
            <mxRectangle width="400" height="30" as="alternateBounds" />
          </mxGeometry>
        </mxCell>
        <mxCell id="ExKup5xLBlTpcws5XFxN-301" value="" style="shape=partialRectangle;collapsible=0;dropTarget=0;pointerEvents=0;fillColor=none;points=[[0,0.5],[1,0.5]];portConstraint=eastwest;top=0;left=0;right=0;bottom=0;rounded=1;sketch=1;curveFitting=1;jiggle=2;labelBackgroundColor=none;" parent="ExKup5xLBlTpcws5XFxN-288" vertex="1">
          <mxGeometry y="140" width="430" height="30" as="geometry" />
        </mxCell>
        <mxCell id="ExKup5xLBlTpcws5XFxN-302" value="" style="shape=partialRectangle;overflow=hidden;connectable=0;fillColor=none;top=0;left=0;bottom=0;right=0;rounded=1;sketch=1;curveFitting=1;jiggle=2;labelBackgroundColor=none;" parent="ExKup5xLBlTpcws5XFxN-301" vertex="1">
          <mxGeometry width="30" height="30" as="geometry">
            <mxRectangle width="30" height="30" as="alternateBounds" />
          </mxGeometry>
        </mxCell>
        <mxCell id="ExKup5xLBlTpcws5XFxN-303" value="startJobDate Date NOT NULL " style="shape=partialRectangle;overflow=hidden;connectable=0;fillColor=none;top=0;left=0;bottom=0;right=0;align=left;spacingLeft=6;rounded=1;sketch=1;curveFitting=1;jiggle=2;labelBackgroundColor=none;" parent="ExKup5xLBlTpcws5XFxN-301" vertex="1">
          <mxGeometry x="30" width="400" height="30" as="geometry">
            <mxRectangle width="400" height="30" as="alternateBounds" />
          </mxGeometry>
        </mxCell>
        <mxCell id="ExKup5xLBlTpcws5XFxN-304" value="" style="shape=partialRectangle;collapsible=0;dropTarget=0;pointerEvents=0;fillColor=none;points=[[0,0.5],[1,0.5]];portConstraint=eastwest;top=0;left=0;right=0;bottom=0;rounded=1;sketch=1;curveFitting=1;jiggle=2;labelBackgroundColor=none;" parent="ExKup5xLBlTpcws5XFxN-288" vertex="1">
          <mxGeometry y="170" width="430" height="30" as="geometry" />
        </mxCell>
        <mxCell id="ExKup5xLBlTpcws5XFxN-305" value="" style="shape=partialRectangle;overflow=hidden;connectable=0;fillColor=none;top=0;left=0;bottom=0;right=0;rounded=1;sketch=1;curveFitting=1;jiggle=2;labelBackgroundColor=none;" parent="ExKup5xLBlTpcws5XFxN-304" vertex="1">
          <mxGeometry width="30" height="30" as="geometry">
            <mxRectangle width="30" height="30" as="alternateBounds" />
          </mxGeometry>
        </mxCell>
        <mxCell id="ExKup5xLBlTpcws5XFxN-306" value="estimatedDuration int NULL  (** calculate in minutes **)" style="shape=partialRectangle;overflow=hidden;connectable=0;fillColor=none;top=0;left=0;bottom=0;right=0;align=left;spacingLeft=6;rounded=1;sketch=1;curveFitting=1;jiggle=2;labelBackgroundColor=none;" parent="ExKup5xLBlTpcws5XFxN-304" vertex="1">
          <mxGeometry x="30" width="400" height="30" as="geometry">
            <mxRectangle width="400" height="30" as="alternateBounds" />
          </mxGeometry>
        </mxCell>
        <mxCell id="ExKup5xLBlTpcws5XFxN-355" value="" style="shape=partialRectangle;collapsible=0;dropTarget=0;pointerEvents=0;fillColor=none;points=[[0,0.5],[1,0.5]];portConstraint=eastwest;top=0;left=0;right=0;bottom=0;rounded=1;sketch=1;curveFitting=1;jiggle=2;labelBackgroundColor=none;" parent="ExKup5xLBlTpcws5XFxN-288" vertex="1">
          <mxGeometry y="200" width="430" height="30" as="geometry" />
        </mxCell>
        <mxCell id="ExKup5xLBlTpcws5XFxN-356" value="" style="shape=partialRectangle;overflow=hidden;connectable=0;fillColor=none;top=0;left=0;bottom=0;right=0;rounded=1;sketch=1;curveFitting=1;jiggle=2;labelBackgroundColor=none;" parent="ExKup5xLBlTpcws5XFxN-355" vertex="1">
          <mxGeometry width="30" height="30" as="geometry">
            <mxRectangle width="30" height="30" as="alternateBounds" />
          </mxGeometry>
        </mxCell>
        <mxCell id="ExKup5xLBlTpcws5XFxN-357" value="price decimal  NULL " style="shape=partialRectangle;overflow=hidden;connectable=0;fillColor=none;top=0;left=0;bottom=0;right=0;align=left;spacingLeft=6;rounded=1;sketch=1;curveFitting=1;jiggle=2;labelBackgroundColor=none;" parent="ExKup5xLBlTpcws5XFxN-355" vertex="1">
          <mxGeometry x="30" width="400" height="30" as="geometry">
            <mxRectangle width="400" height="30" as="alternateBounds" />
          </mxGeometry>
        </mxCell>
        <mxCell id="ExKup5xLBlTpcws5XFxN-358" value="" style="shape=partialRectangle;collapsible=0;dropTarget=0;pointerEvents=0;fillColor=none;points=[[0,0.5],[1,0.5]];portConstraint=eastwest;top=0;left=0;right=0;bottom=0;rounded=1;sketch=1;curveFitting=1;jiggle=2;labelBackgroundColor=none;" parent="ExKup5xLBlTpcws5XFxN-288" vertex="1">
          <mxGeometry y="230" width="430" height="30" as="geometry" />
        </mxCell>
        <mxCell id="ExKup5xLBlTpcws5XFxN-359" value="" style="shape=partialRectangle;overflow=hidden;connectable=0;fillColor=none;top=0;left=0;bottom=0;right=0;rounded=1;sketch=1;curveFitting=1;jiggle=2;labelBackgroundColor=none;" parent="ExKup5xLBlTpcws5XFxN-358" vertex="1">
          <mxGeometry width="30" height="30" as="geometry">
            <mxRectangle width="30" height="30" as="alternateBounds" />
          </mxGeometry>
        </mxCell>
        <mxCell id="ExKup5xLBlTpcws5XFxN-360" value="stayAmount decimal  NULL " style="shape=partialRectangle;overflow=hidden;connectable=0;fillColor=none;top=0;left=0;bottom=0;right=0;align=left;spacingLeft=6;rounded=1;sketch=1;curveFitting=1;jiggle=2;labelBackgroundColor=none;" parent="ExKup5xLBlTpcws5XFxN-358" vertex="1">
          <mxGeometry x="30" width="400" height="30" as="geometry">
            <mxRectangle width="400" height="30" as="alternateBounds" />
          </mxGeometry>
        </mxCell>
        <mxCell id="ExKup5xLBlTpcws5XFxN-361" value="" style="shape=partialRectangle;collapsible=0;dropTarget=0;pointerEvents=0;fillColor=none;points=[[0,0.5],[1,0.5]];portConstraint=eastwest;top=0;left=0;right=0;bottom=0;rounded=1;sketch=1;curveFitting=1;jiggle=2;labelBackgroundColor=none;" parent="ExKup5xLBlTpcws5XFxN-288" vertex="1">
          <mxGeometry y="260" width="430" height="30" as="geometry" />
        </mxCell>
        <mxCell id="ExKup5xLBlTpcws5XFxN-362" value="" style="shape=partialRectangle;overflow=hidden;connectable=0;fillColor=none;top=0;left=0;bottom=0;right=0;rounded=1;sketch=1;curveFitting=1;jiggle=2;labelBackgroundColor=none;" parent="ExKup5xLBlTpcws5XFxN-361" vertex="1">
          <mxGeometry width="30" height="30" as="geometry">
            <mxRectangle width="30" height="30" as="alternateBounds" />
          </mxGeometry>
        </mxCell>
        <mxCell id="ExKup5xLBlTpcws5XFxN-363" value="travelAmount decimal  NULL " style="shape=partialRectangle;overflow=hidden;connectable=0;fillColor=none;top=0;left=0;bottom=0;right=0;align=left;spacingLeft=6;rounded=1;sketch=1;curveFitting=1;jiggle=2;labelBackgroundColor=none;" parent="ExKup5xLBlTpcws5XFxN-361" vertex="1">
          <mxGeometry x="30" width="400" height="30" as="geometry">
            <mxRectangle width="400" height="30" as="alternateBounds" />
          </mxGeometry>
        </mxCell>
        <mxCell id="ExKup5xLBlTpcws5XFxN-364" value="" style="shape=partialRectangle;collapsible=0;dropTarget=0;pointerEvents=0;fillColor=none;points=[[0,0.5],[1,0.5]];portConstraint=eastwest;top=0;left=0;right=0;bottom=0;rounded=1;sketch=1;curveFitting=1;jiggle=2;labelBackgroundColor=none;" parent="ExKup5xLBlTpcws5XFxN-288" vertex="1">
          <mxGeometry y="290" width="430" height="30" as="geometry" />
        </mxCell>
        <mxCell id="ExKup5xLBlTpcws5XFxN-365" value="" style="shape=partialRectangle;overflow=hidden;connectable=0;fillColor=none;top=0;left=0;bottom=0;right=0;rounded=1;sketch=1;curveFitting=1;jiggle=2;labelBackgroundColor=none;" parent="ExKup5xLBlTpcws5XFxN-364" vertex="1">
          <mxGeometry width="30" height="30" as="geometry">
            <mxRectangle width="30" height="30" as="alternateBounds" />
          </mxGeometry>
        </mxCell>
        <mxCell id="ExKup5xLBlTpcws5XFxN-366" value="foodAmount decimal  NULL " style="shape=partialRectangle;overflow=hidden;connectable=0;fillColor=none;top=0;left=0;bottom=0;right=0;align=left;spacingLeft=6;rounded=1;sketch=1;curveFitting=1;jiggle=2;labelBackgroundColor=none;" parent="ExKup5xLBlTpcws5XFxN-364" vertex="1">
          <mxGeometry x="30" width="400" height="30" as="geometry">
            <mxRectangle width="400" height="30" as="alternateBounds" />
          </mxGeometry>
        </mxCell>
        <mxCell id="ExKup5xLBlTpcws5XFxN-367" value="" style="shape=partialRectangle;collapsible=0;dropTarget=0;pointerEvents=0;fillColor=none;points=[[0,0.5],[1,0.5]];portConstraint=eastwest;top=0;left=0;right=0;bottom=0;rounded=1;sketch=1;curveFitting=1;jiggle=2;labelBackgroundColor=none;" parent="ExKup5xLBlTpcws5XFxN-288" vertex="1">
          <mxGeometry y="320" width="430" height="30" as="geometry" />
        </mxCell>
        <mxCell id="ExKup5xLBlTpcws5XFxN-368" value="FK1" style="shape=partialRectangle;overflow=hidden;connectable=0;fillColor=none;top=0;left=0;bottom=0;right=0;rounded=1;sketch=1;curveFitting=1;jiggle=2;labelBackgroundColor=none;" parent="ExKup5xLBlTpcws5XFxN-367" vertex="1">
          <mxGeometry width="30" height="30" as="geometry">
            <mxRectangle width="30" height="30" as="alternateBounds" />
          </mxGeometry>
        </mxCell>
        <mxCell id="ExKup5xLBlTpcws5XFxN-369" value="locationId int NOT NULL " style="shape=partialRectangle;overflow=hidden;connectable=0;fillColor=none;top=0;left=0;bottom=0;right=0;align=left;spacingLeft=6;rounded=1;sketch=1;curveFitting=1;jiggle=2;labelBackgroundColor=none;" parent="ExKup5xLBlTpcws5XFxN-367" vertex="1">
          <mxGeometry x="30" width="400" height="30" as="geometry">
            <mxRectangle width="400" height="30" as="alternateBounds" />
          </mxGeometry>
        </mxCell>
        <mxCell id="ExKup5xLBlTpcws5XFxN-370" value="" style="shape=partialRectangle;collapsible=0;dropTarget=0;pointerEvents=0;fillColor=none;points=[[0,0.5],[1,0.5]];portConstraint=eastwest;top=0;left=0;right=0;bottom=0;rounded=1;sketch=1;curveFitting=1;jiggle=2;labelBackgroundColor=none;" parent="ExKup5xLBlTpcws5XFxN-288" vertex="1">
          <mxGeometry y="350" width="430" height="30" as="geometry" />
        </mxCell>
        <mxCell id="ExKup5xLBlTpcws5XFxN-371" value="FK2" style="shape=partialRectangle;overflow=hidden;connectable=0;fillColor=none;top=0;left=0;bottom=0;right=0;rounded=1;sketch=1;curveFitting=1;jiggle=2;labelBackgroundColor=none;" parent="ExKup5xLBlTpcws5XFxN-370" vertex="1">
          <mxGeometry width="30" height="30" as="geometry">
            <mxRectangle width="30" height="30" as="alternateBounds" />
          </mxGeometry>
        </mxCell>
        <mxCell id="ExKup5xLBlTpcws5XFxN-372" value="farmerId int NOT NULL " style="shape=partialRectangle;overflow=hidden;connectable=0;fillColor=none;top=0;left=0;bottom=0;right=0;align=left;spacingLeft=6;rounded=1;sketch=1;curveFitting=1;jiggle=2;labelBackgroundColor=none;" parent="ExKup5xLBlTpcws5XFxN-370" vertex="1">
          <mxGeometry x="30" width="400" height="30" as="geometry">
            <mxRectangle width="400" height="30" as="alternateBounds" />
          </mxGeometry>
        </mxCell>
        <mxCell id="ExKup5xLBlTpcws5XFxN-373" value="" style="shape=partialRectangle;collapsible=0;dropTarget=0;pointerEvents=0;fillColor=none;points=[[0,0.5],[1,0.5]];portConstraint=eastwest;top=0;left=0;right=0;bottom=0;rounded=1;sketch=1;curveFitting=1;jiggle=2;labelBackgroundColor=none;" parent="ExKup5xLBlTpcws5XFxN-288" vertex="1">
          <mxGeometry y="380" width="430" height="30" as="geometry" />
        </mxCell>
        <mxCell id="ExKup5xLBlTpcws5XFxN-374" value="FK3" style="shape=partialRectangle;overflow=hidden;connectable=0;fillColor=none;top=0;left=0;bottom=0;right=0;rounded=1;sketch=1;curveFitting=1;jiggle=2;labelBackgroundColor=none;" parent="ExKup5xLBlTpcws5XFxN-373" vertex="1">
          <mxGeometry width="30" height="30" as="geometry">
            <mxRectangle width="30" height="30" as="alternateBounds" />
          </mxGeometry>
        </mxCell>
        <mxCell id="ExKup5xLBlTpcws5XFxN-375" value="cultivationId int NULL " style="shape=partialRectangle;overflow=hidden;connectable=0;fillColor=none;top=0;left=0;bottom=0;right=0;align=left;spacingLeft=6;rounded=1;sketch=1;curveFitting=1;jiggle=2;labelBackgroundColor=none;" parent="ExKup5xLBlTpcws5XFxN-373" vertex="1">
          <mxGeometry x="30" width="400" height="30" as="geometry">
            <mxRectangle width="400" height="30" as="alternateBounds" />
          </mxGeometry>
        </mxCell>
        <mxCell id="ExKup5xLBlTpcws5XFxN-379" value="Cultivation" style="shape=table;startSize=24;container=1;collapsible=1;childLayout=tableLayout;fixedRows=1;rowLines=0;fontStyle=1;align=center;resizeLast=1;rounded=1;shadow=0;sketch=1;curveFitting=1;jiggle=2;labelBackgroundColor=none;" parent="1" vertex="1">
          <mxGeometry x="-1210" y="-570" width="430" height="140" as="geometry">
            <mxRectangle x="471" y="106" width="70" height="30" as="alternateBounds" />
          </mxGeometry>
        </mxCell>
        <mxCell id="ExKup5xLBlTpcws5XFxN-380" value="" style="shape=partialRectangle;collapsible=0;dropTarget=0;pointerEvents=0;fillColor=none;points=[[0,0.5],[1,0.5]];portConstraint=eastwest;top=0;left=0;right=0;bottom=1;rounded=1;sketch=1;curveFitting=1;jiggle=2;labelBackgroundColor=none;" parent="ExKup5xLBlTpcws5XFxN-379" vertex="1">
          <mxGeometry y="24" width="430" height="30" as="geometry" />
        </mxCell>
        <mxCell id="ExKup5xLBlTpcws5XFxN-381" value="PK" style="shape=partialRectangle;overflow=hidden;connectable=0;fillColor=none;top=0;left=0;bottom=0;right=0;fontStyle=1;rounded=1;sketch=1;curveFitting=1;jiggle=2;labelBackgroundColor=none;" parent="ExKup5xLBlTpcws5XFxN-380" vertex="1">
          <mxGeometry width="30" height="30" as="geometry">
            <mxRectangle width="30" height="30" as="alternateBounds" />
          </mxGeometry>
        </mxCell>
        <mxCell id="ExKup5xLBlTpcws5XFxN-382" value="id int NOT NULL AUTO_INCREMENT" style="shape=partialRectangle;overflow=hidden;connectable=0;fillColor=none;top=0;left=0;bottom=0;right=0;align=left;spacingLeft=6;fontStyle=5;rounded=1;sketch=1;curveFitting=1;jiggle=2;labelBackgroundColor=none;" parent="ExKup5xLBlTpcws5XFxN-380" vertex="1">
          <mxGeometry x="30" width="400" height="30" as="geometry">
            <mxRectangle width="400" height="30" as="alternateBounds" />
          </mxGeometry>
        </mxCell>
        <mxCell id="ExKup5xLBlTpcws5XFxN-383" value="" style="shape=partialRectangle;collapsible=0;dropTarget=0;pointerEvents=0;fillColor=none;points=[[0,0.5],[1,0.5]];portConstraint=eastwest;top=0;left=0;right=0;bottom=0;rounded=1;sketch=1;curveFitting=1;jiggle=2;labelBackgroundColor=none;" parent="ExKup5xLBlTpcws5XFxN-379" vertex="1">
          <mxGeometry y="54" width="430" height="30" as="geometry" />
        </mxCell>
        <mxCell id="ExKup5xLBlTpcws5XFxN-384" value="" style="shape=partialRectangle;overflow=hidden;connectable=0;fillColor=none;top=0;left=0;bottom=0;right=0;rounded=1;sketch=1;curveFitting=1;jiggle=2;labelBackgroundColor=none;" parent="ExKup5xLBlTpcws5XFxN-383" vertex="1">
          <mxGeometry width="30" height="30" as="geometry">
            <mxRectangle width="30" height="30" as="alternateBounds" />
          </mxGeometry>
        </mxCell>
        <mxCell id="ExKup5xLBlTpcws5XFxN-385" value="insertDate timestamp Current_timestamp NOT NULL" style="shape=partialRectangle;overflow=hidden;connectable=0;fillColor=none;top=0;left=0;bottom=0;right=0;align=left;spacingLeft=6;rounded=1;sketch=1;curveFitting=1;jiggle=2;labelBackgroundColor=none;" parent="ExKup5xLBlTpcws5XFxN-383" vertex="1">
          <mxGeometry x="30" width="400" height="30" as="geometry">
            <mxRectangle width="400" height="30" as="alternateBounds" />
          </mxGeometry>
        </mxCell>
        <mxCell id="ExKup5xLBlTpcws5XFxN-386" value="" style="shape=partialRectangle;collapsible=0;dropTarget=0;pointerEvents=0;fillColor=none;points=[[0,0.5],[1,0.5]];portConstraint=eastwest;top=0;left=0;right=0;bottom=0;rounded=1;sketch=1;curveFitting=1;jiggle=2;labelBackgroundColor=none;" parent="ExKup5xLBlTpcws5XFxN-379" vertex="1">
          <mxGeometry y="84" width="430" height="26" as="geometry" />
        </mxCell>
        <mxCell id="ExKup5xLBlTpcws5XFxN-387" value="" style="shape=partialRectangle;overflow=hidden;connectable=0;fillColor=none;top=0;left=0;bottom=0;right=0;rounded=1;sketch=1;curveFitting=1;jiggle=2;labelBackgroundColor=none;" parent="ExKup5xLBlTpcws5XFxN-386" vertex="1">
          <mxGeometry width="30" height="26" as="geometry">
            <mxRectangle width="30" height="26" as="alternateBounds" />
          </mxGeometry>
        </mxCell>
        <mxCell id="ExKup5xLBlTpcws5XFxN-388" value="updateDate timestamp OnUpdate Current_timestamp NOT NULL" style="shape=partialRectangle;overflow=hidden;connectable=0;fillColor=none;top=0;left=0;bottom=0;right=0;align=left;spacingLeft=6;rounded=1;sketch=1;curveFitting=1;jiggle=2;labelBackgroundColor=none;" parent="ExKup5xLBlTpcws5XFxN-386" vertex="1">
          <mxGeometry x="30" width="400" height="26" as="geometry">
            <mxRectangle width="400" height="26" as="alternateBounds" />
          </mxGeometry>
        </mxCell>
        <mxCell id="ExKup5xLBlTpcws5XFxN-389" value="" style="shape=partialRectangle;collapsible=0;dropTarget=0;pointerEvents=0;fillColor=none;points=[[0,0.5],[1,0.5]];portConstraint=eastwest;top=0;left=0;right=0;bottom=0;rounded=1;sketch=1;curveFitting=1;jiggle=2;labelBackgroundColor=none;" parent="ExKup5xLBlTpcws5XFxN-379" vertex="1">
          <mxGeometry y="110" width="430" height="30" as="geometry" />
        </mxCell>
        <mxCell id="ExKup5xLBlTpcws5XFxN-390" value="" style="shape=partialRectangle;overflow=hidden;connectable=0;fillColor=none;top=0;left=0;bottom=0;right=0;rounded=1;sketch=1;curveFitting=1;jiggle=2;labelBackgroundColor=none;" parent="ExKup5xLBlTpcws5XFxN-389" vertex="1">
          <mxGeometry width="30" height="30" as="geometry">
            <mxRectangle width="30" height="30" as="alternateBounds" />
          </mxGeometry>
        </mxCell>
        <mxCell id="ExKup5xLBlTpcws5XFxN-391" value="name varchar(255) NOT NULL" style="shape=partialRectangle;overflow=hidden;connectable=0;fillColor=none;top=0;left=0;bottom=0;right=0;align=left;spacingLeft=6;rounded=1;sketch=1;curveFitting=1;jiggle=2;labelBackgroundColor=none;" parent="ExKup5xLBlTpcws5XFxN-389" vertex="1">
          <mxGeometry x="30" width="400" height="30" as="geometry">
            <mxRectangle width="400" height="30" as="alternateBounds" />
          </mxGeometry>
        </mxCell>
        <mxCell id="ExKup5xLBlTpcws5XFxN-413" value="" style="edgeStyle=elbowEdgeStyle;fontSize=12;html=1;endArrow=ERoneToMany;rounded=1;sketch=1;hachureGap=4;jiggle=2;curveFitting=1;fontFamily=Architects Daughter;fontSource=https%3A%2F%2Ffonts.googleapis.com%2Fcss%3Ffamily%3DArchitects%2BDaughter;entryX=1;entryY=0.5;entryDx=0;entryDy=0;" parent="1" target="ExKup5xLBlTpcws5XFxN-367" edge="1">
          <mxGeometry width="100" height="100" relative="1" as="geometry">
            <mxPoint y="-280" as="sourcePoint" />
            <mxPoint x="-100" y="-180" as="targetPoint" />
          </mxGeometry>
        </mxCell>
        <mxCell id="ExKup5xLBlTpcws5XFxN-377" value="" style="edgeStyle=orthogonalEdgeStyle;fontSize=12;html=1;endArrow=ERoneToMany;rounded=1;sketch=1;hachureGap=4;jiggle=2;curveFitting=1;fontFamily=Architects Daughter;fontSource=https%3A%2F%2Ffonts.googleapis.com%2Fcss%3Ffamily%3DArchitects%2BDaughter;fontColor=default;labelBackgroundColor=none;curved=1;exitX=0;exitY=0.5;exitDx=0;exitDy=0;entryX=0;entryY=0.5;entryDx=0;entryDy=0;" parent="1" source="ExKup5xLBlTpcws5XFxN-45" target="ExKup5xLBlTpcws5XFxN-370" edge="1">
          <mxGeometry width="100" height="100" relative="1" as="geometry">
            <mxPoint x="-790" y="160" as="sourcePoint" />
            <mxPoint x="-690" y="60" as="targetPoint" />
            <Array as="points">
              <mxPoint x="-670" y="269" />
              <mxPoint x="-670" y="-205" />
            </Array>
          </mxGeometry>
        </mxCell>
        <mxCell id="ExKup5xLBlTpcws5XFxN-417" value="" style="edgeStyle=entityRelationEdgeStyle;fontSize=12;html=1;endArrow=ERoneToMany;rounded=1;sketch=1;hachureGap=4;jiggle=2;curveFitting=1;fontFamily=Architects Daughter;fontSource=https%3A%2F%2Ffonts.googleapis.com%2Fcss%3Ffamily%3DArchitects%2BDaughter;entryX=0;entryY=0.5;entryDx=0;entryDy=0;" parent="1" target="ExKup5xLBlTpcws5XFxN-373" edge="1">
          <mxGeometry width="100" height="100" relative="1" as="geometry">
            <mxPoint x="-780" y="-480" as="sourcePoint" />
            <mxPoint x="-680" y="-570" as="targetPoint" />
          </mxGeometry>
        </mxCell>
        <mxCell id="ExKup5xLBlTpcws5XFxN-418" value="EmployeeRequest" style="shape=table;startSize=24;container=1;collapsible=1;childLayout=tableLayout;fixedRows=1;rowLines=0;fontStyle=1;align=center;resizeLast=1;rounded=1;shadow=0;sketch=1;curveFitting=1;jiggle=2;labelBackgroundColor=none;" parent="1" vertex="1">
          <mxGeometry x="80" y="-820" width="460" height="290" as="geometry">
            <mxRectangle x="471" y="106" width="70" height="30" as="alternateBounds" />
          </mxGeometry>
        </mxCell>
        <mxCell id="ExKup5xLBlTpcws5XFxN-419" value="" style="shape=partialRectangle;collapsible=0;dropTarget=0;pointerEvents=0;fillColor=none;points=[[0,0.5],[1,0.5]];portConstraint=eastwest;top=0;left=0;right=0;bottom=1;rounded=1;sketch=1;curveFitting=1;jiggle=2;labelBackgroundColor=none;" parent="ExKup5xLBlTpcws5XFxN-418" vertex="1">
          <mxGeometry y="24" width="460" height="30" as="geometry" />
        </mxCell>
        <mxCell id="ExKup5xLBlTpcws5XFxN-420" value="PK" style="shape=partialRectangle;overflow=hidden;connectable=0;fillColor=none;top=0;left=0;bottom=0;right=0;fontStyle=1;rounded=1;sketch=1;curveFitting=1;jiggle=2;labelBackgroundColor=none;" parent="ExKup5xLBlTpcws5XFxN-419" vertex="1">
          <mxGeometry width="30" height="30" as="geometry">
            <mxRectangle width="30" height="30" as="alternateBounds" />
          </mxGeometry>
        </mxCell>
        <mxCell id="ExKup5xLBlTpcws5XFxN-421" value="id int NOT NULL AUTO_INCREMENT" style="shape=partialRectangle;overflow=hidden;connectable=0;fillColor=none;top=0;left=0;bottom=0;right=0;align=left;spacingLeft=6;fontStyle=5;rounded=1;sketch=1;curveFitting=1;jiggle=2;labelBackgroundColor=none;" parent="ExKup5xLBlTpcws5XFxN-419" vertex="1">
          <mxGeometry x="30" width="430" height="30" as="geometry">
            <mxRectangle width="430" height="30" as="alternateBounds" />
          </mxGeometry>
        </mxCell>
        <mxCell id="ExKup5xLBlTpcws5XFxN-422" value="" style="shape=partialRectangle;collapsible=0;dropTarget=0;pointerEvents=0;fillColor=none;points=[[0,0.5],[1,0.5]];portConstraint=eastwest;top=0;left=0;right=0;bottom=0;rounded=1;sketch=1;curveFitting=1;jiggle=2;labelBackgroundColor=none;" parent="ExKup5xLBlTpcws5XFxN-418" vertex="1">
          <mxGeometry y="54" width="460" height="30" as="geometry" />
        </mxCell>
        <mxCell id="ExKup5xLBlTpcws5XFxN-423" value="" style="shape=partialRectangle;overflow=hidden;connectable=0;fillColor=none;top=0;left=0;bottom=0;right=0;rounded=1;sketch=1;curveFitting=1;jiggle=2;labelBackgroundColor=none;" parent="ExKup5xLBlTpcws5XFxN-422" vertex="1">
          <mxGeometry width="30" height="30" as="geometry">
            <mxRectangle width="30" height="30" as="alternateBounds" />
          </mxGeometry>
        </mxCell>
        <mxCell id="ExKup5xLBlTpcws5XFxN-424" value="insertDate timestamp Current_timestamp NOT NULL" style="shape=partialRectangle;overflow=hidden;connectable=0;fillColor=none;top=0;left=0;bottom=0;right=0;align=left;spacingLeft=6;rounded=1;sketch=1;curveFitting=1;jiggle=2;labelBackgroundColor=none;" parent="ExKup5xLBlTpcws5XFxN-422" vertex="1">
          <mxGeometry x="30" width="430" height="30" as="geometry">
            <mxRectangle width="430" height="30" as="alternateBounds" />
          </mxGeometry>
        </mxCell>
        <mxCell id="ExKup5xLBlTpcws5XFxN-425" value="" style="shape=partialRectangle;collapsible=0;dropTarget=0;pointerEvents=0;fillColor=none;points=[[0,0.5],[1,0.5]];portConstraint=eastwest;top=0;left=0;right=0;bottom=0;rounded=1;sketch=1;curveFitting=1;jiggle=2;labelBackgroundColor=none;" parent="ExKup5xLBlTpcws5XFxN-418" vertex="1">
          <mxGeometry y="84" width="460" height="26" as="geometry" />
        </mxCell>
        <mxCell id="ExKup5xLBlTpcws5XFxN-426" value="" style="shape=partialRectangle;overflow=hidden;connectable=0;fillColor=none;top=0;left=0;bottom=0;right=0;rounded=1;sketch=1;curveFitting=1;jiggle=2;labelBackgroundColor=none;" parent="ExKup5xLBlTpcws5XFxN-425" vertex="1">
          <mxGeometry width="30" height="26" as="geometry">
            <mxRectangle width="30" height="26" as="alternateBounds" />
          </mxGeometry>
        </mxCell>
        <mxCell id="ExKup5xLBlTpcws5XFxN-427" value="updateDate timestamp OnUpdate Current_timestamp NOT NULL" style="shape=partialRectangle;overflow=hidden;connectable=0;fillColor=none;top=0;left=0;bottom=0;right=0;align=left;spacingLeft=6;rounded=1;sketch=1;curveFitting=1;jiggle=2;labelBackgroundColor=none;" parent="ExKup5xLBlTpcws5XFxN-425" vertex="1">
          <mxGeometry x="30" width="430" height="26" as="geometry">
            <mxRectangle width="430" height="26" as="alternateBounds" />
          </mxGeometry>
        </mxCell>
        <mxCell id="ExKup5xLBlTpcws5XFxN-443" value="" style="shape=partialRectangle;collapsible=0;dropTarget=0;pointerEvents=0;fillColor=none;points=[[0,0.5],[1,0.5]];portConstraint=eastwest;top=0;left=0;right=0;bottom=0;rounded=1;sketch=1;curveFitting=1;jiggle=2;labelBackgroundColor=none;" parent="ExKup5xLBlTpcws5XFxN-418" vertex="1">
          <mxGeometry y="110" width="460" height="30" as="geometry" />
        </mxCell>
        <mxCell id="ExKup5xLBlTpcws5XFxN-444" value="" style="shape=partialRectangle;overflow=hidden;connectable=0;fillColor=none;top=0;left=0;bottom=0;right=0;rounded=1;sketch=1;curveFitting=1;jiggle=2;labelBackgroundColor=none;" parent="ExKup5xLBlTpcws5XFxN-443" vertex="1">
          <mxGeometry width="30" height="30" as="geometry">
            <mxRectangle width="30" height="30" as="alternateBounds" />
          </mxGeometry>
        </mxCell>
        <mxCell id="ExKup5xLBlTpcws5XFxN-445" value="messageSent boolean NOT NULL DEFAULT FALSE" style="shape=partialRectangle;overflow=hidden;connectable=0;fillColor=none;top=0;left=0;bottom=0;right=0;align=left;spacingLeft=6;rounded=1;sketch=1;curveFitting=1;jiggle=2;labelBackgroundColor=none;" parent="ExKup5xLBlTpcws5XFxN-443" vertex="1">
          <mxGeometry x="30" width="430" height="30" as="geometry">
            <mxRectangle width="430" height="30" as="alternateBounds" />
          </mxGeometry>
        </mxCell>
        <mxCell id="ExKup5xLBlTpcws5XFxN-467" value="" style="shape=partialRectangle;collapsible=0;dropTarget=0;pointerEvents=0;fillColor=none;points=[[0,0.5],[1,0.5]];portConstraint=eastwest;top=0;left=0;right=0;bottom=0;rounded=1;sketch=1;curveFitting=1;jiggle=2;labelBackgroundColor=none;" parent="ExKup5xLBlTpcws5XFxN-418" vertex="1">
          <mxGeometry y="140" width="460" height="30" as="geometry" />
        </mxCell>
        <mxCell id="ExKup5xLBlTpcws5XFxN-468" value="" style="shape=partialRectangle;overflow=hidden;connectable=0;fillColor=none;top=0;left=0;bottom=0;right=0;rounded=1;sketch=1;curveFitting=1;jiggle=2;labelBackgroundColor=none;" parent="ExKup5xLBlTpcws5XFxN-467" vertex="1">
          <mxGeometry width="30" height="30" as="geometry">
            <mxRectangle width="30" height="30" as="alternateBounds" />
          </mxGeometry>
        </mxCell>
        <mxCell id="ExKup5xLBlTpcws5XFxN-469" value="paymentStatus ENUM NOT NULL&#xa;(pendingPayment, processing, onHold, completed, canceled, refunded,failed)" style="shape=partialRectangle;overflow=hidden;connectable=0;fillColor=none;top=0;left=0;bottom=0;right=0;align=left;spacingLeft=6;rounded=1;sketch=1;curveFitting=1;jiggle=2;labelBackgroundColor=none;" parent="ExKup5xLBlTpcws5XFxN-467" vertex="1">
          <mxGeometry x="30" width="430" height="30" as="geometry">
            <mxRectangle width="430" height="30" as="alternateBounds" />
          </mxGeometry>
        </mxCell>
        <mxCell id="ExKup5xLBlTpcws5XFxN-470" value="" style="shape=partialRectangle;collapsible=0;dropTarget=0;pointerEvents=0;fillColor=none;points=[[0,0.5],[1,0.5]];portConstraint=eastwest;top=0;left=0;right=0;bottom=0;rounded=1;sketch=1;curveFitting=1;jiggle=2;labelBackgroundColor=none;" parent="ExKup5xLBlTpcws5XFxN-418" vertex="1">
          <mxGeometry y="170" width="460" height="30" as="geometry" />
        </mxCell>
        <mxCell id="ExKup5xLBlTpcws5XFxN-471" value="" style="shape=partialRectangle;overflow=hidden;connectable=0;fillColor=none;top=0;left=0;bottom=0;right=0;rounded=1;sketch=1;curveFitting=1;jiggle=2;labelBackgroundColor=none;" parent="ExKup5xLBlTpcws5XFxN-470" vertex="1">
          <mxGeometry width="30" height="30" as="geometry">
            <mxRectangle width="30" height="30" as="alternateBounds" />
          </mxGeometry>
        </mxCell>
        <mxCell id="ExKup5xLBlTpcws5XFxN-472" value="paymentMethod ENUM NOT NULL &#xa;(bankTransfer, paypal, ebanking)" style="shape=partialRectangle;overflow=hidden;connectable=0;fillColor=none;top=0;left=0;bottom=0;right=0;align=left;spacingLeft=6;rounded=1;sketch=1;curveFitting=1;jiggle=2;labelBackgroundColor=none;" parent="ExKup5xLBlTpcws5XFxN-470" vertex="1">
          <mxGeometry x="30" width="430" height="30" as="geometry">
            <mxRectangle width="430" height="30" as="alternateBounds" />
          </mxGeometry>
        </mxCell>
        <mxCell id="ExKup5xLBlTpcws5XFxN-446" value="" style="shape=partialRectangle;collapsible=0;dropTarget=0;pointerEvents=0;fillColor=none;points=[[0,0.5],[1,0.5]];portConstraint=eastwest;top=0;left=0;right=0;bottom=0;rounded=1;sketch=1;curveFitting=1;jiggle=2;labelBackgroundColor=none;" parent="ExKup5xLBlTpcws5XFxN-418" vertex="1">
          <mxGeometry y="200" width="460" height="30" as="geometry" />
        </mxCell>
        <mxCell id="ExKup5xLBlTpcws5XFxN-447" value="FK1" style="shape=partialRectangle;overflow=hidden;connectable=0;fillColor=none;top=0;left=0;bottom=0;right=0;rounded=1;sketch=1;curveFitting=1;jiggle=2;labelBackgroundColor=none;" parent="ExKup5xLBlTpcws5XFxN-446" vertex="1">
          <mxGeometry width="30" height="30" as="geometry">
            <mxRectangle width="30" height="30" as="alternateBounds" />
          </mxGeometry>
        </mxCell>
        <mxCell id="ExKup5xLBlTpcws5XFxN-448" value="employeeId int NOT NULL" style="shape=partialRectangle;overflow=hidden;connectable=0;fillColor=none;top=0;left=0;bottom=0;right=0;align=left;spacingLeft=6;rounded=1;sketch=1;curveFitting=1;jiggle=2;labelBackgroundColor=none;" parent="ExKup5xLBlTpcws5XFxN-446" vertex="1">
          <mxGeometry x="30" width="430" height="30" as="geometry">
            <mxRectangle width="430" height="30" as="alternateBounds" />
          </mxGeometry>
        </mxCell>
        <mxCell id="ExKup5xLBlTpcws5XFxN-449" value="" style="shape=partialRectangle;collapsible=0;dropTarget=0;pointerEvents=0;fillColor=none;points=[[0,0.5],[1,0.5]];portConstraint=eastwest;top=0;left=0;right=0;bottom=0;rounded=1;sketch=1;curveFitting=1;jiggle=2;labelBackgroundColor=none;" parent="ExKup5xLBlTpcws5XFxN-418" vertex="1">
          <mxGeometry y="230" width="460" height="30" as="geometry" />
        </mxCell>
        <mxCell id="ExKup5xLBlTpcws5XFxN-450" value="FK2" style="shape=partialRectangle;overflow=hidden;connectable=0;fillColor=none;top=0;left=0;bottom=0;right=0;rounded=1;sketch=1;curveFitting=1;jiggle=2;labelBackgroundColor=none;" parent="ExKup5xLBlTpcws5XFxN-449" vertex="1">
          <mxGeometry width="30" height="30" as="geometry">
            <mxRectangle width="30" height="30" as="alternateBounds" />
          </mxGeometry>
        </mxCell>
        <mxCell id="ExKup5xLBlTpcws5XFxN-451" value="requestId int NOT NULL" style="shape=partialRectangle;overflow=hidden;connectable=0;fillColor=none;top=0;left=0;bottom=0;right=0;align=left;spacingLeft=6;rounded=1;sketch=1;curveFitting=1;jiggle=2;labelBackgroundColor=none;" parent="ExKup5xLBlTpcws5XFxN-449" vertex="1">
          <mxGeometry x="30" width="430" height="30" as="geometry">
            <mxRectangle width="430" height="30" as="alternateBounds" />
          </mxGeometry>
        </mxCell>
        <mxCell id="ExKup5xLBlTpcws5XFxN-473" value="" style="shape=partialRectangle;collapsible=0;dropTarget=0;pointerEvents=0;fillColor=none;points=[[0,0.5],[1,0.5]];portConstraint=eastwest;top=0;left=0;right=0;bottom=0;rounded=1;sketch=1;curveFitting=1;jiggle=2;labelBackgroundColor=none;" parent="ExKup5xLBlTpcws5XFxN-418" vertex="1">
          <mxGeometry y="260" width="460" height="30" as="geometry" />
        </mxCell>
        <mxCell id="ExKup5xLBlTpcws5XFxN-474" value="FK3" style="shape=partialRectangle;overflow=hidden;connectable=0;fillColor=none;top=0;left=0;bottom=0;right=0;rounded=1;sketch=1;curveFitting=1;jiggle=2;labelBackgroundColor=none;" parent="ExKup5xLBlTpcws5XFxN-473" vertex="1">
          <mxGeometry width="30" height="30" as="geometry">
            <mxRectangle width="30" height="30" as="alternateBounds" />
          </mxGeometry>
        </mxCell>
        <mxCell id="ExKup5xLBlTpcws5XFxN-475" value="packageId int NOT NULL" style="shape=partialRectangle;overflow=hidden;connectable=0;fillColor=none;top=0;left=0;bottom=0;right=0;align=left;spacingLeft=6;rounded=1;sketch=1;curveFitting=1;jiggle=2;labelBackgroundColor=none;" parent="ExKup5xLBlTpcws5XFxN-473" vertex="1">
          <mxGeometry x="30" width="430" height="30" as="geometry">
            <mxRectangle width="430" height="30" as="alternateBounds" />
          </mxGeometry>
        </mxCell>
        <mxCell id="ExKup5xLBlTpcws5XFxN-476" value="Package" style="shape=table;startSize=24;container=1;collapsible=1;childLayout=tableLayout;fixedRows=1;rowLines=0;fontStyle=1;align=center;resizeLast=1;rounded=1;shadow=0;sketch=1;curveFitting=1;jiggle=2;labelBackgroundColor=none;" parent="1" vertex="1">
          <mxGeometry x="-570" y="-1000" width="430" height="230" as="geometry">
            <mxRectangle x="471" y="106" width="70" height="30" as="alternateBounds" />
          </mxGeometry>
        </mxCell>
        <mxCell id="ExKup5xLBlTpcws5XFxN-477" value="" style="shape=partialRectangle;collapsible=0;dropTarget=0;pointerEvents=0;fillColor=none;points=[[0,0.5],[1,0.5]];portConstraint=eastwest;top=0;left=0;right=0;bottom=1;rounded=1;sketch=1;curveFitting=1;jiggle=2;labelBackgroundColor=none;" parent="ExKup5xLBlTpcws5XFxN-476" vertex="1">
          <mxGeometry y="24" width="430" height="30" as="geometry" />
        </mxCell>
        <mxCell id="ExKup5xLBlTpcws5XFxN-478" value="PK" style="shape=partialRectangle;overflow=hidden;connectable=0;fillColor=none;top=0;left=0;bottom=0;right=0;fontStyle=1;rounded=1;sketch=1;curveFitting=1;jiggle=2;labelBackgroundColor=none;" parent="ExKup5xLBlTpcws5XFxN-477" vertex="1">
          <mxGeometry width="30" height="30" as="geometry">
            <mxRectangle width="30" height="30" as="alternateBounds" />
          </mxGeometry>
        </mxCell>
        <mxCell id="ExKup5xLBlTpcws5XFxN-479" value="id int NOT NULL AUTO_INCREMENT" style="shape=partialRectangle;overflow=hidden;connectable=0;fillColor=none;top=0;left=0;bottom=0;right=0;align=left;spacingLeft=6;fontStyle=5;rounded=1;sketch=1;curveFitting=1;jiggle=2;labelBackgroundColor=none;" parent="ExKup5xLBlTpcws5XFxN-477" vertex="1">
          <mxGeometry x="30" width="400" height="30" as="geometry">
            <mxRectangle width="400" height="30" as="alternateBounds" />
          </mxGeometry>
        </mxCell>
        <mxCell id="ExKup5xLBlTpcws5XFxN-480" value="" style="shape=partialRectangle;collapsible=0;dropTarget=0;pointerEvents=0;fillColor=none;points=[[0,0.5],[1,0.5]];portConstraint=eastwest;top=0;left=0;right=0;bottom=0;rounded=1;sketch=1;curveFitting=1;jiggle=2;labelBackgroundColor=none;" parent="ExKup5xLBlTpcws5XFxN-476" vertex="1">
          <mxGeometry y="54" width="430" height="30" as="geometry" />
        </mxCell>
        <mxCell id="ExKup5xLBlTpcws5XFxN-481" value="" style="shape=partialRectangle;overflow=hidden;connectable=0;fillColor=none;top=0;left=0;bottom=0;right=0;rounded=1;sketch=1;curveFitting=1;jiggle=2;labelBackgroundColor=none;" parent="ExKup5xLBlTpcws5XFxN-480" vertex="1">
          <mxGeometry width="30" height="30" as="geometry">
            <mxRectangle width="30" height="30" as="alternateBounds" />
          </mxGeometry>
        </mxCell>
        <mxCell id="ExKup5xLBlTpcws5XFxN-482" value="insertDate timestamp Current_timestamp NOT NULL" style="shape=partialRectangle;overflow=hidden;connectable=0;fillColor=none;top=0;left=0;bottom=0;right=0;align=left;spacingLeft=6;rounded=1;sketch=1;curveFitting=1;jiggle=2;labelBackgroundColor=none;" parent="ExKup5xLBlTpcws5XFxN-480" vertex="1">
          <mxGeometry x="30" width="400" height="30" as="geometry">
            <mxRectangle width="400" height="30" as="alternateBounds" />
          </mxGeometry>
        </mxCell>
        <mxCell id="ExKup5xLBlTpcws5XFxN-483" value="" style="shape=partialRectangle;collapsible=0;dropTarget=0;pointerEvents=0;fillColor=none;points=[[0,0.5],[1,0.5]];portConstraint=eastwest;top=0;left=0;right=0;bottom=0;rounded=1;sketch=1;curveFitting=1;jiggle=2;labelBackgroundColor=none;" parent="ExKup5xLBlTpcws5XFxN-476" vertex="1">
          <mxGeometry y="84" width="430" height="26" as="geometry" />
        </mxCell>
        <mxCell id="ExKup5xLBlTpcws5XFxN-484" value="" style="shape=partialRectangle;overflow=hidden;connectable=0;fillColor=none;top=0;left=0;bottom=0;right=0;rounded=1;sketch=1;curveFitting=1;jiggle=2;labelBackgroundColor=none;" parent="ExKup5xLBlTpcws5XFxN-483" vertex="1">
          <mxGeometry width="30" height="26" as="geometry">
            <mxRectangle width="30" height="26" as="alternateBounds" />
          </mxGeometry>
        </mxCell>
        <mxCell id="ExKup5xLBlTpcws5XFxN-485" value="updateDate timestamp OnUpdate Current_timestamp NOT NULL" style="shape=partialRectangle;overflow=hidden;connectable=0;fillColor=none;top=0;left=0;bottom=0;right=0;align=left;spacingLeft=6;rounded=1;sketch=1;curveFitting=1;jiggle=2;labelBackgroundColor=none;" parent="ExKup5xLBlTpcws5XFxN-483" vertex="1">
          <mxGeometry x="30" width="400" height="26" as="geometry">
            <mxRectangle width="400" height="26" as="alternateBounds" />
          </mxGeometry>
        </mxCell>
        <mxCell id="ExKup5xLBlTpcws5XFxN-486" value="" style="shape=partialRectangle;collapsible=0;dropTarget=0;pointerEvents=0;fillColor=none;points=[[0,0.5],[1,0.5]];portConstraint=eastwest;top=0;left=0;right=0;bottom=0;rounded=1;sketch=1;curveFitting=1;jiggle=2;labelBackgroundColor=none;" parent="ExKup5xLBlTpcws5XFxN-476" vertex="1">
          <mxGeometry y="110" width="430" height="30" as="geometry" />
        </mxCell>
        <mxCell id="ExKup5xLBlTpcws5XFxN-487" value="" style="shape=partialRectangle;overflow=hidden;connectable=0;fillColor=none;top=0;left=0;bottom=0;right=0;rounded=1;sketch=1;curveFitting=1;jiggle=2;labelBackgroundColor=none;" parent="ExKup5xLBlTpcws5XFxN-486" vertex="1">
          <mxGeometry width="30" height="30" as="geometry">
            <mxRectangle width="30" height="30" as="alternateBounds" />
          </mxGeometry>
        </mxCell>
        <mxCell id="ExKup5xLBlTpcws5XFxN-488" value="name varchar(255)  NOT NULL" style="shape=partialRectangle;overflow=hidden;connectable=0;fillColor=none;top=0;left=0;bottom=0;right=0;align=left;spacingLeft=6;rounded=1;sketch=1;curveFitting=1;jiggle=2;labelBackgroundColor=none;" parent="ExKup5xLBlTpcws5XFxN-486" vertex="1">
          <mxGeometry x="30" width="400" height="30" as="geometry">
            <mxRectangle width="400" height="30" as="alternateBounds" />
          </mxGeometry>
        </mxCell>
        <mxCell id="ExKup5xLBlTpcws5XFxN-489" value="" style="shape=partialRectangle;collapsible=0;dropTarget=0;pointerEvents=0;fillColor=none;points=[[0,0.5],[1,0.5]];portConstraint=eastwest;top=0;left=0;right=0;bottom=0;rounded=1;sketch=1;curveFitting=1;jiggle=2;labelBackgroundColor=none;" parent="ExKup5xLBlTpcws5XFxN-476" vertex="1">
          <mxGeometry y="140" width="430" height="30" as="geometry" />
        </mxCell>
        <mxCell id="ExKup5xLBlTpcws5XFxN-490" value="" style="shape=partialRectangle;overflow=hidden;connectable=0;fillColor=none;top=0;left=0;bottom=0;right=0;rounded=1;sketch=1;curveFitting=1;jiggle=2;labelBackgroundColor=none;" parent="ExKup5xLBlTpcws5XFxN-489" vertex="1">
          <mxGeometry width="30" height="30" as="geometry">
            <mxRectangle width="30" height="30" as="alternateBounds" />
          </mxGeometry>
        </mxCell>
        <mxCell id="ExKup5xLBlTpcws5XFxN-491" value="price decimal NOT NULL" style="shape=partialRectangle;overflow=hidden;connectable=0;fillColor=none;top=0;left=0;bottom=0;right=0;align=left;spacingLeft=6;rounded=1;sketch=1;curveFitting=1;jiggle=2;labelBackgroundColor=none;" parent="ExKup5xLBlTpcws5XFxN-489" vertex="1">
          <mxGeometry x="30" width="400" height="30" as="geometry">
            <mxRectangle width="400" height="30" as="alternateBounds" />
          </mxGeometry>
        </mxCell>
        <mxCell id="ExKup5xLBlTpcws5XFxN-492" value="" style="shape=partialRectangle;collapsible=0;dropTarget=0;pointerEvents=0;fillColor=none;points=[[0,0.5],[1,0.5]];portConstraint=eastwest;top=0;left=0;right=0;bottom=0;rounded=1;sketch=1;curveFitting=1;jiggle=2;labelBackgroundColor=none;" parent="ExKup5xLBlTpcws5XFxN-476" vertex="1">
          <mxGeometry y="170" width="430" height="30" as="geometry" />
        </mxCell>
        <mxCell id="ExKup5xLBlTpcws5XFxN-493" value="" style="shape=partialRectangle;overflow=hidden;connectable=0;fillColor=none;top=0;left=0;bottom=0;right=0;rounded=1;sketch=1;curveFitting=1;jiggle=2;labelBackgroundColor=none;" parent="ExKup5xLBlTpcws5XFxN-492" vertex="1">
          <mxGeometry width="30" height="30" as="geometry">
            <mxRectangle width="30" height="30" as="alternateBounds" />
          </mxGeometry>
        </mxCell>
        <mxCell id="ExKup5xLBlTpcws5XFxN-494" value="discount decimal NOT NULL" style="shape=partialRectangle;overflow=hidden;connectable=0;fillColor=none;top=0;left=0;bottom=0;right=0;align=left;spacingLeft=6;rounded=1;sketch=1;curveFitting=1;jiggle=2;labelBackgroundColor=none;" parent="ExKup5xLBlTpcws5XFxN-492" vertex="1">
          <mxGeometry x="30" width="400" height="30" as="geometry">
            <mxRectangle width="400" height="30" as="alternateBounds" />
          </mxGeometry>
        </mxCell>
        <mxCell id="ExKup5xLBlTpcws5XFxN-526" value="" style="shape=partialRectangle;collapsible=0;dropTarget=0;pointerEvents=0;fillColor=none;points=[[0,0.5],[1,0.5]];portConstraint=eastwest;top=0;left=0;right=0;bottom=0;rounded=1;sketch=1;curveFitting=1;jiggle=2;labelBackgroundColor=none;" parent="ExKup5xLBlTpcws5XFxN-476" vertex="1">
          <mxGeometry y="200" width="430" height="30" as="geometry" />
        </mxCell>
        <mxCell id="ExKup5xLBlTpcws5XFxN-527" value="" style="shape=partialRectangle;overflow=hidden;connectable=0;fillColor=none;top=0;left=0;bottom=0;right=0;rounded=1;sketch=1;curveFitting=1;jiggle=2;labelBackgroundColor=none;" parent="ExKup5xLBlTpcws5XFxN-526" vertex="1">
          <mxGeometry width="30" height="30" as="geometry">
            <mxRectangle width="30" height="30" as="alternateBounds" />
          </mxGeometry>
        </mxCell>
        <mxCell id="ExKup5xLBlTpcws5XFxN-528" value="maxRequests int NOT NULL" style="shape=partialRectangle;overflow=hidden;connectable=0;fillColor=none;top=0;left=0;bottom=0;right=0;align=left;spacingLeft=6;rounded=1;sketch=1;curveFitting=1;jiggle=2;labelBackgroundColor=none;" parent="ExKup5xLBlTpcws5XFxN-526" vertex="1">
          <mxGeometry x="30" width="400" height="30" as="geometry">
            <mxRectangle width="400" height="30" as="alternateBounds" />
          </mxGeometry>
        </mxCell>
        <mxCell id="-vXe2rStmvxL6NYYiN9Q-7" value="FarmerRating" style="shape=table;startSize=24;container=1;collapsible=1;childLayout=tableLayout;fixedRows=1;rowLines=0;fontStyle=1;align=center;resizeLast=1;rounded=1;shadow=0;sketch=1;curveFitting=1;jiggle=2;labelBackgroundColor=none;" parent="1" vertex="1">
          <mxGeometry x="710" y="-1060" width="430" height="260" as="geometry">
            <mxRectangle x="471" y="106" width="70" height="30" as="alternateBounds" />
          </mxGeometry>
        </mxCell>
        <mxCell id="-vXe2rStmvxL6NYYiN9Q-8" value="" style="shape=partialRectangle;collapsible=0;dropTarget=0;pointerEvents=0;fillColor=none;points=[[0,0.5],[1,0.5]];portConstraint=eastwest;top=0;left=0;right=0;bottom=1;rounded=1;sketch=1;curveFitting=1;jiggle=2;labelBackgroundColor=none;" parent="-vXe2rStmvxL6NYYiN9Q-7" vertex="1">
          <mxGeometry y="24" width="430" height="30" as="geometry" />
        </mxCell>
        <mxCell id="-vXe2rStmvxL6NYYiN9Q-9" value="PK" style="shape=partialRectangle;overflow=hidden;connectable=0;fillColor=none;top=0;left=0;bottom=0;right=0;fontStyle=1;rounded=1;sketch=1;curveFitting=1;jiggle=2;labelBackgroundColor=none;" parent="-vXe2rStmvxL6NYYiN9Q-8" vertex="1">
          <mxGeometry width="30" height="30" as="geometry">
            <mxRectangle width="30" height="30" as="alternateBounds" />
          </mxGeometry>
        </mxCell>
        <mxCell id="-vXe2rStmvxL6NYYiN9Q-10" value="id int NOT NULL AUTO_INCREMENT" style="shape=partialRectangle;overflow=hidden;connectable=0;fillColor=none;top=0;left=0;bottom=0;right=0;align=left;spacingLeft=6;fontStyle=5;rounded=1;sketch=1;curveFitting=1;jiggle=2;labelBackgroundColor=none;" parent="-vXe2rStmvxL6NYYiN9Q-8" vertex="1">
          <mxGeometry x="30" width="400" height="30" as="geometry">
            <mxRectangle width="400" height="30" as="alternateBounds" />
          </mxGeometry>
        </mxCell>
        <mxCell id="-vXe2rStmvxL6NYYiN9Q-11" value="" style="shape=partialRectangle;collapsible=0;dropTarget=0;pointerEvents=0;fillColor=none;points=[[0,0.5],[1,0.5]];portConstraint=eastwest;top=0;left=0;right=0;bottom=0;rounded=1;sketch=1;curveFitting=1;jiggle=2;labelBackgroundColor=none;" parent="-vXe2rStmvxL6NYYiN9Q-7" vertex="1">
          <mxGeometry y="54" width="430" height="30" as="geometry" />
        </mxCell>
        <mxCell id="-vXe2rStmvxL6NYYiN9Q-12" value="" style="shape=partialRectangle;overflow=hidden;connectable=0;fillColor=none;top=0;left=0;bottom=0;right=0;rounded=1;sketch=1;curveFitting=1;jiggle=2;labelBackgroundColor=none;" parent="-vXe2rStmvxL6NYYiN9Q-11" vertex="1">
          <mxGeometry width="30" height="30" as="geometry">
            <mxRectangle width="30" height="30" as="alternateBounds" />
          </mxGeometry>
        </mxCell>
        <mxCell id="-vXe2rStmvxL6NYYiN9Q-13" value="insertDate timestamp Current_timestamp NOT NULL" style="shape=partialRectangle;overflow=hidden;connectable=0;fillColor=none;top=0;left=0;bottom=0;right=0;align=left;spacingLeft=6;rounded=1;sketch=1;curveFitting=1;jiggle=2;labelBackgroundColor=none;" parent="-vXe2rStmvxL6NYYiN9Q-11" vertex="1">
          <mxGeometry x="30" width="400" height="30" as="geometry">
            <mxRectangle width="400" height="30" as="alternateBounds" />
          </mxGeometry>
        </mxCell>
        <mxCell id="-vXe2rStmvxL6NYYiN9Q-14" value="" style="shape=partialRectangle;collapsible=0;dropTarget=0;pointerEvents=0;fillColor=none;points=[[0,0.5],[1,0.5]];portConstraint=eastwest;top=0;left=0;right=0;bottom=0;rounded=1;sketch=1;curveFitting=1;jiggle=2;labelBackgroundColor=none;" parent="-vXe2rStmvxL6NYYiN9Q-7" vertex="1">
          <mxGeometry y="84" width="430" height="26" as="geometry" />
        </mxCell>
        <mxCell id="-vXe2rStmvxL6NYYiN9Q-15" value="" style="shape=partialRectangle;overflow=hidden;connectable=0;fillColor=none;top=0;left=0;bottom=0;right=0;rounded=1;sketch=1;curveFitting=1;jiggle=2;labelBackgroundColor=none;" parent="-vXe2rStmvxL6NYYiN9Q-14" vertex="1">
          <mxGeometry width="30" height="26" as="geometry">
            <mxRectangle width="30" height="26" as="alternateBounds" />
          </mxGeometry>
        </mxCell>
        <mxCell id="-vXe2rStmvxL6NYYiN9Q-16" value="updateDate timestamp OnUpdate Current_timestamp NOT NULL" style="shape=partialRectangle;overflow=hidden;connectable=0;fillColor=none;top=0;left=0;bottom=0;right=0;align=left;spacingLeft=6;rounded=1;sketch=1;curveFitting=1;jiggle=2;labelBackgroundColor=none;" parent="-vXe2rStmvxL6NYYiN9Q-14" vertex="1">
          <mxGeometry x="30" width="400" height="26" as="geometry">
            <mxRectangle width="400" height="26" as="alternateBounds" />
          </mxGeometry>
        </mxCell>
        <mxCell id="-vXe2rStmvxL6NYYiN9Q-17" value="" style="shape=partialRectangle;collapsible=0;dropTarget=0;pointerEvents=0;fillColor=none;points=[[0,0.5],[1,0.5]];portConstraint=eastwest;top=0;left=0;right=0;bottom=0;rounded=1;sketch=1;curveFitting=1;jiggle=2;labelBackgroundColor=none;" parent="-vXe2rStmvxL6NYYiN9Q-7" vertex="1">
          <mxGeometry y="110" width="430" height="30" as="geometry" />
        </mxCell>
        <mxCell id="-vXe2rStmvxL6NYYiN9Q-18" value="" style="shape=partialRectangle;overflow=hidden;connectable=0;fillColor=none;top=0;left=0;bottom=0;right=0;rounded=1;sketch=1;curveFitting=1;jiggle=2;labelBackgroundColor=none;" parent="-vXe2rStmvxL6NYYiN9Q-17" vertex="1">
          <mxGeometry width="30" height="30" as="geometry">
            <mxRectangle width="30" height="30" as="alternateBounds" />
          </mxGeometry>
        </mxCell>
        <mxCell id="-vXe2rStmvxL6NYYiN9Q-19" value="description text NULL" style="shape=partialRectangle;overflow=hidden;connectable=0;fillColor=none;top=0;left=0;bottom=0;right=0;align=left;spacingLeft=6;rounded=1;sketch=1;curveFitting=1;jiggle=2;labelBackgroundColor=none;" parent="-vXe2rStmvxL6NYYiN9Q-17" vertex="1">
          <mxGeometry x="30" width="400" height="30" as="geometry">
            <mxRectangle width="400" height="30" as="alternateBounds" />
          </mxGeometry>
        </mxCell>
        <mxCell id="-vXe2rStmvxL6NYYiN9Q-20" value="" style="shape=partialRectangle;collapsible=0;dropTarget=0;pointerEvents=0;fillColor=none;points=[[0,0.5],[1,0.5]];portConstraint=eastwest;top=0;left=0;right=0;bottom=0;rounded=1;sketch=1;curveFitting=1;jiggle=2;labelBackgroundColor=none;" parent="-vXe2rStmvxL6NYYiN9Q-7" vertex="1">
          <mxGeometry y="140" width="430" height="30" as="geometry" />
        </mxCell>
        <mxCell id="-vXe2rStmvxL6NYYiN9Q-21" value="" style="shape=partialRectangle;overflow=hidden;connectable=0;fillColor=none;top=0;left=0;bottom=0;right=0;rounded=1;sketch=1;curveFitting=1;jiggle=2;labelBackgroundColor=none;" parent="-vXe2rStmvxL6NYYiN9Q-20" vertex="1">
          <mxGeometry width="30" height="30" as="geometry">
            <mxRectangle width="30" height="30" as="alternateBounds" />
          </mxGeometry>
        </mxCell>
        <mxCell id="-vXe2rStmvxL6NYYiN9Q-22" value="stars decimal NOT NULL (range 0-5)" style="shape=partialRectangle;overflow=hidden;connectable=0;fillColor=none;top=0;left=0;bottom=0;right=0;align=left;spacingLeft=6;rounded=1;sketch=1;curveFitting=1;jiggle=2;labelBackgroundColor=none;" parent="-vXe2rStmvxL6NYYiN9Q-20" vertex="1">
          <mxGeometry x="30" width="400" height="30" as="geometry">
            <mxRectangle width="400" height="30" as="alternateBounds" />
          </mxGeometry>
        </mxCell>
        <mxCell id="-vXe2rStmvxL6NYYiN9Q-23" value="" style="shape=partialRectangle;collapsible=0;dropTarget=0;pointerEvents=0;fillColor=none;points=[[0,0.5],[1,0.5]];portConstraint=eastwest;top=0;left=0;right=0;bottom=0;rounded=1;sketch=1;curveFitting=1;jiggle=2;labelBackgroundColor=none;" parent="-vXe2rStmvxL6NYYiN9Q-7" vertex="1">
          <mxGeometry y="170" width="430" height="30" as="geometry" />
        </mxCell>
        <mxCell id="-vXe2rStmvxL6NYYiN9Q-24" value="" style="shape=partialRectangle;overflow=hidden;connectable=0;fillColor=none;top=0;left=0;bottom=0;right=0;rounded=1;sketch=1;curveFitting=1;jiggle=2;labelBackgroundColor=none;" parent="-vXe2rStmvxL6NYYiN9Q-23" vertex="1">
          <mxGeometry width="30" height="30" as="geometry">
            <mxRectangle width="30" height="30" as="alternateBounds" />
          </mxGeometry>
        </mxCell>
        <mxCell id="-vXe2rStmvxL6NYYiN9Q-25" value="workPlaceRate decimal NOT NULL (range 0-5)" style="shape=partialRectangle;overflow=hidden;connectable=0;fillColor=none;top=0;left=0;bottom=0;right=0;align=left;spacingLeft=6;rounded=1;sketch=1;curveFitting=1;jiggle=2;labelBackgroundColor=none;" parent="-vXe2rStmvxL6NYYiN9Q-23" vertex="1">
          <mxGeometry x="30" width="400" height="30" as="geometry">
            <mxRectangle width="400" height="30" as="alternateBounds" />
          </mxGeometry>
        </mxCell>
        <mxCell id="-vXe2rStmvxL6NYYiN9Q-29" value="" style="shape=partialRectangle;collapsible=0;dropTarget=0;pointerEvents=0;fillColor=none;points=[[0,0.5],[1,0.5]];portConstraint=eastwest;top=0;left=0;right=0;bottom=0;rounded=1;sketch=1;curveFitting=1;jiggle=2;labelBackgroundColor=none;" parent="-vXe2rStmvxL6NYYiN9Q-7" vertex="1">
          <mxGeometry y="200" width="430" height="30" as="geometry" />
        </mxCell>
        <mxCell id="-vXe2rStmvxL6NYYiN9Q-30" value="" style="shape=partialRectangle;overflow=hidden;connectable=0;fillColor=none;top=0;left=0;bottom=0;right=0;rounded=1;sketch=1;curveFitting=1;jiggle=2;labelBackgroundColor=none;" parent="-vXe2rStmvxL6NYYiN9Q-29" vertex="1">
          <mxGeometry width="30" height="30" as="geometry">
            <mxRectangle width="30" height="30" as="alternateBounds" />
          </mxGeometry>
        </mxCell>
        <mxCell id="-vXe2rStmvxL6NYYiN9Q-31" value="paymentConsequence decimal NOT NULL (range 0-5)" style="shape=partialRectangle;overflow=hidden;connectable=0;fillColor=none;top=0;left=0;bottom=0;right=0;align=left;spacingLeft=6;rounded=1;sketch=1;curveFitting=1;jiggle=2;labelBackgroundColor=none;" parent="-vXe2rStmvxL6NYYiN9Q-29" vertex="1">
          <mxGeometry x="30" width="400" height="30" as="geometry">
            <mxRectangle width="400" height="30" as="alternateBounds" />
          </mxGeometry>
        </mxCell>
        <mxCell id="-vXe2rStmvxL6NYYiN9Q-26" value="" style="shape=partialRectangle;collapsible=0;dropTarget=0;pointerEvents=0;fillColor=none;points=[[0,0.5],[1,0.5]];portConstraint=eastwest;top=0;left=0;right=0;bottom=0;rounded=1;sketch=1;curveFitting=1;jiggle=2;labelBackgroundColor=none;" parent="-vXe2rStmvxL6NYYiN9Q-7" vertex="1">
          <mxGeometry y="230" width="430" height="30" as="geometry" />
        </mxCell>
        <mxCell id="-vXe2rStmvxL6NYYiN9Q-27" value="FK1" style="shape=partialRectangle;overflow=hidden;connectable=0;fillColor=none;top=0;left=0;bottom=0;right=0;rounded=1;sketch=1;curveFitting=1;jiggle=2;labelBackgroundColor=none;" parent="-vXe2rStmvxL6NYYiN9Q-26" vertex="1">
          <mxGeometry width="30" height="30" as="geometry">
            <mxRectangle width="30" height="30" as="alternateBounds" />
          </mxGeometry>
        </mxCell>
        <mxCell id="-vXe2rStmvxL6NYYiN9Q-28" value="employeeRequestId int NOT NULL" style="shape=partialRectangle;overflow=hidden;connectable=0;fillColor=none;top=0;left=0;bottom=0;right=0;align=left;spacingLeft=6;rounded=1;sketch=1;curveFitting=1;jiggle=2;labelBackgroundColor=none;" parent="-vXe2rStmvxL6NYYiN9Q-26" vertex="1">
          <mxGeometry x="30" width="400" height="30" as="geometry">
            <mxRectangle width="400" height="30" as="alternateBounds" />
          </mxGeometry>
        </mxCell>
        <mxCell id="-vXe2rStmvxL6NYYiN9Q-32" value="EmployeeRating" style="shape=table;startSize=24;container=1;collapsible=1;childLayout=tableLayout;fixedRows=1;rowLines=0;fontStyle=1;align=center;resizeLast=1;rounded=1;shadow=0;sketch=1;curveFitting=1;jiggle=2;labelBackgroundColor=none;" parent="1" vertex="1">
          <mxGeometry x="700" y="-720" width="430" height="260" as="geometry">
            <mxRectangle x="471" y="106" width="70" height="30" as="alternateBounds" />
          </mxGeometry>
        </mxCell>
        <mxCell id="-vXe2rStmvxL6NYYiN9Q-33" value="" style="shape=partialRectangle;collapsible=0;dropTarget=0;pointerEvents=0;fillColor=none;points=[[0,0.5],[1,0.5]];portConstraint=eastwest;top=0;left=0;right=0;bottom=1;rounded=1;sketch=1;curveFitting=1;jiggle=2;labelBackgroundColor=none;" parent="-vXe2rStmvxL6NYYiN9Q-32" vertex="1">
          <mxGeometry y="24" width="430" height="30" as="geometry" />
        </mxCell>
        <mxCell id="-vXe2rStmvxL6NYYiN9Q-34" value="PK" style="shape=partialRectangle;overflow=hidden;connectable=0;fillColor=none;top=0;left=0;bottom=0;right=0;fontStyle=1;rounded=1;sketch=1;curveFitting=1;jiggle=2;labelBackgroundColor=none;" parent="-vXe2rStmvxL6NYYiN9Q-33" vertex="1">
          <mxGeometry width="30" height="30" as="geometry">
            <mxRectangle width="30" height="30" as="alternateBounds" />
          </mxGeometry>
        </mxCell>
        <mxCell id="-vXe2rStmvxL6NYYiN9Q-35" value="id int NOT NULL AUTO_INCREMENT" style="shape=partialRectangle;overflow=hidden;connectable=0;fillColor=none;top=0;left=0;bottom=0;right=0;align=left;spacingLeft=6;fontStyle=5;rounded=1;sketch=1;curveFitting=1;jiggle=2;labelBackgroundColor=none;" parent="-vXe2rStmvxL6NYYiN9Q-33" vertex="1">
          <mxGeometry x="30" width="400" height="30" as="geometry">
            <mxRectangle width="400" height="30" as="alternateBounds" />
          </mxGeometry>
        </mxCell>
        <mxCell id="-vXe2rStmvxL6NYYiN9Q-36" value="" style="shape=partialRectangle;collapsible=0;dropTarget=0;pointerEvents=0;fillColor=none;points=[[0,0.5],[1,0.5]];portConstraint=eastwest;top=0;left=0;right=0;bottom=0;rounded=1;sketch=1;curveFitting=1;jiggle=2;labelBackgroundColor=none;" parent="-vXe2rStmvxL6NYYiN9Q-32" vertex="1">
          <mxGeometry y="54" width="430" height="30" as="geometry" />
        </mxCell>
        <mxCell id="-vXe2rStmvxL6NYYiN9Q-37" value="" style="shape=partialRectangle;overflow=hidden;connectable=0;fillColor=none;top=0;left=0;bottom=0;right=0;rounded=1;sketch=1;curveFitting=1;jiggle=2;labelBackgroundColor=none;" parent="-vXe2rStmvxL6NYYiN9Q-36" vertex="1">
          <mxGeometry width="30" height="30" as="geometry">
            <mxRectangle width="30" height="30" as="alternateBounds" />
          </mxGeometry>
        </mxCell>
        <mxCell id="-vXe2rStmvxL6NYYiN9Q-38" value="insertDate timestamp Current_timestamp NOT NULL" style="shape=partialRectangle;overflow=hidden;connectable=0;fillColor=none;top=0;left=0;bottom=0;right=0;align=left;spacingLeft=6;rounded=1;sketch=1;curveFitting=1;jiggle=2;labelBackgroundColor=none;" parent="-vXe2rStmvxL6NYYiN9Q-36" vertex="1">
          <mxGeometry x="30" width="400" height="30" as="geometry">
            <mxRectangle width="400" height="30" as="alternateBounds" />
          </mxGeometry>
        </mxCell>
        <mxCell id="-vXe2rStmvxL6NYYiN9Q-39" value="" style="shape=partialRectangle;collapsible=0;dropTarget=0;pointerEvents=0;fillColor=none;points=[[0,0.5],[1,0.5]];portConstraint=eastwest;top=0;left=0;right=0;bottom=0;rounded=1;sketch=1;curveFitting=1;jiggle=2;labelBackgroundColor=none;" parent="-vXe2rStmvxL6NYYiN9Q-32" vertex="1">
          <mxGeometry y="84" width="430" height="26" as="geometry" />
        </mxCell>
        <mxCell id="-vXe2rStmvxL6NYYiN9Q-40" value="" style="shape=partialRectangle;overflow=hidden;connectable=0;fillColor=none;top=0;left=0;bottom=0;right=0;rounded=1;sketch=1;curveFitting=1;jiggle=2;labelBackgroundColor=none;" parent="-vXe2rStmvxL6NYYiN9Q-39" vertex="1">
          <mxGeometry width="30" height="26" as="geometry">
            <mxRectangle width="30" height="26" as="alternateBounds" />
          </mxGeometry>
        </mxCell>
        <mxCell id="-vXe2rStmvxL6NYYiN9Q-41" value="updateDate timestamp OnUpdate Current_timestamp NOT NULL" style="shape=partialRectangle;overflow=hidden;connectable=0;fillColor=none;top=0;left=0;bottom=0;right=0;align=left;spacingLeft=6;rounded=1;sketch=1;curveFitting=1;jiggle=2;labelBackgroundColor=none;" parent="-vXe2rStmvxL6NYYiN9Q-39" vertex="1">
          <mxGeometry x="30" width="400" height="26" as="geometry">
            <mxRectangle width="400" height="26" as="alternateBounds" />
          </mxGeometry>
        </mxCell>
        <mxCell id="-vXe2rStmvxL6NYYiN9Q-42" value="" style="shape=partialRectangle;collapsible=0;dropTarget=0;pointerEvents=0;fillColor=none;points=[[0,0.5],[1,0.5]];portConstraint=eastwest;top=0;left=0;right=0;bottom=0;rounded=1;sketch=1;curveFitting=1;jiggle=2;labelBackgroundColor=none;" parent="-vXe2rStmvxL6NYYiN9Q-32" vertex="1">
          <mxGeometry y="110" width="430" height="30" as="geometry" />
        </mxCell>
        <mxCell id="-vXe2rStmvxL6NYYiN9Q-43" value="" style="shape=partialRectangle;overflow=hidden;connectable=0;fillColor=none;top=0;left=0;bottom=0;right=0;rounded=1;sketch=1;curveFitting=1;jiggle=2;labelBackgroundColor=none;" parent="-vXe2rStmvxL6NYYiN9Q-42" vertex="1">
          <mxGeometry width="30" height="30" as="geometry">
            <mxRectangle width="30" height="30" as="alternateBounds" />
          </mxGeometry>
        </mxCell>
        <mxCell id="-vXe2rStmvxL6NYYiN9Q-44" value="description text NULL" style="shape=partialRectangle;overflow=hidden;connectable=0;fillColor=none;top=0;left=0;bottom=0;right=0;align=left;spacingLeft=6;rounded=1;sketch=1;curveFitting=1;jiggle=2;labelBackgroundColor=none;" parent="-vXe2rStmvxL6NYYiN9Q-42" vertex="1">
          <mxGeometry x="30" width="400" height="30" as="geometry">
            <mxRectangle width="400" height="30" as="alternateBounds" />
          </mxGeometry>
        </mxCell>
        <mxCell id="-vXe2rStmvxL6NYYiN9Q-45" value="" style="shape=partialRectangle;collapsible=0;dropTarget=0;pointerEvents=0;fillColor=none;points=[[0,0.5],[1,0.5]];portConstraint=eastwest;top=0;left=0;right=0;bottom=0;rounded=1;sketch=1;curveFitting=1;jiggle=2;labelBackgroundColor=none;" parent="-vXe2rStmvxL6NYYiN9Q-32" vertex="1">
          <mxGeometry y="140" width="430" height="30" as="geometry" />
        </mxCell>
        <mxCell id="-vXe2rStmvxL6NYYiN9Q-46" value="" style="shape=partialRectangle;overflow=hidden;connectable=0;fillColor=none;top=0;left=0;bottom=0;right=0;rounded=1;sketch=1;curveFitting=1;jiggle=2;labelBackgroundColor=none;" parent="-vXe2rStmvxL6NYYiN9Q-45" vertex="1">
          <mxGeometry width="30" height="30" as="geometry">
            <mxRectangle width="30" height="30" as="alternateBounds" />
          </mxGeometry>
        </mxCell>
        <mxCell id="-vXe2rStmvxL6NYYiN9Q-47" value="stars decimal NOT NULL (range 0-5)" style="shape=partialRectangle;overflow=hidden;connectable=0;fillColor=none;top=0;left=0;bottom=0;right=0;align=left;spacingLeft=6;rounded=1;sketch=1;curveFitting=1;jiggle=2;labelBackgroundColor=none;" parent="-vXe2rStmvxL6NYYiN9Q-45" vertex="1">
          <mxGeometry x="30" width="400" height="30" as="geometry">
            <mxRectangle width="400" height="30" as="alternateBounds" />
          </mxGeometry>
        </mxCell>
        <mxCell id="-vXe2rStmvxL6NYYiN9Q-48" value="" style="shape=partialRectangle;collapsible=0;dropTarget=0;pointerEvents=0;fillColor=none;points=[[0,0.5],[1,0.5]];portConstraint=eastwest;top=0;left=0;right=0;bottom=0;rounded=1;sketch=1;curveFitting=1;jiggle=2;labelBackgroundColor=none;" parent="-vXe2rStmvxL6NYYiN9Q-32" vertex="1">
          <mxGeometry y="170" width="430" height="30" as="geometry" />
        </mxCell>
        <mxCell id="-vXe2rStmvxL6NYYiN9Q-49" value="" style="shape=partialRectangle;overflow=hidden;connectable=0;fillColor=none;top=0;left=0;bottom=0;right=0;rounded=1;sketch=1;curveFitting=1;jiggle=2;labelBackgroundColor=none;" parent="-vXe2rStmvxL6NYYiN9Q-48" vertex="1">
          <mxGeometry width="30" height="30" as="geometry">
            <mxRectangle width="30" height="30" as="alternateBounds" />
          </mxGeometry>
        </mxCell>
        <mxCell id="-vXe2rStmvxL6NYYiN9Q-50" value="JobQualityRate decimal NOT NULL (range 0-5)" style="shape=partialRectangle;overflow=hidden;connectable=0;fillColor=none;top=0;left=0;bottom=0;right=0;align=left;spacingLeft=6;rounded=1;sketch=1;curveFitting=1;jiggle=2;labelBackgroundColor=none;" parent="-vXe2rStmvxL6NYYiN9Q-48" vertex="1">
          <mxGeometry x="30" width="400" height="30" as="geometry">
            <mxRectangle width="400" height="30" as="alternateBounds" />
          </mxGeometry>
        </mxCell>
        <mxCell id="-vXe2rStmvxL6NYYiN9Q-51" value="" style="shape=partialRectangle;collapsible=0;dropTarget=0;pointerEvents=0;fillColor=none;points=[[0,0.5],[1,0.5]];portConstraint=eastwest;top=0;left=0;right=0;bottom=0;rounded=1;sketch=1;curveFitting=1;jiggle=2;labelBackgroundColor=none;" parent="-vXe2rStmvxL6NYYiN9Q-32" vertex="1">
          <mxGeometry y="200" width="430" height="30" as="geometry" />
        </mxCell>
        <mxCell id="-vXe2rStmvxL6NYYiN9Q-52" value="" style="shape=partialRectangle;overflow=hidden;connectable=0;fillColor=none;top=0;left=0;bottom=0;right=0;rounded=1;sketch=1;curveFitting=1;jiggle=2;labelBackgroundColor=none;" parent="-vXe2rStmvxL6NYYiN9Q-51" vertex="1">
          <mxGeometry width="30" height="30" as="geometry">
            <mxRectangle width="30" height="30" as="alternateBounds" />
          </mxGeometry>
        </mxCell>
        <mxCell id="-vXe2rStmvxL6NYYiN9Q-53" value="ContactQualityRate decimal NOT NULL (range 0-5)" style="shape=partialRectangle;overflow=hidden;connectable=0;fillColor=none;top=0;left=0;bottom=0;right=0;align=left;spacingLeft=6;rounded=1;sketch=1;curveFitting=1;jiggle=2;labelBackgroundColor=none;" parent="-vXe2rStmvxL6NYYiN9Q-51" vertex="1">
          <mxGeometry x="30" width="400" height="30" as="geometry">
            <mxRectangle width="400" height="30" as="alternateBounds" />
          </mxGeometry>
        </mxCell>
        <mxCell id="-vXe2rStmvxL6NYYiN9Q-54" value="" style="shape=partialRectangle;collapsible=0;dropTarget=0;pointerEvents=0;fillColor=none;points=[[0,0.5],[1,0.5]];portConstraint=eastwest;top=0;left=0;right=0;bottom=0;rounded=1;sketch=1;curveFitting=1;jiggle=2;labelBackgroundColor=none;" parent="-vXe2rStmvxL6NYYiN9Q-32" vertex="1">
          <mxGeometry y="230" width="430" height="30" as="geometry" />
        </mxCell>
        <mxCell id="-vXe2rStmvxL6NYYiN9Q-55" value="FK1" style="shape=partialRectangle;overflow=hidden;connectable=0;fillColor=none;top=0;left=0;bottom=0;right=0;rounded=1;sketch=1;curveFitting=1;jiggle=2;labelBackgroundColor=none;" parent="-vXe2rStmvxL6NYYiN9Q-54" vertex="1">
          <mxGeometry width="30" height="30" as="geometry">
            <mxRectangle width="30" height="30" as="alternateBounds" />
          </mxGeometry>
        </mxCell>
        <mxCell id="-vXe2rStmvxL6NYYiN9Q-56" value="employeeRequestId int NOT NULL" style="shape=partialRectangle;overflow=hidden;connectable=0;fillColor=none;top=0;left=0;bottom=0;right=0;align=left;spacingLeft=6;rounded=1;sketch=1;curveFitting=1;jiggle=2;labelBackgroundColor=none;" parent="-vXe2rStmvxL6NYYiN9Q-54" vertex="1">
          <mxGeometry x="30" width="400" height="30" as="geometry">
            <mxRectangle width="400" height="30" as="alternateBounds" />
          </mxGeometry>
        </mxCell>
        <mxCell id="-vXe2rStmvxL6NYYiN9Q-57" value="" style="edgeStyle=entityRelationEdgeStyle;fontSize=12;html=1;endArrow=ERmandOne;startArrow=ERmandOne;rounded=1;exitX=0.463;exitY=-0.007;exitDx=0;exitDy=0;sketch=1;curveFitting=1;jiggle=2;labelBackgroundColor=none;fontColor=default;exitPerimeter=0;entryX=0.444;entryY=1.15;entryDx=0;entryDy=0;entryPerimeter=0;" parent="1" source="C-vyLk0tnHw3VtMMgP7b-2" target="dE7ULnlJ5DoON1_vQw4C-53" edge="1">
          <mxGeometry width="100" height="100" relative="1" as="geometry">
            <mxPoint x="650" y="140" as="sourcePoint" />
            <mxPoint x="530" y="-43" as="targetPoint" />
          </mxGeometry>
        </mxCell>
        <mxCell id="-vXe2rStmvxL6NYYiN9Q-58" value="" style="edgeStyle=entityRelationEdgeStyle;fontSize=12;html=1;endArrow=ERmandOne;startArrow=ERmandOne;rounded=1;entryX=-0.002;entryY=0.158;entryDx=0;entryDy=0;entryPerimeter=0;" parent="1" target="ExKup5xLBlTpcws5XFxN-142" edge="1">
          <mxGeometry width="100" height="100" relative="1" as="geometry">
            <mxPoint x="980" y="-160" as="sourcePoint" />
            <mxPoint x="1080" y="-260" as="targetPoint" />
          </mxGeometry>
        </mxCell>
        <mxCell id="-vXe2rStmvxL6NYYiN9Q-61" value="" style="edgeStyle=entityRelationEdgeStyle;fontSize=12;html=1;endArrow=ERmandOne;startArrow=ERmandOne;rounded=1;entryX=0;entryY=0.5;entryDx=0;entryDy=0;" parent="1" target="ExKup5xLBlTpcws5XFxN-67" edge="1">
          <mxGeometry width="100" height="100" relative="1" as="geometry">
            <mxPoint x="858" y="-26" as="sourcePoint" />
            <mxPoint x="980" y="130" as="targetPoint" />
          </mxGeometry>
        </mxCell>
        <mxCell id="-vXe2rStmvxL6NYYiN9Q-62" value="" style="edgeStyle=entityRelationEdgeStyle;fontSize=12;html=1;endArrow=ERoneToMany;rounded=1;entryX=0;entryY=0.5;entryDx=0;entryDy=0;" parent="1" target="ExKup5xLBlTpcws5XFxN-473" edge="1">
          <mxGeometry width="100" height="100" relative="1" as="geometry">
            <mxPoint x="-140" y="-810" as="sourcePoint" />
            <mxPoint x="-40" y="-910" as="targetPoint" />
          </mxGeometry>
        </mxCell>
        <mxCell id="-vXe2rStmvxL6NYYiN9Q-65" value="" style="edgeStyle=entityRelationEdgeStyle;fontSize=12;html=1;endArrow=ERmandOne;startArrow=ERmandOne;rounded=1;" parent="1" target="-vXe2rStmvxL6NYYiN9Q-26" edge="1">
          <mxGeometry width="100" height="100" relative="1" as="geometry">
            <mxPoint x="540" y="-620" as="sourcePoint" />
            <mxPoint x="640" y="-720" as="targetPoint" />
          </mxGeometry>
        </mxCell>
        <mxCell id="-vXe2rStmvxL6NYYiN9Q-66" value="" style="edgeStyle=entityRelationEdgeStyle;fontSize=12;html=1;endArrow=ERmandOne;startArrow=ERmandOne;rounded=1;entryX=-0.011;entryY=-0.079;entryDx=0;entryDy=0;entryPerimeter=0;" parent="1" target="-vXe2rStmvxL6NYYiN9Q-51" edge="1">
          <mxGeometry width="100" height="100" relative="1" as="geometry">
            <mxPoint x="540" y="-590" as="sourcePoint" />
            <mxPoint x="640" y="-690" as="targetPoint" />
          </mxGeometry>
        </mxCell>
        <mxCell id="-vXe2rStmvxL6NYYiN9Q-67" value="" style="edgeStyle=entityRelationEdgeStyle;fontSize=12;html=1;endArrow=ERoneToMany;rounded=1;entryX=0;entryY=0.5;entryDx=0;entryDy=0;" parent="1" target="ExKup5xLBlTpcws5XFxN-446" edge="1">
          <mxGeometry width="100" height="100" relative="1" as="geometry">
            <mxPoint x="-190" y="-440" as="sourcePoint" />
            <mxPoint x="-90" y="-540" as="targetPoint" />
          </mxGeometry>
        </mxCell>
        <mxCell id="-vXe2rStmvxL6NYYiN9Q-69" value="" style="edgeStyle=isometricEdgeStyle;fontSize=12;html=1;endArrow=ERoneToMany;rounded=1;elbow=vertical;exitX=0;exitY=0.068;exitDx=0;exitDy=0;exitPerimeter=0;entryX=1.011;entryY=0.206;entryDx=0;entryDy=0;entryPerimeter=0;" parent="1" source="ExKup5xLBlTpcws5XFxN-99" target="ExKup5xLBlTpcws5XFxN-473" edge="1">
          <mxGeometry width="100" height="100" relative="1" as="geometry">
            <mxPoint x="480" y="-370" as="sourcePoint" />
            <mxPoint x="580" y="-540" as="targetPoint" />
          </mxGeometry>
        </mxCell>
        <mxCell id="-vXe2rStmvxL6NYYiN9Q-70" value="" style="edgeStyle=entityRelationEdgeStyle;fontSize=12;html=1;endArrow=ERmandOne;startArrow=ERmandOne;rounded=1;entryX=0;entryY=0.5;entryDx=0;entryDy=0;exitX=1;exitY=0.5;exitDx=0;exitDy=0;" parent="1" source="ExKup5xLBlTpcws5XFxN-41" target="C-vyLk0tnHw3VtMMgP7b-6" edge="1">
          <mxGeometry width="100" height="100" relative="1" as="geometry">
            <mxPoint x="280" y="650" as="sourcePoint" />
            <mxPoint x="380" y="550" as="targetPoint" />
          </mxGeometry>
        </mxCell>
        <mxCell id="dE7ULnlJ5DoON1_vQw4C-28" value="Compsny" style="shape=table;startSize=24;container=1;collapsible=1;childLayout=tableLayout;fixedRows=1;rowLines=0;fontStyle=1;align=center;resizeLast=1;rounded=1;shadow=0;sketch=1;curveFitting=1;jiggle=2;labelBackgroundColor=none;" vertex="1" parent="1">
          <mxGeometry x="1196" y="-707" width="430" height="260" as="geometry">
            <mxRectangle x="471" y="106" width="70" height="30" as="alternateBounds" />
          </mxGeometry>
        </mxCell>
        <mxCell id="dE7ULnlJ5DoON1_vQw4C-29" value="" style="shape=partialRectangle;collapsible=0;dropTarget=0;pointerEvents=0;fillColor=none;points=[[0,0.5],[1,0.5]];portConstraint=eastwest;top=0;left=0;right=0;bottom=1;rounded=1;sketch=1;curveFitting=1;jiggle=2;labelBackgroundColor=none;" vertex="1" parent="dE7ULnlJ5DoON1_vQw4C-28">
          <mxGeometry y="24" width="430" height="30" as="geometry" />
        </mxCell>
        <mxCell id="dE7ULnlJ5DoON1_vQw4C-30" value="PK" style="shape=partialRectangle;overflow=hidden;connectable=0;fillColor=none;top=0;left=0;bottom=0;right=0;fontStyle=1;rounded=1;sketch=1;curveFitting=1;jiggle=2;labelBackgroundColor=none;" vertex="1" parent="dE7ULnlJ5DoON1_vQw4C-29">
          <mxGeometry width="30" height="30" as="geometry">
            <mxRectangle width="30" height="30" as="alternateBounds" />
          </mxGeometry>
        </mxCell>
        <mxCell id="dE7ULnlJ5DoON1_vQw4C-31" value="id int NOT NULL AUTO_INCREMENT" style="shape=partialRectangle;overflow=hidden;connectable=0;fillColor=none;top=0;left=0;bottom=0;right=0;align=left;spacingLeft=6;fontStyle=5;rounded=1;sketch=1;curveFitting=1;jiggle=2;labelBackgroundColor=none;" vertex="1" parent="dE7ULnlJ5DoON1_vQw4C-29">
          <mxGeometry x="30" width="400" height="30" as="geometry">
            <mxRectangle width="400" height="30" as="alternateBounds" />
          </mxGeometry>
        </mxCell>
        <mxCell id="dE7ULnlJ5DoON1_vQw4C-32" value="" style="shape=partialRectangle;collapsible=0;dropTarget=0;pointerEvents=0;fillColor=none;points=[[0,0.5],[1,0.5]];portConstraint=eastwest;top=0;left=0;right=0;bottom=0;rounded=1;sketch=1;curveFitting=1;jiggle=2;labelBackgroundColor=none;" vertex="1" parent="dE7ULnlJ5DoON1_vQw4C-28">
          <mxGeometry y="54" width="430" height="30" as="geometry" />
        </mxCell>
        <mxCell id="dE7ULnlJ5DoON1_vQw4C-33" value="" style="shape=partialRectangle;overflow=hidden;connectable=0;fillColor=none;top=0;left=0;bottom=0;right=0;rounded=1;sketch=1;curveFitting=1;jiggle=2;labelBackgroundColor=none;" vertex="1" parent="dE7ULnlJ5DoON1_vQw4C-32">
          <mxGeometry width="30" height="30" as="geometry">
            <mxRectangle width="30" height="30" as="alternateBounds" />
          </mxGeometry>
        </mxCell>
        <mxCell id="dE7ULnlJ5DoON1_vQw4C-34" value="insertDate timestamp Current_timestamp NOT NULL" style="shape=partialRectangle;overflow=hidden;connectable=0;fillColor=none;top=0;left=0;bottom=0;right=0;align=left;spacingLeft=6;rounded=1;sketch=1;curveFitting=1;jiggle=2;labelBackgroundColor=none;" vertex="1" parent="dE7ULnlJ5DoON1_vQw4C-32">
          <mxGeometry x="30" width="400" height="30" as="geometry">
            <mxRectangle width="400" height="30" as="alternateBounds" />
          </mxGeometry>
        </mxCell>
        <mxCell id="dE7ULnlJ5DoON1_vQw4C-35" value="" style="shape=partialRectangle;collapsible=0;dropTarget=0;pointerEvents=0;fillColor=none;points=[[0,0.5],[1,0.5]];portConstraint=eastwest;top=0;left=0;right=0;bottom=0;rounded=1;sketch=1;curveFitting=1;jiggle=2;labelBackgroundColor=none;" vertex="1" parent="dE7ULnlJ5DoON1_vQw4C-28">
          <mxGeometry y="84" width="430" height="26" as="geometry" />
        </mxCell>
        <mxCell id="dE7ULnlJ5DoON1_vQw4C-36" value="" style="shape=partialRectangle;overflow=hidden;connectable=0;fillColor=none;top=0;left=0;bottom=0;right=0;rounded=1;sketch=1;curveFitting=1;jiggle=2;labelBackgroundColor=none;" vertex="1" parent="dE7ULnlJ5DoON1_vQw4C-35">
          <mxGeometry width="30" height="26" as="geometry">
            <mxRectangle width="30" height="26" as="alternateBounds" />
          </mxGeometry>
        </mxCell>
        <mxCell id="dE7ULnlJ5DoON1_vQw4C-37" value="updateDate timestamp OnUpdate Current_timestamp NOT NULL" style="shape=partialRectangle;overflow=hidden;connectable=0;fillColor=none;top=0;left=0;bottom=0;right=0;align=left;spacingLeft=6;rounded=1;sketch=1;curveFitting=1;jiggle=2;labelBackgroundColor=none;" vertex="1" parent="dE7ULnlJ5DoON1_vQw4C-35">
          <mxGeometry x="30" width="400" height="26" as="geometry">
            <mxRectangle width="400" height="26" as="alternateBounds" />
          </mxGeometry>
        </mxCell>
        <mxCell id="dE7ULnlJ5DoON1_vQw4C-38" value="" style="shape=partialRectangle;collapsible=0;dropTarget=0;pointerEvents=0;fillColor=none;points=[[0,0.5],[1,0.5]];portConstraint=eastwest;top=0;left=0;right=0;bottom=0;rounded=1;sketch=1;curveFitting=1;jiggle=2;labelBackgroundColor=none;" vertex="1" parent="dE7ULnlJ5DoON1_vQw4C-28">
          <mxGeometry y="110" width="430" height="30" as="geometry" />
        </mxCell>
        <mxCell id="dE7ULnlJ5DoON1_vQw4C-39" value="" style="shape=partialRectangle;overflow=hidden;connectable=0;fillColor=none;top=0;left=0;bottom=0;right=0;rounded=1;sketch=1;curveFitting=1;jiggle=2;labelBackgroundColor=none;" vertex="1" parent="dE7ULnlJ5DoON1_vQw4C-38">
          <mxGeometry width="30" height="30" as="geometry">
            <mxRectangle width="30" height="30" as="alternateBounds" />
          </mxGeometry>
        </mxCell>
        <mxCell id="dE7ULnlJ5DoON1_vQw4C-40" value="compName varchar(255) NULL" style="shape=partialRectangle;overflow=hidden;connectable=0;fillColor=none;top=0;left=0;bottom=0;right=0;align=left;spacingLeft=6;rounded=1;sketch=1;curveFitting=1;jiggle=2;labelBackgroundColor=none;" vertex="1" parent="dE7ULnlJ5DoON1_vQw4C-38">
          <mxGeometry x="30" width="400" height="30" as="geometry">
            <mxRectangle width="400" height="30" as="alternateBounds" />
          </mxGeometry>
        </mxCell>
        <mxCell id="dE7ULnlJ5DoON1_vQw4C-41" value="" style="shape=partialRectangle;collapsible=0;dropTarget=0;pointerEvents=0;fillColor=none;points=[[0,0.5],[1,0.5]];portConstraint=eastwest;top=0;left=0;right=0;bottom=0;rounded=1;sketch=1;curveFitting=1;jiggle=2;labelBackgroundColor=none;" vertex="1" parent="dE7ULnlJ5DoON1_vQw4C-28">
          <mxGeometry y="140" width="430" height="30" as="geometry" />
        </mxCell>
        <mxCell id="dE7ULnlJ5DoON1_vQw4C-42" value="" style="shape=partialRectangle;overflow=hidden;connectable=0;fillColor=none;top=0;left=0;bottom=0;right=0;rounded=1;sketch=1;curveFitting=1;jiggle=2;labelBackgroundColor=none;" vertex="1" parent="dE7ULnlJ5DoON1_vQw4C-41">
          <mxGeometry width="30" height="30" as="geometry">
            <mxRectangle width="30" height="30" as="alternateBounds" />
          </mxGeometry>
        </mxCell>
        <mxCell id="dE7ULnlJ5DoON1_vQw4C-43" value="" style="shape=partialRectangle;overflow=hidden;connectable=0;fillColor=none;top=0;left=0;bottom=0;right=0;align=left;spacingLeft=6;rounded=1;sketch=1;curveFitting=1;jiggle=2;labelBackgroundColor=none;" vertex="1" parent="dE7ULnlJ5DoON1_vQw4C-41">
          <mxGeometry x="30" width="400" height="30" as="geometry">
            <mxRectangle width="400" height="30" as="alternateBounds" />
          </mxGeometry>
        </mxCell>
        <mxCell id="dE7ULnlJ5DoON1_vQw4C-44" value="" style="shape=partialRectangle;collapsible=0;dropTarget=0;pointerEvents=0;fillColor=none;points=[[0,0.5],[1,0.5]];portConstraint=eastwest;top=0;left=0;right=0;bottom=0;rounded=1;sketch=1;curveFitting=1;jiggle=2;labelBackgroundColor=none;" vertex="1" parent="dE7ULnlJ5DoON1_vQw4C-28">
          <mxGeometry y="170" width="430" height="30" as="geometry" />
        </mxCell>
        <mxCell id="dE7ULnlJ5DoON1_vQw4C-45" value="" style="shape=partialRectangle;overflow=hidden;connectable=0;fillColor=none;top=0;left=0;bottom=0;right=0;rounded=1;sketch=1;curveFitting=1;jiggle=2;labelBackgroundColor=none;" vertex="1" parent="dE7ULnlJ5DoON1_vQw4C-44">
          <mxGeometry width="30" height="30" as="geometry">
            <mxRectangle width="30" height="30" as="alternateBounds" />
          </mxGeometry>
        </mxCell>
        <mxCell id="dE7ULnlJ5DoON1_vQw4C-46" value="" style="shape=partialRectangle;overflow=hidden;connectable=0;fillColor=none;top=0;left=0;bottom=0;right=0;align=left;spacingLeft=6;rounded=1;sketch=1;curveFitting=1;jiggle=2;labelBackgroundColor=none;" vertex="1" parent="dE7ULnlJ5DoON1_vQw4C-44">
          <mxGeometry x="30" width="400" height="30" as="geometry">
            <mxRectangle width="400" height="30" as="alternateBounds" />
          </mxGeometry>
        </mxCell>
        <mxCell id="dE7ULnlJ5DoON1_vQw4C-47" value="" style="shape=partialRectangle;collapsible=0;dropTarget=0;pointerEvents=0;fillColor=none;points=[[0,0.5],[1,0.5]];portConstraint=eastwest;top=0;left=0;right=0;bottom=0;rounded=1;sketch=1;curveFitting=1;jiggle=2;labelBackgroundColor=none;" vertex="1" parent="dE7ULnlJ5DoON1_vQw4C-28">
          <mxGeometry y="200" width="430" height="30" as="geometry" />
        </mxCell>
        <mxCell id="dE7ULnlJ5DoON1_vQw4C-48" value="" style="shape=partialRectangle;overflow=hidden;connectable=0;fillColor=none;top=0;left=0;bottom=0;right=0;rounded=1;sketch=1;curveFitting=1;jiggle=2;labelBackgroundColor=none;" vertex="1" parent="dE7ULnlJ5DoON1_vQw4C-47">
          <mxGeometry width="30" height="30" as="geometry">
            <mxRectangle width="30" height="30" as="alternateBounds" />
          </mxGeometry>
        </mxCell>
        <mxCell id="dE7ULnlJ5DoON1_vQw4C-49" value="" style="shape=partialRectangle;overflow=hidden;connectable=0;fillColor=none;top=0;left=0;bottom=0;right=0;align=left;spacingLeft=6;rounded=1;sketch=1;curveFitting=1;jiggle=2;labelBackgroundColor=none;" vertex="1" parent="dE7ULnlJ5DoON1_vQw4C-47">
          <mxGeometry x="30" width="400" height="30" as="geometry">
            <mxRectangle width="400" height="30" as="alternateBounds" />
          </mxGeometry>
        </mxCell>
        <mxCell id="dE7ULnlJ5DoON1_vQw4C-50" value="" style="shape=partialRectangle;collapsible=0;dropTarget=0;pointerEvents=0;fillColor=none;points=[[0,0.5],[1,0.5]];portConstraint=eastwest;top=0;left=0;right=0;bottom=0;rounded=1;sketch=1;curveFitting=1;jiggle=2;labelBackgroundColor=none;" vertex="1" parent="dE7ULnlJ5DoON1_vQw4C-28">
          <mxGeometry y="230" width="430" height="30" as="geometry" />
        </mxCell>
        <mxCell id="dE7ULnlJ5DoON1_vQw4C-51" value="FK1" style="shape=partialRectangle;overflow=hidden;connectable=0;fillColor=none;top=0;left=0;bottom=0;right=0;rounded=1;sketch=1;curveFitting=1;jiggle=2;labelBackgroundColor=none;" vertex="1" parent="dE7ULnlJ5DoON1_vQw4C-50">
          <mxGeometry width="30" height="30" as="geometry">
            <mxRectangle width="30" height="30" as="alternateBounds" />
          </mxGeometry>
        </mxCell>
        <mxCell id="dE7ULnlJ5DoON1_vQw4C-52" value="" style="shape=partialRectangle;overflow=hidden;connectable=0;fillColor=none;top=0;left=0;bottom=0;right=0;align=left;spacingLeft=6;rounded=1;sketch=1;curveFitting=1;jiggle=2;labelBackgroundColor=none;" vertex="1" parent="dE7ULnlJ5DoON1_vQw4C-50">
          <mxGeometry x="30" width="400" height="30" as="geometry">
            <mxRectangle width="400" height="30" as="alternateBounds" />
          </mxGeometry>
        </mxCell>
      </root>
    </mxGraphModel>
  </diagram>
</mxfile>
